<svg width="1320" height="478" viewBox="0 0 1320 478" fill="none" xmlns="http://www.w3.org/2000/svg">
<rect width="1320" height="478" rx="20" fill="#FFE9B3"/>
<path d="M86.2665 478.89H420.225C423.729 478.89 426.545 476.051 426.545 472.548C426.545 469.067 423.729 466.228 420.225 466.228H86.2665C78.4835 466.228 71.1662 463.191 65.6671 457.692C60.168 452.192 57.1302 444.875 57.1302 437.07C57.1302 420.95 70.2127 407.823 86.2665 407.823H91.3665C114.405 407.823 133.164 389.064 133.164 366.003C133.164 354.872 128.818 344.339 120.946 336.357C112.897 328.419 102.409 324.095 91.3665 324.095H-144.961C-152.744 324.095 -160.062 321.057 -165.561 315.558C-171.06 310.059 -174.076 302.741 -174.076 294.936C-174.076 278.816 -161.015 265.689 -144.961 265.689H119.616C142.654 265.689 161.413 246.93 161.413 223.869C161.413 212.738 157.067 202.228 149.196 194.223C141.147 186.285 130.658 181.961 119.616 181.961H28.7921C25.2887 181.961 22.4726 184.799 22.4726 188.28C22.4726 191.784 25.2887 194.622 28.7921 194.622H119.616C127.31 194.622 134.65 197.66 140.26 203.181C145.714 208.725 148.752 216.086 148.752 223.869C148.752 239.945 135.67 253.028 119.616 253.028H-144.961C-168 253.028 -186.759 271.831 -186.759 294.936C-186.759 306.112 -182.413 316.622 -174.519 324.516C-166.625 332.41 -156.137 336.756 -144.961 336.756H91.3665C99.0608 336.756 106.4 339.794 111.988 345.315C117.443 350.858 120.481 358.22 120.481 366.003C120.481 382.079 107.42 395.162 91.3665 395.162H86.2665C63.228 395.162 44.469 413.965 44.469 437.07C44.469 448.246 48.815 458.756 56.7089 466.65C64.6028 474.544 75.0909 478.89 86.2665 478.89Z" fill="#FFDE8C" fill-opacity="0.6"/>
<path d="M312.021 407.822C315.502 407.822 318.341 404.984 318.341 401.481C318.341 397.999 315.502 395.161 312.021 395.161C304.216 395.161 296.899 392.123 291.4 386.624C285.923 381.125 282.885 373.808 282.885 366.003C282.885 349.882 295.945 336.755 312.021 336.755H420.229C443.334 336.755 462.115 317.996 462.115 294.936C462.115 283.583 457.703 273.05 449.72 265.289C442.092 257.418 431.56 253.027 420.229 253.027H396.392C388.521 253.027 381.203 250.012 375.815 244.513C370.205 238.991 367.167 231.696 367.167 223.869C367.167 207.749 380.272 194.622 396.392 194.622H420.229C443.334 194.622 462.115 175.863 462.115 152.802C462.115 141.449 457.703 130.916 449.72 123.156C442.092 115.284 431.56 110.894 420.229 110.894H137.691C134.188 110.894 131.349 113.732 131.349 117.213C131.349 120.717 134.188 123.555 137.691 123.555H420.229C428.123 123.555 435.418 126.593 440.762 132.114C446.416 137.613 449.454 144.908 449.454 152.802C449.454 168.878 436.349 181.96 420.229 181.96H396.392C373.287 181.96 354.506 200.764 354.506 223.869C354.506 235.111 358.896 245.621 366.857 253.493C374.485 261.209 385.261 265.689 396.392 265.689H420.229C428.101 265.689 435.396 268.726 440.762 274.248C446.416 279.747 449.454 287.042 449.454 294.936C449.454 311.012 436.327 324.094 420.229 324.094H312.021C288.96 324.094 270.224 342.898 270.224 366.003C270.224 377.178 274.57 387.689 282.463 395.582C290.335 403.476 300.846 407.822 312.021 407.822Z" fill="#FFDE8C" fill-opacity="0.6"/>
<mask id="mask0_1418_6201" style="mask-type:luminance" maskUnits="userSpaceOnUse" x="501" y="319" width="186" height="91">
<path d="M686.145 319.039H501.371V409.863H686.145V319.039Z" fill="white"/>
</mask>
<g mask="url(#mask0_1418_6201)">
<path d="M543.236 407.824H644.459C667.498 407.824 686.234 389.065 686.234 366.004C686.234 354.873 681.91 344.34 674.039 336.358C665.99 328.42 655.502 324.096 644.459 324.096H543.236C520.197 324.096 501.46 342.899 501.46 366.004C501.46 377.18 505.784 387.69 513.678 395.584C521.572 403.478 532.06 407.824 543.236 407.824ZM644.459 336.757C652.153 336.757 659.493 339.795 665.081 345.316C670.535 350.859 673.573 358.221 673.573 366.004C673.573 382.08 660.513 395.163 644.459 395.163H543.236C535.453 395.163 528.136 392.125 522.636 386.626C517.137 381.127 514.122 373.809 514.122 366.004C514.122 349.884 527.182 336.757 543.236 336.757H644.459Z" fill="#FFDE8C" fill-opacity="0.6"/>
</g>
<mask id="mask1_1418_6201" style="mask-type:luminance" maskUnits="userSpaceOnUse" x="177" y="-29" width="143" height="87">
<path d="M319.711 -29H177.799V57.9211H319.711V-29Z" fill="white"/>
</mask>
<g mask="url(#mask1_1418_6201)">
<path d="M223.747 55.0159H274.347C297.408 55.0159 316.145 36.2569 316.145 13.1962C316.145 2.06496 311.821 -8.46757 303.949 -16.4501C295.878 -24.3883 285.412 -28.7344 274.347 -28.7344H223.747C200.708 -28.7344 181.949 -9.93104 181.949 13.1962C181.949 24.3718 186.295 34.8821 194.189 42.776C202.083 50.6698 212.571 55.0159 223.747 55.0159ZM274.347 -16.051C282.063 -16.051 289.381 -13.0132 294.991 -7.49192C300.446 -1.94848 303.483 5.4132 303.483 13.1962C303.483 29.2722 290.423 42.3325 274.347 42.3325H223.747C215.964 42.3325 208.646 39.3169 203.147 33.8178C197.648 28.3187 194.61 20.9792 194.61 13.1962C194.61 -2.9463 207.693 -16.051 223.747 -16.051H274.347Z" fill="#FFDE8C" fill-opacity="0.6"/>
</g>
<mask id="mask2_1418_6201" style="mask-type:luminance" maskUnits="userSpaceOnUse" x="-135" y="460" width="137" height="90">
<path d="M1.8418 460.95H-134.394V550H1.8418V460.95Z" fill="white"/>
</mask>
<g mask="url(#mask2_1418_6201)">
<path d="M-91.0499 549.953H-40.4494C-17.3887 549.953 1.34814 531.195 1.34814 508.134C1.34814 497.003 -2.97574 486.492 -10.8474 478.487C-18.8965 470.549 -29.3847 466.225 -40.4494 466.225H-91.0499C-114.088 466.225 -132.847 485.029 -132.847 508.134C-132.847 519.309 -128.501 529.82 -120.607 537.714C-112.714 545.607 -102.225 549.953 -91.0499 549.953ZM-40.4494 478.887C-32.7329 478.887 -25.4156 481.924 -19.8056 487.446C-14.3509 492.989 -11.3131 500.351 -11.3131 508.134C-11.3131 524.21 -24.3734 537.292 -40.4494 537.292H-91.0499C-98.8329 537.292 -106.15 534.254 -111.649 528.755C-117.148 523.256 -120.164 515.939 -120.164 508.134C-120.164 492.013 -107.104 478.887 -91.0499 478.887H-40.4494Z" fill="#FFDE8C" fill-opacity="0.6"/>
</g>
</svg>
