<svg width="38" height="38" viewBox="0 0 38 38" fill="none" xmlns="http://www.w3.org/2000/svg">
<path d="M15.8332 26.1247L20.5832 27.708C20.5832 27.708 32.4582 25.333 34.0415 25.333C35.6248 25.333 35.6248 26.9163 34.0415 28.4997C32.4582 30.083 26.9165 34.833 22.1665 34.833C17.4165 34.833 14.2498 32.458 11.0832 32.458H3.1665" stroke="#0095FF" stroke-width="2.3" stroke-linecap="round" stroke-linejoin="round"/>
<path d="M3.1665 22.958C4.74984 21.3747 7.9165 18.9997 11.0832 18.9997C14.2498 18.9997 21.7707 22.1663 22.9582 23.7497C24.1457 25.333 20.5832 27.708 20.5832 27.708M12.6665 14.2497V7.91634C12.6665 7.49642 12.8333 7.09369 13.1303 6.79676C13.4272 6.49982 13.8299 6.33301 14.2498 6.33301H33.2498C33.6698 6.33301 34.0725 6.49982 34.3694 6.79676C34.6664 7.09369 34.8332 7.49642 34.8332 7.91634V20.583" stroke="#0095FF" stroke-width="2.3" stroke-linecap="round" stroke-linejoin="round"/>
<path d="M19.7915 6.33301H27.7082V13.458H19.7915V6.33301Z" stroke="#0095FF" stroke-width="2.3" stroke-linecap="round" stroke-linejoin="round"/>
</svg>
