<svg width="38" height="38" viewBox="0 0 38 38" fill="none" xmlns="http://www.w3.org/2000/svg">
<path d="M23.7502 6.33301C27.1096 6.33301 30.3314 7.66753 32.7068 10.043C35.0823 12.4184 36.4168 15.6403 36.4168 18.9997C36.4168 22.3591 35.0823 25.5809 32.7068 27.9564C30.3314 30.3318 27.1096 31.6663 23.7502 31.6663C20.3908 31.6663 17.1689 30.3318 14.7935 27.9564C12.418 25.5809 11.0835 22.3591 11.0835 18.9997C11.0835 15.6403 12.418 12.4184 14.7935 10.043C17.1689 7.66753 20.3908 6.33301 23.7502 6.33301ZM23.7502 9.49967C21.2306 9.49967 18.8142 10.5006 17.0326 12.2822C15.2511 14.0638 14.2502 16.4801 14.2502 18.9997C14.2502 21.5192 15.2511 23.9356 17.0326 25.7172C18.8142 27.4988 21.2306 28.4997 23.7502 28.4997C26.2697 28.4997 28.6861 27.4988 30.4677 25.7172C32.2493 23.9356 33.2502 21.5192 33.2502 18.9997C33.2502 16.4801 32.2493 14.0638 30.4677 12.2822C28.6861 10.5006 26.2697 9.49967 23.7502 9.49967ZM22.1668 12.6663H24.5418V18.6513L28.231 22.3405L26.5527 24.0188L22.1668 19.633V12.6663ZM3.16683 28.4997C2.7469 28.4997 2.34418 28.3329 2.04724 28.0359C1.75031 27.739 1.5835 27.3363 1.5835 26.9163C1.5835 26.4964 1.75031 26.0937 2.04724 25.7968C2.34418 25.4998 2.7469 25.333 3.16683 25.333H9.231C9.72183 26.4572 10.3552 27.518 11.0835 28.4997H3.16683ZM4.75016 20.583C4.33024 20.583 3.92751 20.4162 3.63058 20.1193C3.33364 19.8223 3.16683 19.4196 3.16683 18.9997C3.16683 18.5797 3.33364 18.177 3.63058 17.8801C3.92751 17.5832 4.33024 17.4163 4.75016 17.4163H7.996L7.91683 18.9997L7.996 20.583H4.75016ZM6.3335 12.6663C5.91357 12.6663 5.51084 12.4995 5.21391 12.2026C4.91698 11.9057 4.75016 11.5029 4.75016 11.083C4.75016 10.6631 4.91698 10.2604 5.21391 9.96342C5.51084 9.66649 5.91357 9.49967 6.3335 9.49967H11.0835C10.3552 10.4813 9.72183 11.5422 9.231 12.6663H6.3335Z" fill="#0095FF"/>
</svg>
