<svg width="38" height="38" viewBox="0 0 38 38" fill="none" xmlns="http://www.w3.org/2000/svg">
<path d="M27.5 2H12.625V14.75H14.1125L14.5375 16.2375L14.75 16.45V4.125H25.375V12.625H33.875V31.75H21.125L21.7625 32.8125L20.7 33.875H36V10.5L27.5 2ZM27.5 10.5V4.125L33.875 10.5H27.5Z" fill="#0095FF"/>
<path d="M11.5 29.125C12.9497 29.125 14.125 27.9497 14.125 26.5C14.125 25.0503 12.9497 23.875 11.5 23.875C10.0503 23.875 8.875 25.0503 8.875 26.5C8.875 27.9497 10.0503 29.125 11.5 29.125Z" stroke="#0095FF" stroke-width="2"/>
<path d="M13.0445 17.883C12.7234 17.75 12.3156 17.75 11.5001 17.75C10.6846 17.75 10.2769 17.75 9.95577 17.883C9.74331 17.9709 9.55026 18.0999 9.38766 18.2625C9.22506 18.4251 9.0961 18.6182 9.00815 18.8306C8.92765 19.0257 8.89527 19.2541 8.88302 19.5858C8.87733 19.8254 8.81093 20.0598 8.69004 20.2668C8.56915 20.4739 8.39771 20.6469 8.19178 20.7696C7.98248 20.8867 7.74691 20.9487 7.50712 20.9499C7.26732 20.9512 7.03113 20.8915 6.82065 20.7766C6.52665 20.6209 6.31402 20.5351 6.10315 20.5071C5.64318 20.4466 5.17801 20.5713 4.8099 20.8536C4.53515 21.0662 4.3304 21.4189 3.92265 22.125C3.5149 22.8311 3.31015 23.1837 3.26553 23.5294C3.23546 23.7573 3.25058 23.9889 3.31003 24.2109C3.36949 24.433 3.4721 24.6411 3.61203 24.8235C3.74153 24.9915 3.92265 25.1324 4.20353 25.3091C4.6174 25.569 4.8834 26.0117 4.8834 26.5C4.8834 26.9883 4.6174 27.431 4.20353 27.69C3.92265 27.8676 3.74065 28.0085 3.61203 28.1765C3.4721 28.3589 3.36949 28.567 3.31003 28.7891C3.25058 29.0111 3.23546 29.2427 3.26553 29.4706C3.31103 29.8154 3.5149 30.1689 3.92178 30.875C4.3304 31.5811 4.53428 31.9337 4.8099 32.1464C4.99228 32.2863 5.20044 32.3889 5.42249 32.4484C5.64454 32.5078 5.87613 32.5229 6.10403 32.4929C6.31403 32.4649 6.52665 32.3791 6.82065 32.2234C7.03113 32.1085 7.26732 32.0488 7.50712 32.0501C7.74691 32.0513 7.98248 32.1133 8.19178 32.2304C8.6144 32.4754 8.86552 32.926 8.88302 33.4143C8.89527 33.7468 8.92678 33.9742 9.00815 34.1694C9.0961 34.3818 9.22506 34.5749 9.38766 34.7375C9.55026 34.9001 9.74331 35.0291 9.95577 35.117C10.2769 35.25 10.6846 35.25 11.5001 35.25C12.3156 35.25 12.7234 35.25 13.0445 35.117C13.257 35.0291 13.45 34.9001 13.6126 34.7375C13.7752 34.5749 13.9042 34.3818 13.9921 34.1694C14.0726 33.9742 14.105 33.7468 14.1173 33.4143C14.1348 32.926 14.3859 32.4745 14.8085 32.2304C15.0178 32.1133 15.2534 32.0513 15.4932 32.0501C15.733 32.0488 15.9692 32.1085 16.1796 32.2234C16.4736 32.3791 16.6863 32.4649 16.8963 32.4929C17.1242 32.5229 17.3558 32.5078 17.5778 32.4484C17.7999 32.3889 18.008 32.2863 18.1904 32.1464C18.466 31.9346 18.6699 31.5811 19.0776 30.875C19.4854 30.1689 19.6901 29.8163 19.7348 29.4706C19.7648 29.2427 19.7497 29.0111 19.6903 28.7891C19.6308 28.567 19.5282 28.3589 19.3883 28.1765C19.2588 28.0085 19.0777 27.8676 18.7968 27.6909C18.592 27.5661 18.4222 27.3914 18.3033 27.1831C18.1843 26.9748 18.1202 26.7398 18.1169 26.5C18.1169 26.0117 18.3829 25.569 18.7968 25.31C19.0777 25.1324 19.2596 24.9915 19.3883 24.8235C19.5282 24.6411 19.6308 24.433 19.6903 24.2109C19.7497 23.9889 19.7648 23.7573 19.7348 23.5294C19.6893 23.1846 19.4854 22.8311 19.0785 22.125C18.6699 21.4189 18.466 21.0662 18.1904 20.8536C18.008 20.7137 17.7999 20.6111 17.5778 20.5516C17.3558 20.4922 17.1242 20.4771 16.8963 20.5071C16.6863 20.5351 16.4736 20.6209 16.1788 20.7766C15.9684 20.8914 15.7324 20.9509 15.4927 20.9497C15.2531 20.9485 15.0177 20.8865 14.8085 20.7696C14.6026 20.6469 14.4312 20.4739 14.3103 20.2668C14.1894 20.0598 14.123 19.8254 14.1173 19.5858C14.105 19.2533 14.0735 19.0257 13.9921 18.8306C13.9042 18.6182 13.7752 18.4251 13.6126 18.2625C13.45 18.0999 13.257 17.9709 13.0445 17.883Z" stroke="#0095FF" stroke-width="2"/>
</svg>
