<svg width="20" height="20" viewBox="0 0 20 20" fill="none" xmlns="http://www.w3.org/2000/svg">
<g clip-path="url(#clip0_1418_3517)">
<path d="M1.85024 9.15505H6.79547C7.01406 9.15505 7.2237 9.06821 7.37827 8.91364C7.53283 8.75908 7.61967 8.54944 7.61967 8.33084V3.38562C7.61967 3.16703 7.53283 2.95739 7.37827 2.80282C7.2237 2.64825 7.01406 2.56142 6.79547 2.56142H1.85024C1.63165 2.56142 1.42201 2.64825 1.26744 2.80282C1.11287 2.95739 1.02604 3.16703 1.02604 3.38562V8.33084C1.02604 8.54944 1.11287 8.75908 1.26744 8.91364C1.42201 9.06821 1.63165 9.15505 1.85024 9.15505ZM2.67445 4.20982H5.97126V7.50664H2.67445V4.20982ZM18.3343 5.03403H10.0923C9.87369 5.03403 9.66405 5.12086 9.50948 5.27543C9.35491 5.43 9.26808 5.63964 9.26808 5.85823C9.26808 6.07682 9.35491 6.28646 9.50948 6.44103C9.66405 6.5956 9.87369 6.68244 10.0923 6.68244H18.3343C18.5529 6.68244 18.7626 6.5956 18.9171 6.44103C19.0717 6.28646 19.1585 6.07682 19.1585 5.85823C19.1585 5.63964 19.0717 5.43 18.9171 5.27543C18.7626 5.12086 18.5529 5.03403 18.3343 5.03403ZM18.3343 13.2761H10.0923C9.87369 13.2761 9.66405 13.3629 9.50948 13.5175C9.35491 13.672 9.26808 13.8817 9.26808 14.1003C9.26808 14.3189 9.35491 14.5285 9.50948 14.6831C9.66405 14.8376 9.87369 14.9245 10.0923 14.9245H18.3343C18.5529 14.9245 18.7626 14.8376 18.9171 14.6831C19.0717 14.5285 19.1585 14.3189 19.1585 14.1003C19.1585 13.8817 19.0717 13.672 18.9171 13.5175C18.7626 13.3629 18.5529 13.2761 18.3343 13.2761ZM3.45085 16.5729H3.46074C3.67684 16.5722 3.88403 16.4867 4.03768 16.3347L7.37241 13.0379C7.45797 12.9642 7.52749 12.8738 7.57666 12.7722C7.62584 12.6706 7.65362 12.56 7.65827 12.4472C7.66293 12.3344 7.64437 12.2219 7.60375 12.1165C7.56312 12.0112 7.50129 11.9154 7.4221 11.8349C7.3429 11.7545 7.24803 11.6912 7.14336 11.6489C7.03868 11.6066 6.92645 11.5863 6.8136 11.5892C6.70075 11.5921 6.58971 11.6182 6.48734 11.6658C6.38498 11.7134 6.29348 11.7815 6.21852 11.8659L3.47475 14.5767L2.44284 13.5052C2.36757 13.4274 2.2777 13.3651 2.17837 13.3221C2.07904 13.279 1.9722 13.2559 1.86394 13.2541C1.6453 13.2504 1.43418 13.3338 1.27701 13.4858C1.11984 13.6379 1.0295 13.8461 1.02587 14.0647C1.02224 14.2834 1.10561 14.4945 1.25764 14.6517L2.86813 16.3256C2.94417 16.4032 3.0348 16.465 3.13481 16.5074C3.23481 16.5499 3.34221 16.5721 3.45085 16.5729Z" fill="white"/>
</g>
<defs>
<clipPath id="clip0_1418_3517">
<rect width="19.7809" height="19.7809" fill="white" transform="translate(0.201538 0.0877838)"/>
</clipPath>
</defs>
</svg>
