<svg width="27" height="20" viewBox="0 0 27 20" fill="none" xmlns="http://www.w3.org/2000/svg">
<g clip-path="url(#clip0_753_3482)">
<path d="M0 0H27V20H0V0Z" fill="#00008B"/>
<path d="M1.58203 0L6.72891 3.77083L11.8547 0H13.5V1.29167L8.4375 5.02083L13.5 8.72917V10H11.8125L6.75 6.27083L1.70859 10H0V8.75L5.04141 5.04167L0 1.33333V0H1.58203Z" fill="white"/>
<path d="M8.94375 5.85417L13.5 9.16667V10L7.78359 5.85417H8.94375ZM5.0625 6.27083L5.18906 7L1.13906 10H0L5.0625 6.27083ZM13.5 0V0.0625L8.24766 3.97917L8.28984 3.0625L12.4453 0H13.5ZM0 0L5.04141 3.66667H3.77578L0 0.875V0Z" fill="#FF0000"/>
<path d="M5.08359 0V10H8.45859V0H5.08359ZM0 3.33333V6.66667H13.5V3.33333H0Z" fill="white"/>
<path d="M0 4.02083V6.02083H13.5V4.02083H0ZM5.75859 0V10H7.78359V0H5.75859Z" fill="#FF0000"/>
<path d="M22.2313 16.5288L21.3665 16.6371L21.4593 17.4913L20.8349 16.8913L20.2148 17.4954L20.2991 16.6413L19.4343 16.5413L20.1641 16.0746L19.7043 15.3454L20.5312 15.6163L20.8223 14.8038L21.1218 15.6121L21.9445 15.3329L21.493 16.0663L22.2313 16.5288ZM22.0752 11.6454L22.1891 11.1038L21.7757 10.7288L22.3326 10.6663L22.5646 10.1621L22.7966 10.6663L23.3535 10.7288L22.9401 11.1038L23.054 11.6454L22.5646 11.3704L22.0752 11.6454ZM17.6835 9.14544L16.8271 9.23711L16.903 10.0829L16.2955 9.47878L15.6712 10.0663L15.7724 9.22044L14.9202 9.10794L15.6501 8.65794L15.2071 7.92878L16.0213 8.21211L16.3251 7.41628L16.6077 8.22044L17.4262 7.95794L16.9663 8.67878L17.6877 9.14544H17.6835ZM26.2813 7.77878L25.3996 7.89128L25.4966 8.76211L24.8596 8.14961L24.2268 8.76628L24.3154 7.89128L23.4337 7.79128L24.1804 7.31211L23.7121 6.56628L24.5559 6.84544L24.8512 6.02044L25.1549 6.84544L25.9945 6.55794L25.5304 7.30794L26.2813 7.77878ZM22.2271 4.29961L21.3538 4.39544L21.434 5.26211L20.8138 4.64544L20.1768 5.24544L20.278 4.38294L19.4048 4.26628L20.1515 3.80794L19.7001 3.06211L20.5312 3.34961L20.8391 2.53711L21.126 3.35794L21.9613 3.08711L21.493 3.82044L22.2271 4.29961ZM9.87039 16.0704L7.9382 16.2954L8.13227 18.2079L6.74852 16.8579L5.35633 18.1996L5.56305 16.2871L3.63086 16.0454L5.27195 15.0121L4.25945 13.3704L6.09883 13.9954L6.76539 12.1871L7.4193 13.9996L9.26289 13.3871L8.23773 15.0204L9.87461 16.0663L9.87039 16.0704Z" fill="white"/>
</g>
<defs>
<clipPath id="clip0_753_3482">
<rect width="27" height="20" fill="white"/>
</clipPath>
</defs>
</svg>
