<svg width="16" height="14" viewBox="0 0 16 14" fill="none" xmlns="http://www.w3.org/2000/svg">
<path fill-rule="evenodd" clip-rule="evenodd" d="M13.25 1.55575V4C13.5455 4 13.8381 4.0582 14.111 4.17127C14.384 4.28434 14.6321 4.45008 14.841 4.65901C15.0499 4.86794 15.2157 5.11598 15.3287 5.38896C15.4418 5.66194 15.5 5.95453 15.5 6.25C15.5 6.54547 15.4418 6.83806 15.3287 7.11104C15.2157 7.38402 15.0499 7.63206 14.841 7.84099C14.6321 8.04992 14.384 8.21566 14.111 8.32873C13.8381 8.4418 13.5455 8.5 13.25 8.5V10.75C13.25 11.986 11.8393 12.6918 10.85 11.95L9.30501 10.7905C8.47912 10.1713 7.51756 9.7579 6.50001 9.5845V11.7175C6.50009 12.2078 6.32293 12.6816 6.00118 13.0516C5.67944 13.4216 5.2348 13.6628 4.74922 13.7307C4.26365 13.7987 3.76987 13.6888 3.35892 13.4214C2.94797 13.154 2.64754 12.747 2.51301 12.2755L1.33551 8.1535C0.911773 7.65309 0.636012 7.04441 0.539224 6.39588C0.442437 5.74735 0.528459 5.08468 0.787622 4.48235C1.04679 3.88003 1.46882 3.36193 2.00627 2.9863C2.54373 2.61066 3.17531 2.39239 3.83001 2.356L6.09351 2.23C7.20099 2.16849 8.27804 1.84486 9.23601 1.28575L10.994 0.25975C11.9945 -0.323 13.25 0.39775 13.25 1.55575ZM3.22551 9.3085L3.95526 11.8638C3.99038 11.9874 4.06907 12.0942 4.17679 12.1644C4.28451 12.2346 4.414 12.2635 4.54133 12.2457C4.66867 12.2278 4.78525 12.1645 4.86956 12.0675C4.95387 11.9704 5.0002 11.8461 5.00001 11.7175V9.46L3.83001 9.39475C3.6265 9.38248 3.42433 9.35364 3.22551 9.3085ZM11.75 1.55575L9.99126 2.5825C8.92322 3.20629 7.73158 3.58874 6.50001 3.703V8.06725C7.84026 8.25175 9.11601 8.7745 10.205 9.5905L11.75 10.75V1.55575ZM5.00001 3.793L3.91251 3.853C3.40659 3.88093 2.92953 4.09752 2.5755 4.45999C2.22146 4.82247 2.01617 5.3045 2.00016 5.81093C1.98415 6.31736 2.15858 6.8114 2.48901 7.19551C2.81944 7.57963 3.28187 7.82591 3.78501 7.88575L3.91251 7.897L5.00001 7.957V3.793ZM13.25 5.5V7C13.4412 6.99979 13.625 6.92659 13.764 6.79536C13.903 6.66414 13.9867 6.48479 13.9979 6.29395C14.0091 6.10312 13.947 5.91522 13.8243 5.76863C13.7016 5.62204 13.5276 5.52783 13.3378 5.50525L13.25 5.5Z" fill="white"/>
</svg>
