<svg width="18" height="19" viewBox="0 0 18 19" fill="none" xmlns="http://www.w3.org/2000/svg">
<mask id="mask0_753_3308" style="mask-type:luminance" maskUnits="userSpaceOnUse" x="0" y="0" width="18" height="19">
<path d="M18 0.5H0V18.5H18V0.5Z" fill="white"/>
</mask>
<g mask="url(#mask0_753_3308)">
<path d="M9.00005 6.41797L8.19755 7.81298C8.01755 8.12045 8.16755 8.37545 8.52005 8.37545H9.47255C9.83255 8.37545 9.97505 8.63045 9.79505 8.93795L9.00005 10.333" stroke="#2AC300" stroke-width="1.5" stroke-linecap="round" stroke-linejoin="round"/>
<path d="M6.22453 14.0301V13.1601C4.49953 12.1176 3.08203 10.0851 3.08203 7.92513C3.08203 4.21263 6.49453 1.30263 10.3495 2.14263C12.0445 2.51763 13.5295 3.64263 14.302 5.19513C15.8695 8.34515 14.2195 11.6901 11.797 13.1526V14.0226C11.797 14.2401 11.8795 14.7426 11.077 14.7426H6.94453C6.11953 14.7501 6.22453 14.4276 6.22453 14.0301Z" stroke="#2AC300" stroke-width="1.5" stroke-linecap="round" stroke-linejoin="round"/>
<path d="M6 17.5C7.96286 17.5 10.0371 17.5 12 17.5" stroke="#2AC300" stroke-width="1.5" stroke-linecap="round" stroke-linejoin="round"/>
</g>
</svg>
