<svg width="14" height="15" viewBox="0 0 14 15" fill="none" xmlns="http://www.w3.org/2000/svg">
<g clip-path="url(#clip0_801_64)">
<path fill-rule="evenodd" clip-rule="evenodd" d="M0.000244141 7.90723C0.000244141 6.05071 0.737742 4.27023 2.0505 2.95748C3.36325 1.64472 5.14373 0.907227 7.00024 0.907227C8.85676 0.907227 10.6372 1.64472 11.95 2.95748C13.2627 4.27023 14.0002 6.05071 14.0002 7.90723C14.0002 9.76374 13.2627 11.5442 11.95 12.857C10.6372 14.1697 8.85676 14.9072 7.00024 14.9072C5.14373 14.9072 3.36325 14.1697 2.0505 12.857C0.737742 11.5442 0.000244141 9.76374 0.000244141 7.90723ZM6.60078 10.9032L10.6309 5.86509L9.90291 5.28269L6.46638 9.57696L4.03224 7.54883L3.43491 8.26563L6.60078 10.9032Z" fill="black" fill-opacity="0.8"/>
</g>
<defs>
<clipPath id="clip0_801_64">
<rect width="14" height="14" fill="white" transform="translate(0 0.907471)"/>
</clipPath>
</defs>
</svg>
