<svg width="12" height="13" viewBox="0 0 12 13" fill="none" xmlns="http://www.w3.org/2000/svg">
<path d="M5.99935 0.666992C2.79102 0.666992 0.166016 3.29199 0.166016 6.50033C0.166016 9.70866 2.79102 12.3337 5.99935 12.3337C9.20768 12.3337 11.8327 9.70866 11.8327 6.50033C11.8327 3.29199 9.20768 0.666992 5.99935 0.666992ZM5.99935 11.167C3.42685 11.167 1.33268 9.07283 1.33268 6.50033C1.33268 3.92783 3.42685 1.83366 5.99935 1.83366C8.57185 1.83366 10.666 3.92783 10.666 6.50033C10.666 9.07283 8.57185 11.167 5.99935 11.167ZM8.67685 3.92199L4.83268 7.76616L3.32185 6.26116L2.49935 7.08366L4.83268 9.41699L9.49935 4.75033L8.67685 3.92199Z" fill="#0AC200"/>
</svg>
