<svg width="27" height="20" viewBox="0 0 27 20" fill="none" xmlns="http://www.w3.org/2000/svg">
<g clip-path="url(#clip0_753_3355)">
<path d="M0 0H27V20H0V0Z" fill="#EE1C25"/>
<path d="M3.23842 7.4L5.0609 2L6.88338 7.4L2.02344 4.1H8.09836L3.23842 7.4Z" fill="#FFFF00"/>
<path d="M11.1442 2.10279L9.26865 2.5133L10.5197 1.07344L10.397 3.0113L9.3562 1.29571L11.1442 2.10279Z" fill="#FFFF00"/>
<path d="M13.0381 4.47311L11.1482 4.13305L12.8667 3.28511L11.9927 5.02429L11.707 3.0443L13.0381 4.47311Z" fill="#FFFF00"/>
<path d="M12.762 7.79688L11.1768 6.72507L13.0961 6.64314L11.5799 7.879L12.1367 5.95609L12.762 7.79688Z" fill="#FFFF00"/>
<path d="M10.377 9.96894L9.33395 8.3756L11.1363 9.03216L9.25445 9.59373L10.52 8.03243L10.377 9.96894Z" fill="#FFFF00"/>
</g>
<defs>
<clipPath id="clip0_753_3355">
<rect width="27" height="20" fill="white"/>
</clipPath>
</defs>
</svg>
