<svg width="15" height="15" viewBox="0 0 15 15" fill="none" xmlns="http://www.w3.org/2000/svg">
<g clip-path="url(#clip0_1265_6)">
<circle cx="7.99891" cy="7.88923" r="6.6482" fill="white"/>
<path fill-rule="evenodd" clip-rule="evenodd" d="M2.30035 7.88999C2.30035 6.37866 2.90073 4.92924 3.96939 3.86057C5.03806 2.7919 6.48749 2.19153 7.99881 2.19153C9.51014 2.19153 10.9596 2.7919 12.0282 3.86057C13.0969 4.92924 13.6973 6.37866 13.6973 7.88999C13.6973 9.40131 13.0969 10.8507 12.0282 11.9194C10.9596 12.9881 9.51014 13.5884 7.99881 13.5884C6.48749 13.5884 5.03806 12.9881 3.96939 11.9194C2.90073 10.8507 2.30035 9.40131 2.30035 7.88999ZM7.67362 10.3289L10.9544 6.22756L10.3618 5.75344L7.56421 9.24926L5.58267 7.59822L5.0964 8.18175L7.67362 10.3289Z" fill="#FFC200"/>
</g>
<defs>
<clipPath id="clip0_1265_6">
<rect width="14.2461" height="14.2461" fill="white" transform="translate(0.66449 0.291687)"/>
</clipPath>
</defs>
</svg>
