<svg width="18" height="19" viewBox="0 0 18 19" fill="none" xmlns="http://www.w3.org/2000/svg">
<g clip-path="url(#clip0_753_3318)">
<mask id="mask0_753_3318" style="mask-type:luminance" maskUnits="userSpaceOnUse" x="0" y="0" width="18" height="19">
<path d="M18 0.5H0V18.5H18V0.5Z" fill="white"/>
</mask>
<g mask="url(#mask0_753_3318)">
<path d="M2.37891 6.0791L9.00138 9.91164L15.5789 6.1016" stroke="#FFAE00" stroke-width="1.5" stroke-linecap="round" stroke-linejoin="round"/>
<path d="M9 16.7068V9.9043" stroke="#FFAE00" stroke-width="1.5" stroke-linecap="round" stroke-linejoin="round"/>
<path d="M7.44797 2.35899L3.44297 4.57899C2.53547 5.08149 1.79297 6.34149 1.79297 7.37649V11.614C1.79297 12.649 2.53547 13.909 3.44297 14.4115L7.44797 16.639C8.30296 17.1115 9.70546 17.1115 10.5605 16.639L14.5655 14.4115C15.473 13.909 16.2155 12.649 16.2155 11.614V7.37649C16.2155 6.34149 15.473 5.08149 14.5655 4.57899L10.5605 2.35149C9.69796 1.87899 8.30296 1.87899 7.44797 2.35899Z" stroke="#FFAE00" stroke-width="1.5" stroke-linecap="round" stroke-linejoin="round"/>
</g>
</g>
<defs>
<clipPath id="clip0_753_3318">
<rect width="18" height="18" fill="white" transform="translate(0 0.5)"/>
</clipPath>
</defs>
</svg>
