<svg width="139" height="32" viewBox="0 0 139 32" fill="none" xmlns="http://www.w3.org/2000/svg">
<path d="M131.922 15.6542L130.768 15.9657C129.672 12.2272 127.832 10.6257 125.235 10.6257C123.412 10.6257 122.12 11.8257 122.12 13.7411C122.12 15.5642 123.62 16.5449 127.698 18.1915C131.451 19.5715 133.008 21.2607 133.008 24.2145C133.008 28.7088 129.477 31.5276 123.678 31.5276C120.889 31.5276 117.73 30.9045 115.949 30.1926L115.727 23.948L116.823 23.7253C118.469 27.998 120.576 29.6145 123.319 29.6145C125.692 29.6145 126.938 27.968 126.938 26.2765C126.938 24.5849 125.974 23.6065 122.265 22.2726C118.735 21.1153 116.317 19.6026 116.317 15.8492C116.317 12.1569 119.565 9.02532 125.087 9.02532C127.698 9.02532 130.071 9.4707 131.629 10.1826L131.922 15.6542ZM108.037 17.6122C108.171 14.6757 107.576 10.433 105.16 10.433C102.682 10.433 101.317 14.3942 101.274 17.7911L108.037 17.6122ZM105.753 9.00916C111.833 9.00916 114.771 13.4595 114.816 19.3038H101.127C101.081 24.4811 103.827 28.3961 108.959 28.3961C111.198 28.3961 112.49 27.773 113.854 26.7945L114.492 27.5065C112.992 29.5534 109.877 31.5103 105.723 31.5103C99.0477 31.5103 94.4197 26.9272 94.4197 20.4588C94.4047 14.6145 98.202 9.00685 105.753 9.00685M86.0243 19.8357C85.8904 15.2203 84.2012 11.5442 80.9508 11.5442C80.1777 11.5442 79.5858 11.678 78.6662 11.9895L78.9316 29.7749C79.2581 29.9088 80.0277 29.9976 80.5781 29.9976C83.7373 29.9976 86.022 25.5322 86.022 19.8369M92.8008 19.4907C92.8008 26.8038 88.1854 31.5207 80.3554 31.5207C77.5666 31.5207 74.6739 31.0753 72.1677 30.4972C72.3904 27.5607 72.3904 9.37378 72.1677 5.94685C71.945 4.16647 71.4408 3.3207 70.0608 3.14301L69.1412 3.05416V2.23839L78.7989 0.458008C78.7527 1.95801 78.665 5.94685 78.665 10.6188C80.3566 9.77301 81.9131 9.28378 84.0189 9.28378C89.0473 9.28378 92.7881 13.5565 92.7881 19.4895M68.2112 15.518C65.2297 13.5599 62.0266 14.4057 61.3873 15.518C61.1058 18.9449 61.1647 24.2111 61.4335 26.9249C61.5673 28.7053 62.0716 29.4611 63.4504 29.5949L65.2735 29.7726V30.9299H51.6316V29.7726L52.685 29.5949C54.005 29.4611 54.4654 28.7065 54.5543 26.9249C54.8808 24.0322 54.9697 17.9653 54.5543 14.6272C54.4654 12.7142 54.005 12.0011 52.685 11.8234L51.6316 11.6895V10.8888L61.377 9.01955L61.2431 14.0042C63.5277 8.84185 68.067 8.21878 70.5293 9.59878L68.2112 15.518ZM36.23 20.2949C36.23 25.7388 37.6989 30.1892 40.6654 30.1892C43.8697 30.1892 44.7893 25.8276 44.7893 20.2949C44.7893 14.7622 43.3654 10.4457 40.3539 10.4457C37.1231 10.4457 36.23 14.6734 36.23 20.2949ZM51.687 20.2061C51.687 26.4507 47.5631 31.5138 40.2062 31.5138C32.967 31.5138 29.3185 26.693 29.3185 20.3734C29.3185 14.1726 33.4423 9.01031 40.7993 9.01031C48.0385 9.01031 51.687 13.8611 51.687 20.1945M32.7408 9.45455L31.2408 9.89993C29.9647 5.52339 27.71 3.03224 23.8239 3.03224H18.7504C18.4689 5.93993 18.335 10.4342 18.4689 15.2861L21.8497 15.1084C24.1343 15.1084 25.0977 13.4619 25.6573 11.0699H26.9335V21.1869H25.6354C25.0862 18.7407 24.1354 17.0792 21.8277 16.9442L18.447 16.898C18.447 20.5026 18.4931 23.588 18.7285 25.4572C18.9512 28.1272 19.6931 29.3434 21.6512 29.5961L23.4904 29.7738V30.9311H6.93158V29.7738L8.31158 29.5961C10.2247 29.3307 11.0116 28.1272 11.2343 25.4572C11.6035 21.0957 11.6958 11.7807 11.2343 6.60339C11.0116 3.83416 10.2258 2.73224 8.31158 2.50955L6.93158 2.28685V1.08685H32.7085L32.7408 9.45455Z" fill="#0B417D" fill-opacity="0.6"/>
</svg>
