<svg width="27" height="20" viewBox="0 0 27 20" fill="none" xmlns="http://www.w3.org/2000/svg">
<g clip-path="url(#clip0_753_3367)">
<path d="M0 0H27V6.66667H0V0Z" fill="#FF9933"/>
<path d="M0 6.66699H27V13.3337H0V6.66699Z" fill="white"/>
<path d="M0 13.333H27V19.9997H0V13.333Z" fill="#128807"/>
<path d="M13.4969 12.6663C14.988 12.6663 16.1969 11.4724 16.1969 9.99967C16.1969 8.52692 14.988 7.33301 13.4969 7.33301C12.0057 7.33301 10.7969 8.52692 10.7969 9.99967C10.7969 11.4724 12.0057 12.6663 13.4969 12.6663Z" fill="#000088"/>
<path d="M13.4992 12.3327C14.804 12.3327 15.8617 11.288 15.8617 9.99935C15.8617 8.71068 14.804 7.66602 13.4992 7.66602C12.1944 7.66602 11.1367 8.71068 11.1367 9.99935C11.1367 11.288 12.1944 12.3327 13.4992 12.3327Z" fill="white"/>
<path d="M13.4979 10.4665C13.7588 10.4665 13.9704 10.2576 13.9704 9.99987C13.9704 9.74214 13.7588 9.5332 13.4979 9.5332C13.2369 9.5332 13.0254 9.74214 13.0254 9.99987C13.0254 10.2576 13.2369 10.4665 13.4979 10.4665Z" fill="#000088"/>
<path d="M15.827 10.4235C15.8936 10.4322 15.9546 10.3859 15.9633 10.3202C15.9721 10.2545 15.9253 10.1942 15.8587 10.1856C15.7922 10.1769 15.7312 10.2232 15.7224 10.2889C15.7137 10.3546 15.7605 10.4149 15.827 10.4235Z" fill="#000088"/>
<path d="M13.5009 12.3325L13.5819 10.9325L13.5009 10.2659L13.4199 10.9325L13.5009 12.3325Z" fill="#000088"/>
<path d="M15.6533 11.0042C15.7151 11.0295 15.7862 11.0002 15.812 10.9388C15.8378 10.8774 15.8086 10.8072 15.7468 10.782C15.6849 10.7568 15.6138 10.7861 15.588 10.8474C15.5622 10.9088 15.5914 10.979 15.6533 11.0042Z" fill="#000088"/>
<path d="M12.9038 12.2535L13.3492 10.9214L13.4467 10.2568L13.194 10.8804L12.9038 12.2535Z" fill="#000088"/>
<path d="M15.3188 11.5176C15.3718 11.5578 15.4481 11.5477 15.4891 11.495C15.5301 11.4422 15.5203 11.3669 15.4672 11.3267C15.4141 11.2865 15.3379 11.2966 15.2969 11.3494C15.2559 11.4021 15.2657 11.4774 15.3188 11.5176Z" fill="#000088"/>
<path d="M12.339 12.0224L13.1181 10.8494L13.3861 10.2321L12.9786 10.7699L12.339 12.0224Z" fill="#000088"/>
<path d="M14.8395 11.9261C14.8802 11.9786 14.9564 11.9883 15.0098 11.9478C15.0632 11.9073 15.0734 11.832 15.0327 11.7795C14.992 11.7271 14.9157 11.7174 14.8624 11.7578C14.809 11.7983 14.7987 11.8736 14.8395 11.9261Z" fill="#000088"/>
<path d="M11.8287 11.651L12.8884 10.717L13.3089 10.1891L12.7745 10.6044L11.8287 11.651Z" fill="#000088"/>
<path d="M14.2779 12.2014C14.3037 12.2628 14.3748 12.2922 14.4367 12.267C14.4985 12.2418 14.5277 12.1716 14.5018 12.1102C14.476 12.0488 14.4049 12.0195 14.3431 12.0447C14.2812 12.0699 14.2521 12.1401 14.2779 12.2014Z" fill="#000088"/>
<path d="M11.4401 11.1657L12.7081 10.536L13.2517 10.1332L12.6265 10.3965L11.4401 11.1657Z" fill="#000088"/>
<path d="M13.6723 12.3277C13.6812 12.3936 13.7422 12.4401 13.8086 12.4316C13.875 12.4231 13.9215 12.3629 13.9126 12.297C13.9037 12.2311 13.8427 12.1846 13.7763 12.1931C13.7099 12.2016 13.6634 12.2619 13.6723 12.3277Z" fill="#000088"/>
<path d="M11.2016 10.6017L12.5917 10.3182L13.2224 10.0682L12.5493 10.1624L11.2016 10.6017Z" fill="#000088"/>
<path d="M13.071 12.2941C13.0624 12.3597 13.1095 12.4199 13.1762 12.4287C13.2429 12.4375 13.304 12.3915 13.3125 12.326C13.3211 12.2604 13.274 12.2001 13.2073 12.1913C13.1406 12.1825 13.0796 12.2285 13.071 12.2941Z" fill="#000088"/>
<path d="M11.1386 9.99358L12.556 10.0746L13.2306 9.99927L12.5556 9.92028L11.1386 9.99358Z" fill="#000088"/>
<path d="M12.4788 12.1056C12.4532 12.1668 12.4828 12.237 12.5449 12.2624C12.6069 12.2878 12.678 12.2588 12.7036 12.1977C12.7292 12.1365 12.6997 12.0663 12.6376 12.0409C12.5755 12.0155 12.5044 12.0444 12.4788 12.1056Z" fill="#000088"/>
<path d="M11.2116 9.39209L12.5601 9.83182L13.233 9.92757L12.6018 9.67785L11.2116 9.39209Z" fill="#000088"/>
<path d="M11.9679 11.778C11.9269 11.8307 11.9367 11.9061 11.9898 11.9463C12.0429 11.9865 12.1191 11.9763 12.1601 11.9236C12.2011 11.8709 12.1913 11.7955 12.1383 11.7553C12.0852 11.7151 12.0089 11.7253 11.9679 11.778Z" fill="#000088"/>
<path d="M11.4582 8.83316L12.6446 9.60229L13.2698 9.86562L12.7262 9.46285L11.4582 8.83316Z" fill="#000088"/>
<path d="M11.5508 11.3251C11.4975 11.3656 11.4872 11.4409 11.5279 11.4933C11.5686 11.5458 11.6448 11.5555 11.6982 11.515C11.7516 11.4745 11.7619 11.3991 11.7212 11.3467C11.6805 11.2943 11.6042 11.2846 11.5508 11.3251Z" fill="#000088"/>
<path d="M11.8306 8.35033L12.7749 9.39674L13.3095 9.81104L12.8901 9.28295L11.8306 8.35033Z" fill="#000088"/>
<path d="M11.2888 10.7828C11.2267 10.8083 11.197 10.8785 11.2226 10.9396C11.2482 11.0007 11.3192 11.0296 11.3813 11.0041C11.4435 10.9787 11.4731 10.9085 11.4475 10.8473C11.422 10.7862 11.3509 10.7573 11.2888 10.7828Z" fill="#000088"/>
<path d="M12.3387 7.98125L12.9765 9.23362L13.3843 9.77066L13.1175 9.15324L12.3387 7.98125Z" fill="#000088"/>
<path d="M11.1625 10.1858C11.0958 10.1945 11.0488 10.2548 11.0574 10.3204C11.0661 10.386 11.1271 10.4321 11.1937 10.4233C11.2604 10.4146 11.3074 10.3543 11.2988 10.2887C11.2901 10.2231 11.2291 10.177 11.1625 10.1858Z" fill="#000088"/>
<path d="M12.9099 7.74682L13.1974 9.11977L13.4505 9.74277L13.3549 9.07807L12.9099 7.74682Z" fill="#000088"/>
<path d="M11.1756 9.5757C11.1093 9.5672 11.0482 9.61371 11.0393 9.67957C11.0304 9.74543 11.0769 9.80571 11.1433 9.81421C11.2097 9.8227 11.2707 9.7762 11.2796 9.71034C11.2885 9.64448 11.242 9.5842 11.1756 9.5757Z" fill="#000088"/>
<path d="M13.5044 7.66656L13.4223 9.06649L13.4982 9.73285L13.5781 9.06612L13.5044 7.66656Z" fill="#000088"/>
<path d="M11.3585 8.99407C11.2966 8.96884 11.2255 8.99813 11.1997 9.05949C11.1739 9.12086 11.2031 9.19105 11.265 9.21628C11.3268 9.24151 11.3979 9.21222 11.4237 9.15086C11.4495 9.08949 11.4203 9.0193 11.3585 8.99407Z" fill="#000088"/>
<path d="M14.1059 7.7448L13.6606 9.07689L13.563 9.74147L13.8158 9.11787L14.1059 7.7448Z" fill="#000088"/>
<path d="M11.6969 8.48555C11.6438 8.44535 11.5675 8.4555 11.5265 8.50822C11.4855 8.56095 11.4953 8.63628 11.5484 8.67648C11.6015 8.71668 11.6777 8.70653 11.7187 8.6538C11.7597 8.60108 11.7499 8.52575 11.6969 8.48555Z" fill="#000088"/>
<path d="M14.6766 7.98074L13.8976 9.15381L13.6295 9.77106L14.037 9.23327L14.6766 7.98074Z" fill="#000088"/>
<path d="M12.1528 8.07607C12.1121 8.02363 12.0359 8.01394 11.9825 8.05443C11.9291 8.09491 11.9188 8.17024 11.9595 8.22268C12.0002 8.27512 12.0765 8.28481 12.1299 8.24432C12.1833 8.20383 12.1935 8.1285 12.1528 8.07607Z" fill="#000088"/>
<path d="M15.1675 8.35115L14.1078 9.28527L13.6872 9.81313L14.2217 9.39778L15.1675 8.35115Z" fill="#000088"/>
<path d="M12.7259 7.79977C12.7001 7.73839 12.629 7.70905 12.5672 7.73426C12.5054 7.75947 12.4762 7.82966 12.502 7.89105C12.5279 7.95243 12.5989 7.98176 12.6608 7.95656C12.7226 7.93135 12.7518 7.86116 12.7259 7.79977Z" fill="#000088"/>
<path d="M15.5638 8.83557L14.2958 9.46525L13.7522 9.86802L14.3773 9.60469L15.5638 8.83557Z" fill="#000088"/>
<path d="M13.3258 7.67055C13.3168 7.60468 13.2558 7.55817 13.1894 7.56666C13.1231 7.57515 13.0765 7.63543 13.0854 7.70129C13.0943 7.76716 13.1554 7.81367 13.2217 7.80518C13.2881 7.79669 13.3347 7.73641 13.3258 7.67055Z" fill="#000088"/>
<path d="M15.7965 9.39557L14.4064 9.6791L13.7757 9.92915L14.4487 9.83496L15.7965 9.39557Z" fill="#000088"/>
<path d="M13.9309 7.70382C13.9395 7.63828 13.8924 7.578 13.8256 7.56918C13.7589 7.56036 13.6979 7.60633 13.6893 7.67187C13.6807 7.7374 13.7279 7.79768 13.7946 7.8065C13.8613 7.81532 13.9224 7.76935 13.9309 7.70382Z" fill="#000088"/>
<path d="M15.8652 10.0045L14.4478 9.92337L13.7732 9.99798L14.4483 10.0768L15.8652 10.0045Z" fill="#000088"/>
<path d="M14.5153 7.89186C14.5409 7.83072 14.5113 7.76053 14.4492 7.73508C14.3871 7.70962 14.316 7.73856 14.2905 7.7997C14.2649 7.86084 14.2945 7.93103 14.3566 7.95648C14.4187 7.98194 14.4897 7.953 14.5153 7.89186Z" fill="#000088"/>
<path d="M15.7806 10.6056L14.432 10.1658L13.7591 10.0699L14.3904 10.3195L15.7806 10.6056Z" fill="#000088"/>
<path d="M15.0404 8.22243C15.0812 8.16992 15.071 8.09459 15.0177 8.05418C14.9644 8.01376 14.8881 8.02356 14.8473 8.07607C14.8066 8.12858 14.8167 8.20391 14.87 8.24432C14.9233 8.28474 14.9996 8.27494 15.0404 8.22243Z" fill="#000088"/>
<path d="M15.552 11.1671L14.3646 10.3977L13.7396 10.1333L14.2839 10.5359L15.552 11.1671Z" fill="#000088"/>
<path d="M15.4554 8.67756C15.5086 8.63729 15.5185 8.56196 15.4775 8.50931C15.4366 8.45666 15.3603 8.44662 15.3072 8.48689C15.254 8.52717 15.2441 8.6025 15.285 8.65515C15.326 8.7078 15.4022 8.71783 15.4554 8.67756Z" fill="#000088"/>
<path d="M15.1757 11.6526L14.2303 10.606L13.6958 10.1909L14.1161 10.7188L15.1757 11.6526Z" fill="#000088"/>
<path d="M15.7386 9.2194C15.8005 9.19411 15.8298 9.12391 15.8041 9.06261C15.7783 9.00131 15.7072 8.97212 15.6453 8.99742C15.5834 9.02271 15.5541 9.09291 15.5798 9.1542C15.6056 9.2155 15.6767 9.24469 15.7386 9.2194Z" fill="#000088"/>
<path d="M14.6908 12.0219L14.0517 10.7694L13.6442 10.2318L13.9119 10.8492L14.6908 12.0219Z" fill="#000088"/>
<path d="M15.8672 9.81544C15.9336 9.80686 15.9803 9.74658 15.9715 9.6808C15.9627 9.61502 15.9016 9.56866 15.8352 9.57724C15.7687 9.58582 15.722 9.6461 15.7308 9.71187C15.7397 9.77765 15.8007 9.82402 15.8672 9.81544Z" fill="#000088"/>
<path d="M14.1201 12.2541L13.8308 10.8811L13.5779 10.2577L13.6749 10.9223L14.1201 12.2541Z" fill="#000088"/>
</g>
<defs>
<clipPath id="clip0_753_3367">
<rect width="27" height="20" fill="white"/>
</clipPath>
</defs>
</svg>
