<svg width="18" height="19" viewBox="0 0 18 19" fill="none" xmlns="http://www.w3.org/2000/svg">
<g clip-path="url(#clip0_753_3298)">
<path d="M5.25 8.75V5C5.25 2.75 6.75 1.25 9 1.25C11.25 1.25 12.75 2.75 12.75 5V8.75M9 11.75V14.75M9 17.75C10.3924 17.75 11.7277 17.1969 12.7123 16.2123C13.6969 15.2277 14.25 13.8924 14.25 12.5C14.25 11.1076 13.6969 9.77226 12.7123 8.78769C11.7277 7.80312 10.3924 7.25 9 7.25C7.60761 7.25 6.27226 7.80312 5.28769 8.78769C4.30312 9.77226 3.75 11.1076 3.75 12.5C3.75 13.8924 4.30312 15.2277 5.28769 16.2123C6.27226 17.1969 7.60761 17.75 9 17.75ZM9 12.5C9.19891 12.5 9.38968 12.421 9.53033 12.2803C9.67098 12.1397 9.75 11.9489 9.75 11.75C9.75 11.5511 9.67098 11.3603 9.53033 11.2197C9.38968 11.079 9.19891 11 9 11C8.80109 11 8.61032 11.079 8.46967 11.2197C8.32902 11.3603 8.25 11.5511 8.25 11.75C8.25 11.9489 8.32902 12.1397 8.46967 12.2803C8.61032 12.421 8.80109 12.5 9 12.5Z" stroke="#0095FF" stroke-width="1.5"/>
</g>
<defs>
<clipPath id="clip0_753_3298">
<rect width="18" height="18" fill="white" transform="translate(0 0.5)"/>
</clipPath>
</defs>
</svg>
