<svg width="24" height="24" viewBox="0 0 24 24" fill="none" xmlns="http://www.w3.org/2000/svg">
<path d="M9.98047 19.3809C9.98052 18.2658 10.8849 17.3623 12 17.3623C13.115 17.3624 14.0185 18.2658 14.0186 19.3809C14.0186 20.4959 13.115 21.4003 12 21.4004C10.8849 21.4004 9.98047 20.4959 9.98047 19.3809Z" stroke="#0B417D" stroke-opacity="0.8" stroke-width="1.2"/>
<path d="M9.98047 12.1426C9.98052 11.0275 10.8849 10.124 12 10.124C13.115 10.1241 14.0185 11.0276 14.0186 12.1426C14.0186 13.2576 13.115 14.1621 12 14.1621C10.8849 14.1621 9.98047 13.2577 9.98047 12.1426Z" stroke="#0B417D" stroke-opacity="0.8" stroke-width="1.2"/>
<path d="M9.98047 4.9043C9.98052 3.78925 10.8849 2.88574 12 2.88574C13.115 2.88579 14.0185 3.78928 14.0186 4.9043C14.0186 6.01936 13.115 6.92378 12 6.92383C10.8849 6.92383 9.98047 6.01939 9.98047 4.9043Z" stroke="#0B417D" stroke-opacity="0.8" stroke-width="1.2"/>
</svg>
