<svg width="132" height="30" viewBox="0 0 132 30" fill="none" xmlns="http://www.w3.org/2000/svg">
<g clip-path="url(#clip0_753_3062)">
<path d="M26.9325 3.97511C26.1283 2.00241 24.2027 -0.115049 20.579 0.175629C15.9603 0.674261 14.5219 5.0551 15.2204 7.6712C13.3821 6.44645 10.2536 5.90645 7.52263 8.21119C3.99888 11.6993 5.88197 16.434 7.82135 17.5749C5.68435 17.3681 2.31112 18.7997 1.56317 22.5382C0.758923 27.1684 4.34126 29.8684 7.82135 29.8684H46.3941C50.4153 29.8684 52.6477 26.4423 52.3984 23.1816C52.0043 18.9456 48.0842 17.3267 45.9449 17.6783C47.7326 16.6822 50.1189 12.0509 46.4883 8.418C43.6103 5.6985 39.9395 6.69461 38.6481 7.85732C39.3432 5.59395 38.2034 0.922429 33.5319 0.17448L32.6036 0.133118C29.0385 0.133118 27.4357 2.7067 26.9314 3.97396" fill="white" fill-opacity="0.4"/>
<path d="M8.16468 8.95657C6.12764 10.7627 5.38659 14.8965 9.05739 17.3242L23.7016 27.2704L16.6012 11.1579C15.1145 7.35842 11.0427 6.54843 8.16468 8.95657Z" fill="#0B417D" fill-opacity="0.4"/>
<path d="M20.771 1.13048C18.3927 1.17184 14.8161 3.97521 16.4051 8.2538L23.7513 25.4049L26.3306 7.38177C26.928 2.89637 23.5043 0.821422 20.7698 1.13163" fill="#0B417D" fill-opacity="0.4"/>
<path d="M27.4806 6.67385H28.8708C28.8708 6.67385 29.6119 6.67385 29.7141 7.02657C29.1684 7.46316 27.6805 7.52521 27.8758 9.89199L30.2116 25.4024L37.5073 8.22145C39.0009 4.38061 35.8666 1.18315 33.0885 1.0786C32.9598 1.0786 32.8288 1.05792 32.6944 1.05792C30.2013 1.05792 27.3439 2.86403 27.4829 6.68534" fill="#0B417D" fill-opacity="0.4"/>
<path d="M37.2093 11.3039L30.3101 27.2084L44.9508 17.2208C48.3286 14.8541 47.7829 11.0741 45.8929 9.18527C45.0886 8.31209 43.6467 7.62848 42.106 7.62848C40.285 7.62848 38.3376 8.58209 37.2116 11.305" fill="#0B417D" fill-opacity="0.4"/>
<path d="M43.3113 19.4854L29.5621 28.9939H46.4926C49.9647 28.9939 52.1959 25.4323 51.2055 22.1831C50.5415 20.1495 48.5722 18.5491 46.2904 18.5491C45.3311 18.5491 44.312 18.8191 43.3113 19.4831" fill="#0B417D" fill-opacity="0.4"/>
<path d="M7.77082 28.9937H24.4532L10.7006 19.4841C7.52036 17.4701 3.94721 18.6534 2.65812 22.0083C1.56435 25.8491 4.29418 29.0167 7.77082 29.0167" fill="#0B417D" fill-opacity="0.4"/>
<path d="M130.819 22.5391L128.654 20.3515C128.05 20.9087 127.442 21.3465 126.831 21.6728C126.219 21.9991 125.471 22.1599 124.587 22.1599C123.958 22.167 123.335 22.0343 122.763 21.7716C122.212 21.5131 121.739 21.165 121.35 20.7169C120.96 20.2803 120.653 19.7633 120.431 19.175C120.209 18.5868 120.1 17.9618 120.1 17.2954V17.2552C120.1 16.5888 120.211 15.9626 120.431 15.3859C120.642 14.8187 120.957 14.2959 121.359 13.844C121.757 13.4074 122.233 13.0582 122.784 12.81C123.336 12.5618 123.938 12.4308 124.586 12.4308C125.367 12.4308 126.07 12.5894 126.696 12.8985C127.322 13.2075 127.937 13.6338 128.543 14.1818L130.709 11.6772C130.351 11.329 129.974 10.9993 129.56 10.7121C129.147 10.4133 128.699 10.1652 128.212 9.95607C127.688 9.73784 127.144 9.57458 126.587 9.46893C125.935 9.34438 125.272 9.28435 124.609 9.2897C123.414 9.2897 122.325 9.4988 121.338 9.9262C120.35 10.3444 119.503 10.9212 118.796 11.6461C118.09 12.3711 117.536 13.2271 117.138 14.1921C116.741 15.1572 116.541 16.1913 116.541 17.2942V17.3344C116.533 18.4044 116.736 19.4655 117.137 20.4572C117.535 21.4315 118.087 22.2668 118.795 22.9848C119.503 23.7029 120.342 24.2682 121.315 24.6738C122.288 25.092 123.341 25.2999 124.474 25.2999C125.226 25.2999 125.905 25.231 126.508 25.1115C127.085 24.9945 127.645 24.8074 128.176 24.5543C128.684 24.3153 129.153 24.0177 129.578 23.6788C130.019 23.3299 130.432 22.9477 130.815 22.5356L130.819 22.5391ZM116.046 20.7893V20.749C116.046 19.715 115.788 18.9108 115.272 18.3225C114.758 17.7458 114.05 17.277 113.152 16.9404C113.431 16.8025 113.692 16.6221 113.936 16.4119C114.18 16.2021 114.395 15.9615 114.576 15.6961C114.765 15.413 114.914 15.1052 115.019 14.7815C115.129 14.4334 115.185 14.0462 115.185 13.6096V13.5602C115.185 12.3366 114.731 11.3727 113.826 10.6466C112.921 9.92045 111.671 9.56314 110.078 9.56314H102.895V25.0368H110.253C111.123 25.0368 111.914 24.9472 112.631 24.768C113.348 24.5887 113.957 24.3314 114.465 23.9729C114.973 23.6248 115.363 23.1779 115.637 22.6517C115.909 22.1151 116.046 21.497 116.046 20.7893ZM111.803 14.1864C111.803 14.7528 111.582 15.171 111.14 15.4295C110.697 15.688 110.101 15.8179 109.35 15.8179H106.209V12.5457H109.568C110.29 12.5457 110.832 12.6836 111.226 12.9536C111.609 13.2316 111.8 13.62 111.8 14.137L111.803 14.1864ZM112.664 20.3722C112.664 20.949 112.451 21.3672 112.023 21.6452C111.596 21.914 111.007 22.0531 110.254 22.0531H106.21V18.6523H110.144C111.028 18.6523 111.668 18.8016 112.067 19.1118C112.466 19.422 112.664 19.8276 112.664 20.3354V20.3722ZM100.819 25.0368V9.56084H97.4585V19.0877L90.2088 9.56084H87.0699V25.0345H90.4282V15.1997L97.9226 25.0345L100.819 25.0368ZM85.7073 20.4618V20.4124C85.7073 19.7345 85.6004 19.1601 85.3856 18.6718C85.1701 18.1805 84.8451 17.7451 84.4354 17.3988C84.0161 17.0403 83.4991 16.7324 82.8878 16.4739C82.2766 16.2154 81.5804 15.9764 80.7991 15.7777L79.1527 15.31C78.7963 15.2079 78.4519 15.0677 78.1255 14.8918C77.8751 14.7425 77.7004 14.5736 77.6051 14.3944C77.506 14.1901 77.4568 13.9653 77.4615 13.7383V13.6981C77.4615 13.3098 77.6281 12.9915 77.959 12.733C78.2898 12.4745 78.7862 12.3447 79.4502 12.3447C80.1143 12.3447 80.7761 12.4825 81.4379 12.7525C82.1509 13.0563 82.8324 13.4291 83.4726 13.8659L85.2397 11.3095C84.4548 10.6793 83.5697 10.1853 82.6213 9.84807C81.6711 9.51029 80.6279 9.34255 79.4928 9.34255C78.6977 9.34255 77.9681 9.45169 77.3052 9.67114C76.6423 9.89058 76.0713 10.2077 75.5933 10.6247C75.1171 11.027 74.7358 11.5296 74.4766 12.0965C74.2123 12.6629 74.079 13.2994 74.079 14.006V14.0462C74.079 14.8114 74.2008 15.4594 74.4444 15.9764C74.6857 16.4819 75.0189 16.9208 75.4715 17.269C75.9139 17.6067 76.4516 17.9055 77.0858 18.1341C77.7177 18.3731 78.4266 18.5914 79.2067 18.7809L80.7876 19.2486C81.192 19.3864 81.5091 19.5358 81.7378 19.6851C81.9664 19.8345 82.1215 19.9931 82.2019 20.1619C82.2823 20.3308 82.3237 20.5204 82.3237 20.7479V20.7881C82.3237 21.2454 82.1284 21.5924 81.7493 21.8623C81.3701 22.1323 80.8094 22.2507 80.1028 22.2507C79.2182 22.2507 78.4047 22.0818 77.6602 21.7452C76.9157 21.4085 76.1896 20.9501 75.483 20.3722L73.4724 22.7792C74.3691 23.6019 75.421 24.2374 76.5665 24.6485C77.6794 25.0507 78.8539 25.256 80.0373 25.2551C80.8761 25.2551 81.6435 25.146 82.3352 24.9369C83.0268 24.7071 83.6243 24.4084 84.1252 24.0016C84.6261 23.6041 85.0168 23.0963 85.2971 22.5C85.5775 21.9037 85.7165 21.227 85.7165 20.4618H85.7073ZM72.3959 25.0345V9.56084H68.7274L64.6602 16.1051L60.593 9.56084H56.9233V25.0345H60.261V14.9998L64.5694 21.5441H64.6579L69.0238 14.9309V25.0345H72.3959Z" fill="#0B417D" fill-opacity="0.6"/>
<rect x="-24.4263" y="0.527649" width="154.927" height="29.872" fill="url(#paint0_linear_753_3062)"/>
</g>
<defs>
<linearGradient id="paint0_linear_753_3062" x1="-24.4263" y1="15.4636" x2="130.501" y2="15.4636" gradientUnits="userSpaceOnUse">
<stop stop-color="white" stop-opacity="0"/>
<stop offset="1" stop-color="white"/>
</linearGradient>
<clipPath id="clip0_753_3062">
<rect width="130.977" height="29.872" fill="white" transform="translate(0.647949 0.0640259)"/>
</clipPath>
</defs>
</svg>
