<svg width="26" height="26" viewBox="0 0 26 26" fill="none" xmlns="http://www.w3.org/2000/svg">
<rect width="26" height="26" rx="13" fill="#0079FF" fill-opacity="0.1"/>
<path d="M13.25 12.625C12.7527 12.625 12.2758 12.4275 11.9242 12.0758C11.5725 11.7242 11.375 11.2473 11.375 10.75C11.375 10.2527 11.5725 9.77581 11.9242 9.42417C12.2758 9.07254 12.7527 8.875 13.25 8.875C13.7473 8.875 14.2242 9.07254 14.5758 9.42417C14.9275 9.77581 15.125 10.2527 15.125 10.75C15.125 10.9962 15.0765 11.24 14.9823 11.4675C14.888 11.695 14.7499 11.9017 14.5758 12.0758C14.4017 12.2499 14.195 12.388 13.9675 12.4823C13.74 12.5765 13.4962 12.625 13.25 12.625ZM13.25 5.5C11.8576 5.5 10.5223 6.05312 9.53769 7.03769C8.55312 8.02226 8 9.35761 8 10.75C8 14.6875 13.25 20.5 13.25 20.5C13.25 20.5 18.5 14.6875 18.5 10.75C18.5 9.35761 17.9469 8.02226 16.9623 7.03769C15.9777 6.05312 14.6424 5.5 13.25 5.5Z" fill="#0B417D"/>
</svg>
