<svg width="15" height="19" viewBox="0 0 15 19" fill="none" xmlns="http://www.w3.org/2000/svg">
<path d="M14.9836 6.72802C14.9836 5.87852 14.802 5.03734 14.4493 4.2525C14.0965 3.46767 13.5795 2.75455 12.9277 2.15386C12.2759 1.55318 11.5021 1.07669 10.6505 0.751596C9.79895 0.426507 8.88621 0.259186 7.96444 0.259186C7.04268 0.259186 6.12994 0.426507 5.27834 0.751596C4.42674 1.07669 3.65295 1.55318 3.00117 2.15386C2.34938 2.75455 1.83236 3.46767 1.47961 4.2525C1.12687 5.03734 0.945312 5.87852 0.945313 6.72802C0.945313 8.00977 1.35643 9.20188 2.05333 10.2073H2.04531C4.41176 13.6219 7.96444 18.7416 7.96444 18.7416L13.8836 10.2073H13.8766C14.5989 9.16896 14.9831 7.96148 14.9836 6.72802ZM7.96444 9.50037C7.16662 9.50037 6.40147 9.20829 5.83732 8.68837C5.27318 8.16845 4.95624 7.46329 4.95624 6.72802C4.95624 5.99274 5.27318 5.28758 5.83732 4.76767C6.40147 4.24775 7.16662 3.95566 7.96444 3.95566C8.76226 3.95566 9.52741 4.24775 10.0916 4.76767C10.6557 5.28758 10.9726 5.99274 10.9726 6.72802C10.9726 7.46329 10.6557 8.16845 10.0916 8.68837C9.52741 9.20829 8.76226 9.50037 7.96444 9.50037Z" fill="#0B417D"/>
</svg>
