<svg width="225" height="30" viewBox="0 0 225 30" fill="none" xmlns="http://www.w3.org/2000/svg">
<g clip-path="url(#clip0_753_2989)">
<mask id="mask0_753_2989" style="mask-type:luminance" maskUnits="userSpaceOnUse" x="2" y="0" width="221" height="30">
<path d="M222.433 0.031189L222.846 29.9688H2.43877L2.02625 0.031189H222.433Z" fill="white"/>
</mask>
<g mask="url(#mask0_753_2989)">
<path d="M8.92287 16.6501V8.57638L6.27091 9.63717C6.27091 9.63717 5.62266 10.9926 5.74052 12.9963C5.79945 14.5875 6.74237 16.4144 7.44956 17.2394L8.92287 16.6501ZM16.0537 0.031189C16.643 0.0901213 17.6449 0.384783 18.352 0.974107C19.1182 1.6813 19.295 2.80101 19.0592 3.80286C18.8235 4.68685 18.5288 5.1583 17.5859 5.80656C16.643 6.45482 15.9358 6.51375 15.9358 6.51375V10.4033L17.7627 11.8177L15.9358 13.4678V18.7717C15.9358 18.7717 17.4681 17.5341 18.6467 15.1179C18.6467 15.1179 18.7056 15 18.8235 14.7053C18.9414 15.3536 18.8824 16.709 18.1163 18.3592C17.527 19.6557 16.5251 20.8343 15.1697 21.5415C12.8713 22.7791 11.1034 22.8969 9.27646 22.5434C7.09597 22.1308 5.09226 20.9522 3.79575 18.8895C2.85283 17.4162 2.44031 15.7661 2.44031 13.9392C2.49924 10.3444 5.26906 7.27987 8.45141 6.10122C8.86394 5.98336 8.9818 5.86549 9.51219 5.80656C9.27646 5.98336 8.9818 6.16015 8.62821 6.39588C7.62636 7.04414 6.74237 8.34065 6.32984 9.3425L12.4588 6.69055V15L7.56742 17.4162C8.15675 18.1824 9.86579 19.3021 11.3391 19.4789C13.8143 19.7735 15.4644 18.8306 15.4644 18.8306V13.4088L13.6375 11.8177L15.4644 10.4033V6.51375C14.4036 6.39588 12.9303 5.92443 12.2231 5.74763C11.1034 5.5119 7.44956 4.51005 6.86024 4.39218C6.27091 4.33325 5.56372 4.33325 5.1512 4.68685C4.73867 5.04044 4.44401 5.74763 4.62081 6.33695C4.73867 6.69055 4.9744 6.86734 5.1512 7.04414C5.1512 7.04414 4.91547 7.04414 4.56187 6.80841C3.85468 6.39588 3.32429 5.62976 3.26536 4.62791C3.23095 4.0112 3.35345 3.39582 3.62141 2.8393C3.88937 2.28277 4.29404 1.80326 4.7976 1.44557C5.74052 0.856242 6.8013 0.502648 8.03888 0.679445C9.86579 0.915175 12.282 1.91703 14.4625 2.44742C15.2876 2.62421 15.9358 2.68315 16.5251 2.38848C16.8198 2.21169 17.2913 1.6813 16.8787 1.03304C16.4073 0.266918 15.5233 0.266918 14.7572 0.149054C15.4644 0.0311889 15.5822 0.031189 16.0537 0.031189Z" fill="#0B417D" fill-opacity="0.6"/>
</g>
<mask id="mask1_753_2989" style="mask-type:luminance" maskUnits="userSpaceOnUse" x="2" y="0" width="221" height="30">
<path d="M222.433 0.031189L222.846 29.9688H2.43877L2.02625 0.031189H222.433Z" fill="white"/>
</mask>
<g mask="url(#mask1_753_2989)">
<path d="M40.037 14.5285L37.2082 16.5322V9.93173L40.037 14.5285ZM39.9191 8.16376L36.7957 9.99066L33.8491 11.5229V19.1841L32.7294 20.0681L32.9062 20.2449L34.0259 19.3609L37.5029 22.3665L43.514 17.7697L43.3961 17.5929L40.037 20.127L37.2082 17.7108V16.7679L42.6889 12.8783L39.9191 8.16376Z" fill="#0B417D" fill-opacity="0.6"/>
</g>
<mask id="mask2_753_2989" style="mask-type:luminance" maskUnits="userSpaceOnUse" x="2" y="0" width="221" height="30">
<path d="M222.433 0.031189L222.846 29.9688H2.43877L2.02625 0.031189H222.433Z" fill="white"/>
</mask>
<g mask="url(#mask2_753_2989)">
<path d="M24.127 25.372C24.8931 25.5488 26.3075 25.6667 28.0165 24.8416C29.9023 23.9576 30.6095 22.0129 30.6095 20.0681L30.6684 17.2983V11.1693L31.8471 10.2853L31.7292 10.1085L30.5506 10.9925L28.0165 8.04591L24.127 10.9336V1.15082L20.1785 4.3921C20.3553 4.50996 21.2393 4.62783 21.2393 5.45288V19.1841L19.1766 20.4806L19.2945 20.6574L20.1785 20.0092L22.6536 22.2486L26.5432 19.2431L26.4253 19.0663L25.4824 19.7734L24.1859 18.8895V11.2283L25.7181 10.2853L27.8397 12.4658V19.0663C27.8397 20.8342 27.3682 22.8969 26.4253 23.9576C25.4824 25.0184 25.1288 25.0774 24.127 25.372Z" fill="#0B417D" fill-opacity="0.6"/>
</g>
<mask id="mask3_753_2989" style="mask-type:luminance" maskUnits="userSpaceOnUse" x="2" y="0" width="221" height="30">
<path d="M222.433 0.031189L222.846 29.9688H2.43877L2.02625 0.031189H222.433Z" fill="white"/>
</mask>
<g mask="url(#mask3_753_2989)">
<path d="M51.1173 24.6648C49.5851 24.488 48.9368 23.604 48.9368 22.8379C48.9368 22.3665 49.4083 21.4825 50.3512 21.3646C51.2941 21.2467 52.237 21.6593 53.0621 22.6022L56.657 18.7716L56.4802 18.5948L55.5372 19.6556C54.5354 18.5948 53.3567 17.8876 51.9424 17.7108V5.98326L61.0769 22.4254C61.0769 22.4254 61.3126 22.6022 61.7251 22.6022C62.0787 22.6022 61.9609 22.3665 61.9609 22.3665V5.80646C62.727 5.80646 63.7288 5.39393 64.3182 4.80461C66.0861 3.03664 65.3789 1.09187 65.2022 0.85614C65.0843 1.68119 64.436 2.56518 63.3163 2.56518C61.843 2.56518 60.959 1.5044 60.959 1.5044L57.2463 5.5118L57.4231 5.6886L58.4249 4.56888C59.6625 5.6886 60.3697 5.80646 61.3126 5.86539V15.4714L54.6533 3.27237C54.005 2.27052 53.0621 1.38653 51.5888 1.38653C49.8797 1.38653 48.6422 2.85984 48.4654 4.09742C48.2886 5.5118 48.4654 5.86539 48.4654 5.86539C48.4654 5.86539 48.7011 4.27422 49.7029 4.27422C50.5869 4.27422 50.8816 4.74568 51.2941 5.335V9.22454C50.3512 9.28347 48.1118 9.40133 47.935 11.8765C47.935 12.8194 48.5243 13.7623 49.0547 14.057C49.7029 14.4695 50.2333 14.4695 50.2333 14.4695C50.2333 14.4695 49.4672 14.057 49.7029 13.2319C49.9387 12.5248 51.2941 12.4069 51.353 12.7015V17.6519C50.5869 17.6519 48.4064 17.7108 47.2867 19.7145C46.6385 20.8931 46.6974 22.2486 47.3456 23.1915C47.935 24.0166 49.1136 25.0184 51.1173 24.6648Z" fill="#0B417D" fill-opacity="0.6"/>
</g>
<mask id="mask4_753_2989" style="mask-type:luminance" maskUnits="userSpaceOnUse" x="2" y="0" width="221" height="30">
<path d="M222.433 0.031189L222.846 29.9688H2.43877L2.02625 0.031189H222.433Z" fill="white"/>
</mask>
<g mask="url(#mask4_753_2989)">
<path d="M70.9191 14.5285L67.8546 16.5322V9.93173L70.9191 14.5285ZM70.8013 8.16376L67.6189 9.99066L64.8491 11.5229V19.1841L63.7294 20.0681L63.9062 20.2449L65.0259 19.3609L68.2672 22.3665L74.2783 17.7697L74.1604 17.5929L70.8013 20.127L68.0904 17.6519V16.709L73.5711 12.8194L70.8013 8.16376Z" fill="#0B417D" fill-opacity="0.6"/>
</g>
<mask id="mask5_753_2989" style="mask-type:luminance" maskUnits="userSpaceOnUse" x="2" y="0" width="221" height="30">
<path d="M222.433 0.031189L222.846 29.9688H2.43877L2.02625 0.031189H222.433Z" fill="white"/>
</mask>
<g mask="url(#mask5_753_2989)">
<path d="M79.2869 22.5435L76.3403 20.1862L75.0438 21.0701L74.9259 20.8933L76.2224 19.9504V13.2911C76.2814 10.5802 73.6294 11.2284 73.8062 8.34075C73.8651 7.04424 75.1616 6.10132 75.8099 5.80666C76.5171 5.45306 77.2243 5.45306 77.2243 5.45306C77.2243 5.45306 75.9867 6.16025 76.2814 7.22104C76.7528 8.87114 79.5816 8.98901 79.6405 11.1695V18.7128L81.4674 20.363L81.9978 19.9504V11.7588L81.1727 10.6391L84.1194 8.10502L86.8302 10.4034L85.5927 11.4642V18.7128L88.3036 20.7165L88.775 20.4219V11.7588L87.6553 10.698L90.6019 8.10502L93.3717 10.2855L94.4915 9.3426L94.6093 9.5194L92.1342 11.641V18.7128L85.8284 22.4845L82.5871 20.0683L79.2869 22.5435Z" fill="#0B417D" fill-opacity="0.6"/>
</g>
<mask id="mask6_753_2989" style="mask-type:luminance" maskUnits="userSpaceOnUse" x="2" y="0" width="221" height="30">
<path d="M222.433 0.031189L222.846 29.9688H2.43877L2.02625 0.031189H222.433Z" fill="white"/>
</mask>
<g mask="url(#mask6_753_2989)">
<path d="M208.879 14.5285L205.756 16.5322V9.93173L208.879 14.5285ZM208.82 8.16376L205.638 9.99066L202.75 11.5229V19.1841L201.513 20.0681L201.689 20.2449L202.809 19.3609L206.286 22.3665L212.297 17.7697L212.179 17.5929L208.82 20.127L206.05 17.6519V16.709L211.531 12.8194L208.82 8.16376Z" fill="#0B417D" fill-opacity="0.6"/>
</g>
<path d="M188.076 11.0515L188.725 10.5211L190.434 12.6427V18.9485L189.903 19.6556L192.379 22.3076L195.03 19.7735L193.97 18.7717V11.1105L194.736 10.5211L196.916 12.5838V18.8895L196.032 19.4789L198.802 22.3665L202.456 19.1253L202.279 18.9485L201.395 19.7146L199.863 18.3002V11.1105L201.336 10.1086L201.218 9.93181L199.863 10.9337L197.388 8.22277L193.852 10.9337L191.318 8.34063L187.9 10.9337L185.366 8.34063L181.712 11.4051L181.83 11.5819L183.008 10.639L184.658 12.4659V18.8306L183.833 19.5378L186.485 22.4255L189.196 19.8324L188.076 18.7127V11.0515ZM182.949 19.361L182.831 19.1842L181.771 20.0682L180.356 18.477V11.3462L181.594 10.3443L181.417 10.1675L180.238 11.1694L177.704 8.2817L173.933 11.2283L174.404 11.3462L175.347 10.5801L176.879 12.2891V19.5378L175.819 20.4218L175.936 20.5986L177.056 19.6556L179.472 22.3665L182.949 19.361ZM177.881 2.85992L180.003 5.15829L177.351 7.45665L175.229 5.21722L177.881 2.85992Z" fill="#0B417D" fill-opacity="0.6"/>
<mask id="mask7_753_2989" style="mask-type:luminance" maskUnits="userSpaceOnUse" x="2" y="0" width="221" height="30">
<path d="M222.433 0.031189L222.846 29.9688H2.43877L2.02625 0.031189H222.433Z" fill="white"/>
</mask>
<g mask="url(#mask7_753_2989)">
<path d="M163.443 16.6501V8.57638L160.968 9.63717C160.968 9.63717 160.319 10.9926 160.437 12.9963C160.496 14.5875 161.439 16.4144 162.146 17.2394L163.443 16.6501ZM170.515 0.031189C171.163 0.0901213 172.106 0.384783 172.813 0.974107C173.579 1.6813 173.756 2.80101 173.52 3.80286C173.284 4.68685 172.99 5.1583 172.047 5.80656C171.104 6.45482 170.397 6.39588 170.397 6.39588V10.2854L172.165 11.8177L170.397 13.3499V18.5949C170.397 18.5949 171.87 17.5341 173.108 15.1179C173.108 15.1179 173.167 15 173.284 14.7053C173.402 15.3536 173.343 16.709 172.577 18.3592C171.988 19.6557 170.986 20.8343 169.631 21.5415C167.332 22.7791 165.564 22.8969 163.737 22.5434C161.557 22.1308 159.553 20.9522 158.257 18.8895C157.314 17.4162 156.901 15.7661 156.901 13.9392C156.96 10.3444 159.73 7.27987 162.912 6.10122C163.266 5.98336 163.443 5.86549 163.973 5.80656C163.737 5.98336 163.443 6.16015 163.089 6.39588C162.087 7.04414 161.203 8.34065 160.791 9.3425L166.861 6.80841V15.1179L162.028 17.4162C162.618 18.1824 164.327 19.3021 165.8 19.4789C168.275 19.7735 169.866 18.7128 169.866 18.7128V13.291L168.098 11.7587L169.866 10.2265V6.33695C168.806 6.21909 167.45 5.86549 166.684 5.6887C165.564 5.45297 161.91 4.45112 161.321 4.33325C160.732 4.27432 160.025 4.27432 159.612 4.62791C159.2 4.98151 158.905 5.6887 159.082 6.27802C159.2 6.63161 159.435 6.80841 159.612 6.98521C159.612 6.98521 159.376 6.98521 159.023 6.74948C158.316 6.33695 157.785 5.57083 157.726 4.56898C157.692 3.95227 157.814 3.33689 158.082 2.78036C158.35 2.22384 158.755 1.74432 159.259 1.38663C160.201 0.79731 161.262 0.443716 162.5 0.620513C164.327 0.856242 166.743 1.85809 168.923 2.38848C169.748 2.56528 170.397 2.62421 170.986 2.32955C171.281 2.15275 171.752 1.62236 171.34 0.974107C170.868 0.207986 169.984 0.207986 169.218 0.0901216C169.866 0.0311892 170.043 0.031189 170.515 0.031189Z" fill="#0B417D" fill-opacity="0.6"/>
</g>
<mask id="mask8_753_2989" style="mask-type:luminance" maskUnits="userSpaceOnUse" x="2" y="0" width="221" height="30">
<path d="M222.433 0.031189L222.846 29.9688H2.43877L2.02625 0.031189H222.433Z" fill="white"/>
</mask>
<g mask="url(#mask8_753_2989)">
<path d="M216.363 9.69586V13.5265L218.013 14.6462C218.013 14.6462 220.842 12.4067 221.903 10.403C221.903 10.403 220.607 12.1121 218.897 11.5817C217.424 11.1692 216.717 9.75479 216.717 9.75479M213.476 19.7733C213.476 19.7733 214.713 17.7696 216.894 18.1821C218.956 18.5946 219.899 20.7162 219.899 20.7162V15.8838L218.19 14.7051C216.658 16.2374 213.829 18.4178 213.476 19.7733ZM215.538 23.4271C215.126 23.545 213.417 23.1324 213.004 21.3645C212.592 19.6554 213.829 18.5357 215.656 16.7088L213.476 14.764V11.1102C213.476 11.1102 215.067 10.3441 216.304 9.57799L218.839 7.98682C218.839 7.98682 219.781 9.10653 220.842 9.0476C222.492 8.92974 222.433 7.63322 222.375 7.33856C222.669 7.81002 223.435 9.28333 220.489 12.5246L222.846 14.3515V19.125C222.846 19.125 220.135 20.4805 217.483 22.3663C217.483 22.3663 216.01 20.5983 214.772 21.4234C213.947 22.0717 214.36 23.0146 215.538 23.4271Z" fill="#0B417D" fill-opacity="0.6"/>
</g>
<mask id="mask9_753_2989" style="mask-type:luminance" maskUnits="userSpaceOnUse" x="2" y="0" width="221" height="30">
<path d="M222.433 0.031189L222.846 29.9688H2.43877L2.02625 0.031189H222.433Z" fill="white"/>
</mask>
<g mask="url(#mask9_753_2989)">
<path d="M120.304 18.0056L123.368 20.6575V12.5248L120.304 9.81396V18.0056ZM126.845 11.3462L127.906 10.4033L128.083 10.5801L126.786 11.523V19.1253L123.722 20.8932L120.893 22.5434L117.298 19.5967L116.355 20.4218L116.179 20.245L117.416 19.4199V11.1694H117.239L120.363 9.63716L123.074 8.10492L126.845 11.3462Z" fill="#0B417D" fill-opacity="0.6"/>
</g>
<mask id="mask10_753_2989" style="mask-type:luminance" maskUnits="userSpaceOnUse" x="2" y="0" width="221" height="30">
<path d="M222.433 0.031189L222.846 29.9688H2.43877L2.02625 0.031189H222.433Z" fill="white"/>
</mask>
<g mask="url(#mask10_753_2989)">
<path d="M133.978 10.58L136.276 8.28162C136.276 8.28162 136.571 8.57628 136.866 8.69415C137.043 8.75308 137.75 9.10668 138.339 8.75308C138.693 8.57628 138.752 8.51735 139.105 8.16376C139.164 9.93173 138.28 11.1693 137.219 11.6997C136.748 11.9354 135.216 12.289 133.801 10.6978V18.8894L135.51 20.127L136.748 19.1841L136.866 19.3609L133.094 22.4254L130.206 19.8913L129.146 20.8342L128.969 20.6574L130.265 19.302V12.289L129.322 10.7568L128.262 11.6408L128.085 11.464L131.739 8.28162L133.978 10.58Z" fill="#0B417D" fill-opacity="0.6"/>
</g>
<mask id="mask11_753_2989" style="mask-type:luminance" maskUnits="userSpaceOnUse" x="2" y="0" width="221" height="30">
<path d="M222.433 0.031189L222.846 29.9688H2.43877L2.02625 0.031189H222.433Z" fill="white"/>
</mask>
<g mask="url(#mask11_753_2989)">
<path d="M143.641 13.998L147.885 8.04584C147.885 8.04584 148.474 8.69409 149.417 8.92982C150.713 9.28342 151.892 8.04584 151.892 8.04584C151.656 9.63701 150.831 11.4639 149.122 11.7586C147.59 11.9943 146.176 10.8746 146.176 10.8746L145.881 11.2871L151.774 19.8912L152.953 18.8894L153.13 19.0662L149.063 22.4843L143.641 13.998Z" fill="#0B417D" fill-opacity="0.6"/>
</g>
<mask id="mask12_753_2989" style="mask-type:luminance" maskUnits="userSpaceOnUse" x="2" y="0" width="221" height="30">
<path d="M222.433 0.031189L222.846 29.9688H2.43877L2.02625 0.031189H222.433Z" fill="white"/>
</mask>
<g mask="url(#mask12_753_2989)">
<path d="M140.342 5.98326C140.342 4.68674 139.576 3.92062 138.869 3.97956L143.289 0.85614V18.6537L144.703 19.8913L145.646 19.1252L145.823 19.302L142.11 22.4254L139.576 20.127L138.574 21.011L138.397 20.8342L140.401 19.3609V5.98326H140.342Z" fill="#0B417D" fill-opacity="0.6"/>
</g>
<mask id="mask13_753_2989" style="mask-type:luminance" maskUnits="userSpaceOnUse" x="2" y="0" width="221" height="30">
<path d="M222.433 0.031189L222.846 29.9688H2.43877L2.02625 0.031189H222.433Z" fill="white"/>
</mask>
<g mask="url(#mask13_753_2989)">
<path d="M110.402 10.9925C110.402 10.9925 109.872 11.5818 109.105 11.5818C108.28 11.5818 107.927 10.9925 107.927 10.9925V13.4087C107.927 13.4087 108.28 12.8194 109.105 12.8194C109.931 12.8194 110.402 13.3498 110.402 13.3498V10.9925ZM110.284 5.80641L108.811 4.27417L107.927 4.92243V10.6389C107.927 10.6389 108.457 11.2871 109.282 11.2871C110.107 11.2871 110.284 10.6389 110.284 10.6389V5.80641ZM107.927 21.9539C107.927 21.9539 108.988 22.2485 109.813 21.6003C110.697 20.8931 110.284 19.9502 110.284 19.9502V13.8212C110.284 13.8212 110.048 13.173 109.282 13.173C108.457 13.173 107.927 13.8212 107.927 13.8212V21.9539ZM101.444 5.68855C101.444 4.5099 100.914 3.80271 100.148 3.80271C98.9691 3.80271 98.6744 5.39389 98.6744 5.39389C98.6744 5.39389 98.4387 4.15631 99.5584 3.03659C100.148 2.38834 101.267 1.50435 103.035 1.91688C104.862 2.3294 105.57 3.68485 105.57 4.92243V21.4824C105.88 21.5579 106.195 21.617 106.512 21.6592C107.043 21.7771 107.337 21.8949 107.337 21.8949V1.97581H107.927V4.6867L111.522 1.79901L114.233 4.15631L115.529 3.09552L115.647 3.27232L114.35 4.39204V19.7734C114.292 20.7752 114.115 21.7771 113.113 22.3664C110.932 23.604 108.28 22.1896 105.923 21.836C104.155 21.6003 101.444 21.2467 100.737 22.8379C100.501 23.3683 100.501 24.1344 101.326 24.6648C102.918 25.6666 109.989 22.9557 112.406 24.0165C114.586 25.0184 114.586 26.6095 114.292 27.6703C113.702 29.674 111.05 30.0865 111.05 30.0865C111.05 30.0865 112.347 29.3794 111.993 28.1418C111.816 27.5525 111.404 27.3757 109.989 27.4935C106.984 27.8471 103.33 29.2615 100.914 28.2596C99.6763 27.7293 98.7923 26.2559 98.8512 24.7237C98.9102 22.6021 101.503 21.7182 101.503 21.7182V13.7623C101.444 13.4676 100.089 13.5266 99.7352 14.1159C99.2638 14.9999 100.325 15.4124 100.325 15.4124C100.325 15.4124 99.4995 15.5303 98.7923 14.7641C98.4387 14.4105 97.7315 13.0551 98.6744 11.7586C99.4405 10.6978 100.383 10.521 101.562 10.4031L101.444 5.68855Z" fill="#0B417D" fill-opacity="0.6"/>
</g>
<rect width="154.927" height="29.872" transform="matrix(-1 0 0 1 154.929 0.527527)" fill="url(#paint0_linear_753_2989)"/>
</g>
<defs>
<linearGradient id="paint0_linear_753_2989" x1="0" y1="14.936" x2="154.927" y2="14.936" gradientUnits="userSpaceOnUse">
<stop stop-color="white" stop-opacity="0"/>
<stop offset="1" stop-color="white"/>
</linearGradient>
<clipPath id="clip0_753_2989">
<rect width="224.532" height="29.9376" fill="white" transform="translate(0.375854 0.031189)"/>
</clipPath>
</defs>
</svg>
