<svg width="138" height="314" viewBox="0 0 138 314" fill="none" xmlns="http://www.w3.org/2000/svg">
<mask id="mask0_753_3073" style="mask-type:luminance" maskUnits="userSpaceOnUse" x="86" y="79" width="43" height="44">
<path d="M128.023 120.178L125.875 79.8123L86.2769 81.8966L88.4256 122.262L128.023 120.178Z" fill="white"/>
</mask>
<g mask="url(#mask0_753_3073)">
<path d="M93.5562 82.0384L113.195 89.1588L119.591 84.4434C120.867 83.5005 124.962 82.059 125.907 83.3325C126.852 84.6061 124.269 88.0893 122.994 89.0322L116.618 93.766L117.688 114.611C117.806 116.823 116.808 118.938 115.007 120.259L114.332 120.762L113.269 115.446L112.312 116.139C112.18 116.224 112.004 116.214 111.919 116.082L110.932 114.752C110.848 114.64 110.876 114.444 110.989 114.36L112.77 113.04L111.522 106.8L110.509 107.554C110.378 107.639 110.201 107.61 110.117 107.497L109.13 106.167C109.045 106.036 109.055 105.86 109.187 105.775L111.025 104.414L109.884 98.7326L102.738 104.013C101.219 105.144 99.5529 106.068 97.7975 106.783L98.8372 109.103C99.3872 110.281 99.1628 111.557 98.3006 112.206L94.9823 107.729C94.9055 107.753 94.8483 107.775 94.7705 107.78L93.2513 108.171C92.7132 108.316 92.272 107.716 92.5776 107.233L93.3842 105.906C93.42 105.846 93.4558 105.786 93.4916 105.726L90.1743 101.269C91.0559 100.619 92.3308 100.766 93.3125 101.629L95.2154 103.319C96.424 101.854 97.7964 100.537 99.3346 99.4047L106.461 94.1254L101.364 91.3773L99.5256 92.739C99.3937 92.8238 99.2166 92.7942 99.1327 92.6819L98.1457 91.3521C98.0607 91.2203 98.0903 91.0436 98.2028 90.9599L99.2153 90.206L93.6151 87.173L91.8335 88.4928C91.7026 88.597 91.5255 88.5674 91.4211 88.4366L90.4546 87.1252C90.3502 86.9945 90.3797 86.8178 90.5106 86.7136L91.4485 86.022L86.6711 83.4322L87.3462 82.9296C89.1278 81.6098 91.4686 81.2725 93.5562 82.0384Z" fill="#0B417D" fill-opacity="0.5"/>
</g>
<path d="M91.6465 108.047C57.5127 142.602 35.9647 110.095 22.9674 112.675C9.97009 115.255 0.605013 133.155 -3.33495 136.188C-13.1636 143.755 -19.2429 144.049 -23.2154 143.834C-27.2941 143.613 -32.1074 138.122 -37.4853 132.84C-43.7253 126.712 -42.92 115.519 -45.1567 106.902C-46.2976 102.506 -50.5003 99.4061 -54.1821 96.5744C-57.9626 93.6667 -63.3924 92.8889 -68.9471 92.4001C-74.5862 91.9038 -79.6648 93.5175 -84.3496 95.5118C-90.2394 98.0191 -93.7769 102.4 -95.4448 106.228C-99.6276 115.83 -97.9409 121.621 -102.833 128.156C-110.063 134.677 -117.663 138.737 -127.351 142.946C-133.443 145.763 -141.924 149.964 -150.661 154.293" stroke="#0B417D" stroke-opacity="0.5" stroke-width="2" stroke-linecap="round" stroke-linejoin="round" stroke-dasharray="6 6"/>
</svg>
