<svg width="208" height="518" viewBox="0 0 208 518" fill="none" xmlns="http://www.w3.org/2000/svg">
<mask id="mask0_971_42878" style="mask-type:luminance" maskUnits="userSpaceOnUse" x="58" y="443" width="50" height="44">
<path d="M77.3478 486.47L107.783 471.446L89.2009 443.928L58.7655 458.952L77.3478 486.47Z" fill="white"/>
</mask>
<g mask="url(#mask0_971_42878)">
<path d="M92.2088 449.158L95.091 465.533L101.494 468.514C102.773 469.108 105.648 471.544 105.063 472.643C104.479 473.742 100.666 473.066 99.3872 472.473L92.9782 469.512L77.2435 477.243C75.5753 478.066 73.5041 478.062 71.7064 477.22L71.0268 476.907L74.7007 474.373L73.7525 473.922C73.6301 473.857 73.5626 473.728 73.6286 473.623L74.2388 472.475C74.2901 472.378 74.4547 472.333 74.5679 472.385L76.3565 473.213L80.669 470.238L79.6496 469.768C79.5272 469.703 79.4743 469.567 79.5256 469.469L80.1358 468.321C80.2018 468.217 80.3426 468.165 80.465 468.231L82.3102 469.085L86.2348 466.374L79.0713 463.047C77.5421 462.342 76.11 461.464 74.8024 460.452L73.4459 461.968C72.7667 462.754 71.6787 463.021 70.8054 462.623L72.8613 458.762C72.8102 458.716 72.7682 458.682 72.7317 458.628L71.7769 457.676C71.4336 457.342 71.7103 456.827 72.2166 456.883L73.593 457.014C73.6551 457.02 73.7173 457.025 73.7794 457.03L75.8207 453.176C76.7032 453.588 77.1352 454.545 76.8853 455.533L76.3875 457.454C78.0432 457.826 79.6549 458.363 81.1932 459.081L88.3476 462.394L88.2985 457.843L86.4533 456.989C86.3309 456.923 86.2781 456.787 86.3294 456.69L86.9396 455.542C87.0055 455.437 87.1555 455.399 87.2687 455.451L88.2882 455.921L88.2452 450.916L86.4566 450.088C86.3195 450.03 86.2667 449.894 86.3235 449.775L86.9282 448.648C86.985 448.53 87.135 448.492 87.272 448.551L88.2111 448.988L88.1762 444.718L88.8559 445.031C90.6445 445.859 91.9094 447.414 92.2088 449.158Z" fill="#0B417D" fill-opacity="0.5"/>
</g>
<path d="M69.091 456.198C27.6882 443.002 44.8654 412.63 37.5346 403.313C30.2038 393.996 12.1308 393.792 8.11364 391.881C-1.90753 387.114 -4.60878 382.386 -6.04909 379.132C-7.52792 375.79 -5.10273 369.724 -3.07344 363.293" stroke="#0B417D" stroke-opacity="0.5" stroke-width="1.46617" stroke-linecap="round" stroke-linejoin="round" stroke-dasharray="4.4 4.4"/>
</svg>
