<svg width="18" height="18" viewBox="0 0 18 18" fill="none" xmlns="http://www.w3.org/2000/svg">
<g clip-path="url(#clip0_971_4537)">
<path d="M9.0013 0.810547L16.0846 3.28971V8.99888C16.0846 11.9222 14.2904 13.9657 12.6166 15.2343C11.607 15.9933 10.4989 16.6117 9.32289 17.0725L9.26126 17.0958L9.24355 17.1022L9.23859 17.1036L9.23647 17.1043C9.23576 17.1043 9.23505 17.1043 9.0013 16.4364L8.76684 17.105L8.76401 17.1036L8.75905 17.1022L8.74134 17.0951L8.67972 17.0725C8.34564 16.9433 8.01715 16.8001 7.69514 16.6432C6.88224 16.2483 6.10899 15.7765 5.38597 15.2343C3.71289 13.9657 1.91797 11.9222 1.91797 8.99888V3.28971L9.0013 0.810547ZM9.0013 16.4364L8.76684 17.105L9.0013 17.1872L9.23576 17.105L9.0013 16.4364ZM9.0013 15.677L9.00768 15.6742C9.98777 15.2691 10.9128 14.742 11.761 14.1053C13.2754 12.9585 14.668 11.2818 14.668 8.99888V4.29555L9.0013 2.31221L3.33464 4.29555V8.99888C3.33464 11.2818 4.72722 12.957 6.24164 14.106C7.09164 14.7439 8.01888 15.2718 9.0013 15.677ZM13.3023 6.40851L8.29368 11.4171L5.28822 8.41238L6.29051 7.41009L8.29297 9.41396L12.3 5.40692L13.3023 6.40851Z" fill="white"/>
</g>
<defs>
<clipPath id="clip0_971_4537">
<rect width="17" height="17" fill="white" transform="translate(0.5 0.5)"/>
</clipPath>
</defs>
</svg>
