<svg width="18" height="18" viewBox="0 0 18 18" fill="none" xmlns="http://www.w3.org/2000/svg">
<g clip-path="url(#clip0_971_4542)">
<path d="M0.5 3.6875V4.75H10.5938V12.7188H7.32337C7.08644 11.8055 6.26512 11.125 5.28125 11.125C4.29737 11.125 3.47606 11.8055 3.23913 12.7188H2.625V10.0625H1.5625V13.7812H3.23913C3.47606 14.6945 4.29737 15.375 5.28125 15.375C6.26512 15.375 7.08644 14.6945 7.32337 13.7812H11.7391C11.9761 14.6945 12.7974 15.375 13.7812 15.375C14.7651 15.375 15.5864 14.6945 15.8234 13.7812H17.5V9.44837L17.4665 9.36497L16.404 6.17747L16.2887 5.8125H11.6562V3.6875H0.5ZM1.03125 5.8125V6.875H5.8125V5.8125H1.03125ZM11.6562 6.875H15.5243L16.4375 9.59766V12.7188H15.8234C15.5864 11.8055 14.7651 11.125 13.7812 11.125C12.7974 11.125 11.9761 11.8055 11.7391 12.7188H11.6562V6.875ZM1.5625 7.9375V9H4.75V7.9375H1.5625ZM5.28125 12.1875C5.87466 12.1875 6.34375 12.6566 6.34375 13.25C6.34375 13.8434 5.87466 14.3125 5.28125 14.3125C4.68784 14.3125 4.21875 13.8434 4.21875 13.25C4.21875 12.6566 4.68784 12.1875 5.28125 12.1875ZM13.7812 12.1875C14.3747 12.1875 14.8438 12.6566 14.8438 13.25C14.8438 13.8434 14.3747 14.3125 13.7812 14.3125C13.1878 14.3125 12.7188 13.8434 12.7188 13.25C12.7188 12.6566 13.1878 12.1875 13.7812 12.1875Z" fill="white"/>
</g>
<defs>
<clipPath id="clip0_971_4542">
<rect width="17" height="17" fill="white" transform="translate(0.5 0.5)"/>
</clipPath>
</defs>
</svg>
