<svg width="81" height="15" viewBox="0 0 81 15" fill="none" xmlns="http://www.w3.org/2000/svg">
<rect width="13.9766" height="13.9766" transform="translate(0 0.511719)" fill="#00B67A"/>
<path d="M9.20048 9.47781L10.128 12.3333L6.98838 10.0513L9.20048 9.47781ZM12.0691 6.36062H8.1874L6.9888 2.66699L5.78597 6.36146L1.9043 6.35638L5.04775 8.64218L3.84492 12.3328L6.98838 10.0513L8.92942 8.64218L12.0691 6.36062Z" fill="white"/>
<rect width="13.9766" height="13.9766" transform="translate(16.5178 0.511719)" fill="#00B67A"/>
<path d="M25.7222 9.47781L26.6497 12.3333L23.51 10.0513L25.7222 9.47781ZM28.5907 6.36062H24.7091L23.5105 2.66699L22.3076 6.36146L18.426 6.35638L21.5694 8.64218L20.3666 12.3328L23.51 10.0513L25.4511 8.64218L28.5907 6.36062Z" fill="white"/>
<rect width="13.9766" height="13.9766" transform="translate(33.0354 0.51178)" fill="#00B67A"/>
<path d="M42.2378 9.47787L43.1654 12.3333L40.0257 10.0513L42.2378 9.47787ZM45.1064 6.36068H41.2247L40.0262 2.66705L38.8233 6.36152L34.9417 6.35644L38.0851 8.64224L36.8823 12.3329L40.0257 10.0513L41.9668 8.64224L45.1064 6.36068Z" fill="white"/>
<rect width="13.9766" height="13.9766" transform="translate(49.5533 0.511719)" fill="#00B67A"/>
<path d="M58.7557 9.47781L59.6832 12.3333L56.5436 10.0513L58.7557 9.47781ZM61.6243 6.36062H57.7426L56.544 2.66699L55.3412 6.36146L51.4595 6.35638L54.603 8.64218L53.4001 12.3328L56.5436 10.0513L58.4846 8.64218L61.6243 6.36062Z" fill="white"/>
<rect width="13.9766" height="13.9766" transform="translate(66.071 0.511719)" fill="#00B67A"/>
<path d="M75.2754 9.47793L76.2029 12.3334L73.0633 10.0514L75.2754 9.47793ZM78.144 6.36074H74.2623L73.0637 2.66711L71.8609 6.36158L67.9792 6.3565L71.1227 8.6423L69.9198 12.333L73.0633 10.0514L75.0043 8.6423L78.144 6.36074Z" fill="white"/>
</svg>
