<svg width="17" height="17" viewBox="0 0 17 17" fill="none" xmlns="http://www.w3.org/2000/svg">
<path d="M16.4221 1.14388C16.771 1.52155 16.8186 2.059 16.5649 2.75624C16.3111 3.45347 15.8829 4.07807 15.2803 4.63005L13.3653 6.38403L15.2684 13.9665C15.308 14.1044 15.2605 14.2243 15.1257 14.326L13.6032 15.3718C13.5477 15.4154 13.4724 15.4372 13.3772 15.4372C13.3455 15.4372 13.3178 15.4335 13.294 15.4263C13.175 15.4045 13.0918 15.3464 13.0442 15.252L9.72572 9.71768L6.64513 12.5393L7.27552 14.6528C7.31517 14.7763 7.28345 14.8888 7.18037 14.9905L6.03853 16.0364C5.96716 16.1017 5.87598 16.1344 5.76496 16.1344H5.74118C5.62223 16.1199 5.52708 16.0727 5.45572 15.9928L3.20772 13.2474L0.210393 11.1884C0.123169 11.1376 0.0716277 11.054 0.0557688 10.9378C0.0478393 10.8434 0.0835218 10.7526 0.162816 10.6655L1.30466 9.60874C1.37602 9.54337 1.46721 9.51069 1.57822 9.51069C1.6258 9.51069 1.65752 9.51432 1.67337 9.52159L3.98084 10.099L7.06143 7.27736L1.0192 4.23786C0.908183 4.17975 0.840783 4.0926 0.816995 3.97639C0.801136 3.86019 0.836818 3.76214 0.924042 3.68225L2.44649 2.28778C2.55751 2.19336 2.67645 2.16431 2.80332 2.20063L10.7129 3.93282L12.616 2.18973C13.2186 1.63776 13.9006 1.24556 14.6618 1.01315C15.423 0.780738 16.0098 0.824315 16.4221 1.14388Z" fill="#0B417D"/>
</svg>
