<svg width="96" height="24" viewBox="0 0 96 24" fill="none" xmlns="http://www.w3.org/2000/svg">
<path d="M25.4653 8.47266H35.0569V10.2582H31.2803V20.3239H29.2103V10.2582H25.4495L25.4653 8.47266ZM34.6461 11.7436H36.4159V13.4028H36.4475C36.5107 13.1657 36.6213 12.9445 36.7793 12.7233C36.9373 12.5021 37.127 12.2967 37.364 12.1228C37.5852 11.9332 37.838 11.791 38.1225 11.6804C38.3911 11.5698 38.6755 11.5066 38.9599 11.5066C39.1812 11.5066 39.3392 11.5224 39.4182 11.5224C39.4972 11.5382 39.592 11.554 39.671 11.554V13.3712C39.5446 13.3396 39.4024 13.3238 39.2602 13.308C39.118 13.2922 38.9916 13.2764 38.8493 13.2764C38.5333 13.2764 38.2331 13.3396 37.9486 13.466C37.6642 13.5924 37.4272 13.782 37.206 14.019C37.0005 14.2719 36.8267 14.5721 36.7003 14.9355C36.5739 15.299 36.5107 15.7256 36.5107 16.1997V20.2765H34.6145L34.6461 11.7436ZM48.3619 20.3239H46.4973V19.123H46.4657C46.2287 19.5654 45.8811 19.8973 45.4228 20.1659C44.9646 20.4345 44.4905 20.5609 44.0165 20.5609C42.8946 20.5609 42.0729 20.2923 41.5672 19.7234C41.0616 19.1704 40.8087 18.3171 40.8087 17.1952V11.7436H42.7049V17.0056C42.7049 17.764 42.8472 18.3013 43.1474 18.6015C43.4318 18.9176 43.8427 19.0756 44.3641 19.0756C44.7592 19.0756 45.091 19.0124 45.3596 18.886C45.6283 18.7595 45.8495 18.6015 46.0075 18.3961C46.1813 18.1907 46.2919 17.9379 46.3709 17.6534C46.4499 17.369 46.4815 17.053 46.4815 16.7211V11.7436H48.3777V20.3239H48.3619ZM51.5855 17.5744C51.6487 18.1275 51.8541 18.5067 52.2175 18.7437C52.581 18.965 53.0234 19.0756 53.5291 19.0756C53.7029 19.0756 53.9083 19.0598 54.1295 19.0282C54.3508 18.9966 54.572 18.9492 54.7616 18.8702C54.967 18.7911 55.1251 18.6805 55.2515 18.5225C55.3779 18.3645 55.4411 18.1749 55.4253 17.9379C55.4095 17.7008 55.3305 17.4954 55.1567 17.3374C54.9828 17.1794 54.7774 17.0688 54.5246 16.9581C54.2718 16.8633 53.9715 16.7843 53.6397 16.7211C53.3079 16.6579 52.976 16.5789 52.6284 16.4999C52.2808 16.4209 51.9331 16.3261 51.6013 16.2155C51.2694 16.1049 50.985 15.9626 50.7164 15.7572C50.4636 15.5676 50.2423 15.3306 50.1001 15.0303C49.9421 14.7301 49.8631 14.3825 49.8631 13.94C49.8631 13.466 49.9737 13.0867 50.2107 12.7707C50.432 12.4547 50.7322 12.2018 51.0798 12.0122C51.4275 11.8226 51.8225 11.6804 52.2492 11.6014C52.6758 11.5224 53.0866 11.4908 53.4659 11.4908C53.9083 11.4908 54.335 11.5382 54.73 11.633C55.1251 11.7278 55.5043 11.87 55.8203 12.0912C56.1522 12.2967 56.4208 12.5811 56.6262 12.9129C56.8474 13.2448 56.9738 13.6556 57.0371 14.1297H55.0618C54.967 13.6714 54.7616 13.3712 54.4456 13.2132C54.1137 13.0551 53.7503 12.9761 53.3237 12.9761C53.1973 12.9761 53.0234 12.9919 52.8496 13.0077C52.66 13.0393 52.502 13.0709 52.3282 13.1341C52.1701 13.1974 52.0279 13.2922 51.9173 13.4028C51.8067 13.5134 51.7435 13.6714 51.7435 13.861C51.7435 14.098 51.8225 14.2719 51.9805 14.4141C52.1385 14.5563 52.344 14.6669 52.6126 14.7775C52.8654 14.8723 53.1656 14.9513 53.4975 15.0145C53.8293 15.0778 54.177 15.1568 54.5246 15.2358C54.8722 15.3148 55.2041 15.4096 55.5359 15.5202C55.8677 15.6308 56.168 15.773 56.4208 15.9784C56.6736 16.1681 56.8948 16.4051 57.0529 16.6895C57.2109 16.974 57.2899 17.3374 57.2899 17.7482C57.2899 18.2539 57.1793 18.6805 56.9422 19.044C56.7052 19.3916 56.405 19.6918 56.0416 19.9131C55.6781 20.1343 55.2515 20.2923 54.809 20.4029C54.3508 20.4977 53.9083 20.5609 53.4659 20.5609C52.9286 20.5609 52.423 20.4977 51.9647 20.3713C51.5065 20.2449 51.0956 20.0553 50.7638 19.8183C50.432 19.5654 50.1633 19.2652 49.9737 18.886C49.7841 18.5225 49.6735 18.0801 49.6577 17.5586H51.5697V17.5744H51.5855ZM57.8271 11.7436H59.2651V9.15213H61.1613V11.7278H62.8679V13.1341H61.1613V17.7166C61.1613 17.9221 61.1771 18.0801 61.1929 18.2381C61.2087 18.3803 61.2561 18.5067 61.3035 18.6015C61.3667 18.6963 61.4615 18.7753 61.5721 18.8227C61.6985 18.8702 61.8566 18.9018 62.0778 18.9018C62.2042 18.9018 62.3464 18.9018 62.4728 18.886C62.5992 18.8702 62.7415 18.8544 62.8679 18.8227V20.2923C62.6624 20.3239 62.457 20.3397 62.2516 20.3555C62.0462 20.3871 61.8566 20.3871 61.6353 20.3871C61.1297 20.3871 60.7346 20.3397 60.4344 20.2449C60.1342 20.1501 59.8972 20.0079 59.7233 19.8341C59.5495 19.6444 59.4389 19.4232 59.3757 19.1546C59.3125 18.886 59.2809 18.5541 59.2651 18.2065V13.1499H57.8271V11.712V11.7436ZM64.1952 11.7436H65.9808V12.9129H66.0124C66.281 12.4073 66.6445 12.0596 67.1185 11.8384C67.5926 11.6172 68.0982 11.5066 68.6671 11.5066C69.3466 11.5066 69.9312 11.6172 70.4369 11.87C70.9425 12.107 71.3534 12.4231 71.6852 12.8497C72.017 13.2606 72.2699 13.7504 72.4279 14.3035C72.5859 14.8565 72.6807 15.457 72.6807 16.0733C72.6807 16.6579 72.6017 17.211 72.4595 17.7482C72.3015 18.2855 72.0802 18.7753 71.78 19.1862C71.4798 19.597 71.1005 19.9289 70.6265 20.1817C70.1524 20.4345 69.6152 20.5609 68.9831 20.5609C68.7145 20.5609 68.4301 20.5293 68.1614 20.4819C67.8928 20.4345 67.6242 20.3555 67.3713 20.2449C67.1185 20.1343 66.8815 19.9921 66.6761 19.8183C66.4548 19.6444 66.281 19.439 66.1388 19.2178H66.1072V23.5H64.211V11.7436H64.1952ZM70.8161 16.0417C70.8161 15.6624 70.7687 15.2832 70.6581 14.9197C70.5633 14.5563 70.4053 14.2403 70.1998 13.9558C69.9944 13.6714 69.7416 13.4502 69.4572 13.2764C69.1569 13.1025 68.8093 13.0235 68.4301 13.0235C67.64 13.0235 67.0395 13.2922 66.6287 13.8452C66.2336 14.3983 66.0282 15.141 66.0282 16.0575C66.0282 16.4999 66.0756 16.8949 66.1862 17.2584C66.2968 17.6218 66.439 17.9379 66.6603 18.2065C66.8657 18.4751 67.1185 18.6805 67.4188 18.8385C67.719 18.9966 68.0508 19.0756 68.4459 19.0756C68.8883 19.0756 69.2359 18.9808 69.5362 18.8069C69.8364 18.6331 70.0734 18.3961 70.2789 18.1275C70.4685 17.843 70.6107 17.527 70.6897 17.1636C70.7687 16.7843 70.8161 16.4209 70.8161 16.0417ZM74.1503 8.47266H76.0465V10.2582H74.1503V8.47266ZM74.1503 11.7436H76.0465V20.3239H74.1503V11.7436ZM77.7372 8.47266H79.6334V20.3239H77.7372V8.47266ZM85.4168 20.5609C84.7374 20.5609 84.1211 20.4503 83.5839 20.2133C83.0466 19.9763 82.6042 19.676 82.2249 19.281C81.8615 18.886 81.577 18.3961 81.3874 17.843C81.1978 17.29 81.0872 16.6737 81.0872 16.0259C81.0872 15.378 81.182 14.7775 81.3874 14.2245C81.577 13.6714 81.8615 13.1974 82.2249 12.7865C82.5884 12.3915 83.0466 12.0754 83.5839 11.8542C84.1211 11.633 84.7374 11.5066 85.4168 11.5066C86.0963 11.5066 86.7126 11.6172 87.2498 11.8542C87.7871 12.0754 88.2295 12.3915 88.6088 12.7865C88.9722 13.1816 89.2566 13.6714 89.4463 14.2245C89.6359 14.7775 89.7465 15.378 89.7465 16.0259C89.7465 16.6895 89.6517 17.29 89.4463 17.843C89.2408 18.3961 88.9722 18.8702 88.6088 19.281C88.2453 19.676 87.7871 19.9921 87.2498 20.2133C86.7126 20.4345 86.1121 20.5609 85.4168 20.5609ZM85.4168 19.0598C85.8277 19.0598 86.2069 18.965 86.5072 18.7911C86.8232 18.6173 87.0602 18.3803 87.2656 18.0959C87.4711 17.8114 87.6133 17.4796 87.7081 17.132C87.8029 16.7685 87.8503 16.4051 87.8503 16.0259C87.8503 15.6624 87.8029 15.299 87.7081 14.9355C87.6133 14.5721 87.4711 14.2561 87.2656 13.9716C87.0602 13.6872 86.8074 13.466 86.5072 13.2922C86.1911 13.1183 85.8277 13.0235 85.4168 13.0235C85.006 13.0235 84.6268 13.1183 84.3265 13.2922C84.0105 13.466 83.7735 13.703 83.5681 13.9716C83.3626 14.2561 83.2204 14.5721 83.1256 14.9355C83.0308 15.299 82.9834 15.6624 82.9834 16.0259C82.9834 16.4051 83.0308 16.7685 83.1256 17.132C83.2204 17.4954 83.3626 17.8114 83.5681 18.0959C83.7735 18.3803 84.0263 18.6173 84.3265 18.7911C84.6426 18.9808 85.006 19.0598 85.4168 19.0598ZM90.3154 11.7436H91.7533V9.15213H93.6495V11.7278H95.3561V13.1341H93.6495V17.7166C93.6495 17.9221 93.6653 18.0801 93.6811 18.2381C93.6969 18.3803 93.7443 18.5067 93.7917 18.6015C93.8549 18.6963 93.9497 18.7753 94.0604 18.8227C94.1868 18.8702 94.3448 18.9018 94.566 18.9018C94.6924 18.9018 94.8346 18.9018 94.9611 18.886C95.0875 18.8702 95.2297 18.8544 95.3561 18.8227V20.2923C95.1507 20.3239 94.9453 20.3397 94.7398 20.3555C94.5344 20.3871 94.3448 20.3871 94.1236 20.3871C93.6179 20.3871 93.2229 20.3397 92.9226 20.2449C92.6224 20.1501 92.3854 20.0079 92.2116 19.8341C92.0377 19.6444 91.9271 19.4232 91.8639 19.1546C91.8007 18.886 91.7691 18.5541 91.7533 18.2065V13.1499H90.3154V11.712V11.7436Z" fill="black"/>
<path d="M23.2503 8.47259H14.5752L11.9047 0.224121L9.21839 8.47259L0.543274 8.45679L7.55921 13.5607L4.87293 21.8092L11.8889 16.7053L18.9048 21.8092L16.2343 13.5607L23.2503 8.47259Z" fill="#00B67A"/>
<path d="M16.8367 15.4251L16.2362 13.5605L11.9066 16.7051L16.8367 15.4251Z" fill="#005128"/>
</svg>
