<svg width="173" height="30" viewBox="0 0 173 30" fill="none" xmlns="http://www.w3.org/2000/svg">
<path d="M23.0798 29.4307C31.0497 29.4307 37.5105 22.9699 37.5105 15C37.5105 7.03013 31.0497 0.569275 23.0798 0.569275C15.1099 0.569275 8.64905 7.03013 8.64905 15C8.64905 22.9699 15.1099 29.4307 23.0798 29.4307Z" fill="#0B417D" fill-opacity="0.5"/>
<path d="M43.8971 17.2126V6.95518H48.4727V15.855C48.4727 17.6148 48.6738 19.3244 50.9868 19.3244C53.2997 19.3244 53.5008 17.6148 53.5008 15.855V6.95518H58.0764V17.1623C58.0764 21.1345 55.5624 23.2966 50.9868 23.2966C46.3106 23.3469 43.8971 21.1345 43.8971 17.2126ZM59.2832 20.9837L61.4955 17.9165C62.3 18.9221 63.7079 19.7769 65.2666 19.7769C66.4734 19.7769 67.1773 19.2741 67.1773 18.3188C67.1773 17.2126 66.1717 16.8606 64.4119 16.3578C62.0989 15.6538 60.0374 14.4471 60.0374 11.6816C60.0374 8.66474 62.5514 6.60321 66.0711 6.60321C68.5349 6.60321 70.3451 7.35743 71.5518 8.46362L69.4903 11.5308C68.8366 10.7766 67.7304 10.1229 66.3225 10.1229C65.1158 10.1229 64.613 10.6257 64.613 11.2291C64.613 12.2347 65.8197 12.4861 67.1271 12.9387C69.7417 13.7432 71.7529 14.9499 71.7529 17.9165C71.7529 20.9837 69.5406 23.2966 65.5181 23.2966C62.5515 23.3469 60.2888 22.0898 59.2832 20.9837Z" fill="#0B417D" fill-opacity="0.6"/>
<path d="M77.8884 6.95526H82.9165L88.9 22.995H84.1233L83.369 20.6821H77.3353L76.5811 22.995H71.9049C71.9552 22.995 77.8884 6.95526 77.8884 6.95526ZM82.2126 17.0618L80.9555 13.1901C80.7041 12.4359 80.503 11.4806 80.4024 10.7766H80.2516C80.151 11.4806 79.9499 12.4359 79.6985 13.1901L78.4415 17.0618H82.2126Z" fill="#0B417D" fill-opacity="0.6"/>
<path d="M95.5353 10.676H91.5631V6.95519H104.083V10.676H100.111V22.9949H95.5353V10.676ZM104.385 15.0002C104.385 11.028 107.201 6.6535 113.184 6.6535C119.168 6.6535 121.983 11.0783 121.983 15.0002C121.983 18.9221 119.168 23.2966 113.184 23.2966C107.201 23.3469 104.385 18.9724 104.385 15.0002ZM117.307 15.0002C117.307 12.1342 115.447 10.6257 113.184 10.6257C110.972 10.6257 109.111 12.1342 109.111 15.0002C109.111 17.8662 110.972 19.3244 113.184 19.3244C115.396 19.3244 117.307 17.8662 117.307 15.0002ZM123.643 6.95519H129.576C135.258 6.95519 138.476 9.97207 138.476 15.0002C138.476 19.9278 135.157 23.0452 129.576 23.0452H123.643V6.95519ZM128.268 19.3244H129.274C132.241 19.3244 133.799 17.9165 133.799 15.0002C133.799 12.0839 132.241 10.676 129.274 10.676H128.268V19.3244Z" fill="#0B417D" fill-opacity="0.6"/>
<path d="M143.808 6.95526H148.836L154.82 22.995H150.043L149.289 20.6821H143.255L142.501 22.995H137.825C137.875 22.995 143.808 6.95526 143.808 6.95526ZM148.132 17.0618L146.875 13.1901C146.624 12.4359 146.423 11.4806 146.322 10.7766H146.172C146.071 11.4806 145.87 12.4359 145.618 13.1901L144.361 17.0618H148.132Z" fill="#0B417D" fill-opacity="0.6"/>
<path d="M157.031 17.313L151.047 7.00531H156.076L158.238 10.9775C158.69 11.8323 159.344 13.0893 159.495 13.9441H159.595C159.746 13.0893 160.35 11.8323 160.852 10.9775L163.014 7.00531H167.892L161.908 17.313V23.045H157.081V17.313H157.031Z" fill="#0B417D" fill-opacity="0.6"/>
</svg>
