<svg width="16" height="19" viewBox="0 0 16 19" fill="none" xmlns="http://www.w3.org/2000/svg">
<path d="M12.976 5.7439C12.976 3.01784 10.7569 0.798676 8.03082 0.798676C5.30477 0.798676 3.0856 3.01784 3.0856 5.7439C3.0856 8.46995 5.30477 10.6891 8.03082 10.6891C10.7569 10.6891 12.976 8.46995 12.976 5.7439ZM4.94006 5.7439C4.94006 4.0378 6.32472 2.65313 8.03082 2.65313C9.73693 2.65313 11.1216 4.0378 11.1216 5.7439C11.1216 7.45 9.73693 8.83467 8.03082 8.83467C6.32472 8.83467 4.94006 7.45 4.94006 5.7439ZM9.51439 11.9254H6.54726C3.30814 11.9254 0.674805 14.5588 0.674805 17.7979C0.674805 18.311 1.08897 18.7251 1.60203 18.7251H14.4596C14.9727 18.7251 15.3868 18.311 15.3868 17.7979C15.3868 14.5588 12.7535 11.9254 9.51439 11.9254ZM2.63435 16.8707C3.05469 15.1027 4.64953 13.7799 6.54726 13.7799H9.51439C11.4121 13.7799 13.007 15.1027 13.4273 16.8707H2.63435Z" fill="white"/>
</svg>
