<svg width="18" height="18" viewBox="0 0 18 18" fill="none" xmlns="http://www.w3.org/2000/svg">
<g clip-path="url(#clip0_971_4547)">
<path d="M11.832 8.9987C13.5136 9.83666 14.6654 11.5841 14.6654 13.957V16.7904H3.33203V13.957C3.33203 11.5813 4.48732 9.83099 6.16536 8.9987M13.2487 5.45703C13.2487 6.01515 13.1388 6.5678 12.9252 7.08344C12.7116 7.59907 12.3986 8.06759 12.0039 8.46223C11.6093 8.85688 11.1407 9.16994 10.6251 9.38352C10.1095 9.5971 9.55682 9.70703 8.9987 9.70703C7.87153 9.70703 6.79052 9.25926 5.99349 8.46223C5.19646 7.66521 4.7487 6.5842 4.7487 5.45703M13.2487 5.45703C13.2487 4.89891 13.1388 4.34626 12.9252 3.83063C12.7116 3.31499 12.3986 2.84648 12.0039 2.45183C11.6093 2.05718 11.1407 1.74413 10.6251 1.53054C10.1095 1.31696 9.55682 1.20703 8.9987 1.20703C7.87153 1.20703 6.79052 1.6548 5.99349 2.45183C5.19646 3.24886 4.7487 4.32986 4.7487 5.45703M13.2487 5.45703C12.1862 5.45703 11.1237 5.71203 9.70703 4.04036C8.29036 5.71203 6.51953 6.16536 4.7487 5.45703M5.45703 9.70703L9.01641 13.4307L12.5404 9.70703M8.9987 13.2487V16.7904" stroke="white" stroke-width="1.16316"/>
</g>
<defs>
<clipPath id="clip0_971_4547">
<rect width="17" height="17" fill="white" transform="translate(0.5 0.5)"/>
</clipPath>
</defs>
</svg>
