<svg width="32" height="33" viewBox="0 0 32 33" fill="none" xmlns="http://www.w3.org/2000/svg">
<circle cx="16" cy="16.5" r="16" fill="#FFC200" fill-opacity="0.1"/>
<circle cx="16" cy="16.5" r="11" fill="#FFC200"/>
<path d="M9.66602 14.5V21.8333C9.66602 22.2015 9.96449 22.5 10.3327 22.5H21.666C22.0342 22.5 22.3327 22.2015 22.3327 21.8333V14.5C22.3327 14.1318 22.0342 13.8333 21.666 13.8333H10.3327C9.96449 13.8333 9.66602 14.1318 9.66602 14.5Z" stroke="white" stroke-linejoin="bevel"/>
<path d="M11 13.8337L18.6667 10.167L20.3333 13.8337" stroke="white" stroke-linecap="round" stroke-linejoin="round"/>
<path d="M12.3327 16.8333C12.7009 16.8333 12.9993 16.5349 12.9993 16.1667C12.9993 15.7985 12.7009 15.5 12.3327 15.5C11.9645 15.5 11.666 15.7985 11.666 16.1667C11.666 16.5349 11.9645 16.8333 12.3327 16.8333Z" fill="white"/>
<path d="M12.3327 18.8333C12.7009 18.8333 12.9993 18.5349 12.9993 18.1667C12.9993 17.7985 12.7009 17.5 12.3327 17.5C11.9645 17.5 11.666 17.7985 11.666 18.1667C11.666 18.5349 11.9645 18.8333 12.3327 18.8333Z" fill="white"/>
<path d="M12.3327 20.8333C12.7009 20.8333 12.9993 20.5349 12.9993 20.1667C12.9993 19.7985 12.7009 19.5 12.3327 19.5C11.9645 19.5 11.666 19.7985 11.666 20.1667C11.666 20.5349 11.9645 20.8333 12.3327 20.8333Z" fill="white"/>
<path d="M15 20.167H16.3333L20 16.167M16 18.167H18" stroke="white" stroke-linecap="round" stroke-linejoin="round"/>
</svg>
