<svg width="21" height="17" viewBox="0 0 21 17" fill="none" xmlns="http://www.w3.org/2000/svg">
<g clip-path="url(#clip0_753_3875)">
<path d="M0 0.5H21V16.5H0V0.5Z" fill="#00008B"/>
<path d="M1.23047 0.5L5.23359 3.51667L9.22031 0.5H10.5V1.53333L6.5625 4.51667L10.5 7.48333V8.5H9.1875L5.25 5.51667L1.32891 8.5H0V7.5L3.92109 4.53333L0 1.56667V0.5H1.23047Z" fill="white"/>
<path d="M6.95625 5.18333L10.5 7.83333V8.5L6.05391 5.18333H6.95625ZM3.9375 5.51667L4.03594 6.1L0.885937 8.5H0L3.9375 5.51667ZM10.5 0.5V0.55L6.41484 3.68333L6.44766 2.95L9.67969 0.5H10.5ZM0 0.5L3.92109 3.43333H2.93672L0 1.2V0.5Z" fill="#FF0000"/>
<path d="M3.95391 0.5V8.5H6.57891V0.5H3.95391ZM0 3.16667V5.83333H10.5V3.16667H0Z" fill="white"/>
<path d="M0 3.71667V5.31667H10.5V3.71667H0ZM4.47891 0.5V8.5H6.05391V0.5H4.47891Z" fill="#FF0000"/>
<path d="M17.2912 13.7231L16.6186 13.8098L16.6908 14.4931L16.2052 14.0131L15.7228 14.4965L15.7884 13.8131L15.1158 13.7331L15.6834 13.3598L15.3258 12.7765L15.9689 12.9931L16.1953 12.3431L16.4283 12.9898L17.0681 12.7665L16.717 13.3531L17.2912 13.7231ZM17.1698 9.81645L17.2584 9.38312L16.9369 9.08312L17.37 9.03312L17.5505 8.62979L17.7309 9.03312L18.1641 9.08312L17.8425 9.38312L17.9311 9.81645L17.5505 9.59645L17.1698 9.81645ZM13.7541 7.81645L13.088 7.88978L13.147 8.56645L12.6745 8.08312L12.1889 8.55312L12.2677 7.87645L11.6048 7.78645L12.1725 7.42645L11.828 6.84312L12.4612 7.06979L12.6975 6.43312L12.9173 7.07645L13.5539 6.86645L13.1962 7.44312L13.7573 7.81645H13.7541ZM20.4412 6.72312L19.7555 6.81312L19.8309 7.50979L19.3355 7.01979L18.8433 7.51312L18.9122 6.81312L18.2264 6.73312L18.8072 6.34979L18.443 5.75312L19.0992 5.97645L19.3289 5.31645L19.5652 5.97645L20.2181 5.74645L19.8572 6.34645L20.4412 6.72312ZM17.288 3.93979L16.6087 4.01645L16.6711 4.70979L16.1887 4.21645L15.6933 4.69645L15.772 4.00645L15.0928 3.91312L15.6736 3.54645L15.3225 2.94979L15.9689 3.17979L16.2084 2.52979L16.4316 3.18645L17.0812 2.96979L16.717 3.55645L17.288 3.93979ZM7.67719 13.3565L6.17437 13.5365L6.32531 15.0665L5.24906 13.9865L4.16625 15.0598L4.32703 13.5298L2.82422 13.3365L4.10063 12.5098L3.31313 11.1965L4.74375 11.6965L5.26219 10.2498L5.77078 11.6998L7.20469 11.2098L6.40734 12.5165L7.68047 13.3531L7.67719 13.3565Z" fill="white"/>
</g>
<defs>
<clipPath id="clip0_753_3875">
<rect y="0.5" width="21" height="16" rx="5" fill="white"/>
</clipPath>
</defs>
</svg>
