<svg width="21" height="17" viewBox="0 0 21 17" fill="none" xmlns="http://www.w3.org/2000/svg">
<g clip-path="url(#clip0_753_3757)">
<path d="M0 0.5H21V16.5H0V0.5Z" fill="#EE1C25"/>
<path d="M2.51921 6.4201L3.93669 2.1001L5.35417 6.4201L1.57422 3.7801H6.29916L2.51921 6.4201Z" fill="#FFFF00"/>
<path d="M8.66729 2.18262L7.20852 2.51103L8.18157 1.35914L8.08614 2.90943L7.27661 1.53696L8.66729 2.18262Z" fill="#FFFF00"/>
<path d="M10.1404 4.0782L8.6704 3.80615L10.007 3.1278L9.32722 4.51914L9.10504 2.93514L10.1404 4.0782Z" fill="#FFFF00"/>
<path d="M9.92578 6.7377L8.69285 5.88025L10.1856 5.8147L9.00631 6.8034L9.43938 5.26507L9.92578 6.7377Z" fill="#FFFF00"/>
<path d="M8.071 8.47486L7.25974 7.20019L8.66159 7.72543L7.19791 8.17469L8.18222 6.92565L8.071 8.47486Z" fill="#FFFF00"/>
</g>
<defs>
<clipPath id="clip0_753_3757">
<rect y="0.5" width="21" height="16" rx="5" fill="white"/>
</clipPath>
</defs>
</svg>
