<svg width="21" height="17" viewBox="0 0 21 17" fill="none" xmlns="http://www.w3.org/2000/svg">
<g clip-path="url(#clip0_753_3766)">
<path d="M0 0.5H21V5.83333H0V0.5Z" fill="#FF9933"/>
<path d="M0 5.8335H21V11.1668H0V5.8335Z" fill="white"/>
<path d="M0 11.1665H21V16.4998H0V11.1665Z" fill="#128807"/>
<path d="M10.4984 10.6329C11.6582 10.6329 12.5984 9.67775 12.5984 8.49954C12.5984 7.32134 11.6582 6.36621 10.4984 6.36621C9.33864 6.36621 8.39844 7.32134 8.39844 8.49954C8.39844 9.67775 9.33864 10.6329 10.4984 10.6329Z" fill="#000088"/>
<path d="M10.4996 10.3666C11.5144 10.3666 12.3371 9.5309 12.3371 8.49997C12.3371 7.46904 11.5144 6.6333 10.4996 6.6333C9.48479 6.6333 8.66211 7.46904 8.66211 8.49997C8.66211 9.5309 9.48479 10.3666 10.4996 10.3666Z" fill="white"/>
<path d="M10.4984 8.87313C10.7013 8.87313 10.8659 8.70598 10.8659 8.4998C10.8659 8.29361 10.7013 8.12646 10.4984 8.12646C10.2954 8.12646 10.1309 8.29361 10.1309 8.4998C10.1309 8.70598 10.2954 8.87313 10.4984 8.87313Z" fill="#000088"/>
<path d="M12.3151 8.83912C12.3669 8.84604 12.4143 8.80904 12.4211 8.75647C12.428 8.7039 12.3915 8.65568 12.3398 8.64876C12.288 8.64184 12.2406 8.67884 12.2338 8.73141C12.2269 8.78397 12.2634 8.8322 12.3151 8.83912Z" fill="#000088"/>
<path d="M10.5064 10.3662L10.5694 9.24622L10.5064 8.71289L10.4434 9.24622L10.5064 10.3662Z" fill="#000088"/>
<path d="M12.1681 9.30323C12.2164 9.32365 12.2717 9.30062 12.2915 9.25177C12.3114 9.20293 12.2882 9.14677 12.2399 9.12634C12.1915 9.10592 12.1363 9.12895 12.1164 9.1778C12.0966 9.22664 12.1197 9.2828 12.1681 9.30323Z" fill="#000088"/>
<path d="M10.0302 10.3028L10.3762 9.23804L10.4502 8.70624L10.2532 9.20447L10.0302 10.3028Z" fill="#000088"/>
<path d="M11.906 9.71245C11.9475 9.74488 12.0068 9.73718 12.0385 9.69526C12.0701 9.65335 12.0621 9.59308 12.0205 9.56066C11.979 9.52824 11.9196 9.53593 11.888 9.57785C11.8564 9.61977 11.8644 9.68003 11.906 9.71245Z" fill="#000088"/>
<path d="M9.58777 10.1159L10.1934 9.1786L10.4007 8.68462L10.0835 9.11405L9.58777 10.1159Z" fill="#000088"/>
<path d="M11.5528 10.0439C11.5847 10.0861 11.644 10.0942 11.6853 10.0621C11.7266 10.0299 11.7342 9.96966 11.7023 9.92747C11.6704 9.88528 11.611 9.87713 11.5698 9.90928C11.5285 9.94143 11.5209 10.0017 11.5528 10.0439Z" fill="#000088"/>
<path d="M9.21095 9.82391L10.035 9.07789L10.3612 8.65541L9.94533 8.9868L9.21095 9.82391Z" fill="#000088"/>
<path d="M11.1205 10.2611C11.1403 10.3099 11.1956 10.3329 11.2439 10.3125C11.2923 10.292 11.3155 10.2359 11.2956 10.187C11.2758 10.1382 11.2206 10.1152 11.1722 10.1357C11.1238 10.1561 11.1006 10.2123 11.1205 10.2611Z" fill="#000088"/>
<path d="M8.9142 9.43331L9.90059 8.9277L10.3242 8.60577L9.83813 8.81773L8.9142 9.43331Z" fill="#000088"/>
<path d="M10.6366 10.3617C10.6432 10.4141 10.6907 10.4509 10.7426 10.4438C10.7945 10.4367 10.8312 10.3885 10.8245 10.3361C10.8179 10.2837 10.7704 10.247 10.7185 10.254C10.6666 10.2611 10.6299 10.3093 10.6366 10.3617Z" fill="#000088"/>
<path d="M8.71509 8.98159L9.79641 8.75201L10.2876 8.55238L9.76423 8.62967L8.71509 8.98159Z" fill="#000088"/>
<path d="M10.1558 10.3342C10.1488 10.3869 10.185 10.4351 10.2366 10.4419C10.2882 10.4487 10.3356 10.4114 10.3426 10.3587C10.3496 10.3059 10.3134 10.2577 10.2618 10.2509C10.2102 10.2442 10.1628 10.2815 10.1558 10.3342Z" fill="#000088"/>
<path d="M8.65201 8.49837L9.75401 8.55594L10.2791 8.49291L9.75443 8.4334L8.65201 8.49837Z" fill="#000088"/>
<path d="M9.69929 10.1841C9.67925 10.2331 9.70204 10.2893 9.75019 10.3095C9.79834 10.3297 9.85362 10.3063 9.87366 10.2573C9.8937 10.2082 9.87091 10.1521 9.82276 10.1318C9.7746 10.1116 9.71932 10.135 9.69929 10.1841Z" fill="#000088"/>
<path d="M8.71428 8.01333L9.76265 8.36491L10.2861 8.44057L9.79548 8.2406L8.71428 8.01333Z" fill="#000088"/>
<path d="M9.31179 9.9238C9.28017 9.96572 9.28822 10.026 9.32977 10.0584C9.37132 10.0908 9.43064 10.0831 9.46227 10.0412C9.49389 9.99931 9.48585 9.93905 9.44429 9.90662C9.40274 9.8742 9.34342 9.88189 9.31179 9.9238Z" fill="#000088"/>
<path d="M8.91619 7.56825L9.84013 8.18383L10.3262 8.3958L9.90258 8.07387L8.91619 7.56825Z" fill="#000088"/>
<path d="M8.99135 9.56156C8.95009 9.59369 8.94252 9.65395 8.97443 9.69616C9.00635 9.73837 9.06567 9.74655 9.10693 9.71442C9.14819 9.68229 9.15577 9.62203 9.12385 9.57982C9.09193 9.53761 9.03261 9.52943 8.99135 9.56156Z" fill="#000088"/>
<path d="M9.20861 7.18231L9.94441 8.01964L10.3601 8.35205L10.0329 7.92979L9.20861 7.18231Z" fill="#000088"/>
<path d="M8.77379 9.1268C8.72568 9.14698 8.70296 9.20314 8.72305 9.25223C8.74313 9.30133 8.79841 9.32478 8.84652 9.3046C8.89463 9.28442 8.91734 9.22827 8.89726 9.17917C8.87718 9.13007 8.8219 9.10663 8.77379 9.1268Z" fill="#000088"/>
<path d="M9.5904 6.88523L10.0878 7.88724L10.4048 8.31745L10.1963 7.82364L9.5904 6.88523Z" fill="#000088"/>
<path d="M8.68811 8.64578C8.63648 8.65258 8.60023 8.70081 8.60715 8.75348C8.61407 8.80616 8.66154 8.84335 8.71318 8.83654C8.76481 8.82974 8.80106 8.78151 8.79414 8.72883C8.78722 8.67616 8.73975 8.63897 8.68811 8.64578Z" fill="#000088"/>
<path d="M10.0468 6.69498L10.2723 7.79344L10.4689 8.29229L10.3932 7.76062L10.0468 6.69498Z" fill="#000088"/>
<path d="M8.69575 8.15922C8.64385 8.15214 8.59638 8.18888 8.58972 8.24128C8.58307 8.29369 8.61975 8.34191 8.67165 8.34899C8.72355 8.35607 8.77102 8.31934 8.77767 8.26693C8.78433 8.21453 8.74765 8.16631 8.69575 8.15922Z" fill="#000088"/>
<path d="M10.5027 6.63204L10.4459 7.75152L10.508 8.28494L10.5667 7.75197L10.5027 6.63204Z" fill="#000088"/>
<path d="M8.82999 7.69189C8.78164 7.67146 8.72636 7.6945 8.70652 7.74334C8.68668 7.79219 8.7098 7.84834 8.75815 7.86877C8.80651 7.8892 8.86178 7.86617 8.88162 7.81732C8.90146 7.76848 8.87834 7.71232 8.82999 7.69189Z" fill="#000088"/>
<path d="M10.9659 6.69233L10.6199 7.75707L10.5459 8.28888L10.7429 7.79065L10.9659 6.69233Z" fill="#000088"/>
<path d="M9.10961 7.28804C9.06806 7.25561 9.00873 7.26331 8.97711 7.30522C8.94548 7.34714 8.95353 7.4074 8.99508 7.43982C9.03663 7.47225 9.09595 7.46456 9.12758 7.42264C9.1592 7.38073 9.15116 7.32047 9.10961 7.28804Z" fill="#000088"/>
<path d="M11.4278 6.88411L10.8221 7.8214L10.6149 8.31538L10.9321 7.88596L11.4278 6.88411Z" fill="#000088"/>
<path d="M9.46472 6.96005C9.4328 6.91784 9.37348 6.90967 9.33222 6.9418C9.29095 6.97393 9.28338 7.03419 9.31529 7.0764C9.34721 7.11861 9.40653 7.12679 9.44779 7.09466C9.48905 7.06253 9.49663 7.00226 9.46472 6.96005Z" fill="#000088"/>
<path d="M11.8085 7.18003L10.9844 7.92597L10.6583 8.34846L11.0742 8.01713L11.8085 7.18003Z" fill="#000088"/>
<path d="M9.88735 6.73891C9.86753 6.69009 9.81225 6.66708 9.76388 6.68753C9.7155 6.70798 9.69235 6.76414 9.71217 6.81296C9.73198 6.86179 9.78726 6.88479 9.83564 6.86434C9.88401 6.84389 9.90716 6.78773 9.88735 6.73891Z" fill="#000088"/>
<path d="M12.0936 7.56717L11.1072 8.07279L10.6836 8.39472L11.1697 8.18276L12.0936 7.56717Z" fill="#000088"/>
<path d="M10.3556 6.63728C10.3489 6.58488 10.3015 6.54813 10.2496 6.55522C10.1977 6.5623 10.161 6.61052 10.1676 6.66292C10.1743 6.71533 10.2218 6.75207 10.2737 6.74499C10.3256 6.73791 10.3623 6.68969 10.3556 6.63728Z" fill="#000088"/>
<path d="M12.2771 8.01694L11.1958 8.24653L10.7046 8.44615L11.228 8.36887L12.2771 8.01694Z" fill="#000088"/>
<path d="M10.8304 6.66228C10.8374 6.60953 10.8013 6.5613 10.7497 6.55457C10.6981 6.54783 10.6507 6.58513 10.6437 6.63789C10.6367 6.69064 10.6728 6.73886 10.7244 6.74559C10.7759 6.75233 10.8234 6.71503 10.8304 6.66228Z" fill="#000088"/>
<path d="M12.3344 8.49738L11.2325 8.44061L10.7074 8.50352L11.232 8.56247L12.3344 8.49738Z" fill="#000088"/>
<path d="M11.2772 6.81091C11.2972 6.76183 11.2745 6.70567 11.2264 6.68548C11.1782 6.66529 11.123 6.68871 11.1029 6.73779C11.0828 6.78687 11.1056 6.84303 11.1537 6.86322C11.2018 6.88341 11.2571 6.85999 11.2772 6.81091Z" fill="#000088"/>
<path d="M12.2602 8.98139L11.212 8.62986L10.6885 8.55441L11.179 8.75443L12.2602 8.98139Z" fill="#000088"/>
<path d="M11.6878 7.0784C11.7197 7.03626 11.712 6.976 11.6707 6.9438C11.6293 6.91159 11.57 6.91965 11.5382 6.96179C11.5063 7.00393 11.514 7.06419 11.5553 7.09639C11.5967 7.12859 11.656 7.12054 11.6878 7.0784Z" fill="#000088"/>
<path d="M12.0854 9.43414L11.1624 8.8188L10.6762 8.60792L11.0991 8.9301L12.0854 9.43414Z" fill="#000088"/>
<path d="M12.0102 7.44113C12.0517 7.40878 12.0596 7.34851 12.0279 7.30652C11.9963 7.26454 11.9369 7.25673 11.8954 7.28908C11.854 7.32143 11.846 7.38169 11.8777 7.42368C11.9094 7.46567 11.9688 7.47348 12.0102 7.44113Z" fill="#000088"/>
<path d="M11.7929 9.82059L11.0582 8.98343L10.6424 8.65184L10.9688 9.07428L11.7929 9.82059Z" fill="#000088"/>
<path d="M12.2259 7.87707C12.2742 7.85671 12.2972 7.80055 12.2773 7.75164C12.2574 7.70273 12.2022 7.67959 12.1539 7.69995C12.1056 7.72031 12.0826 7.77647 12.1025 7.82538C12.1224 7.87429 12.1777 7.89743 12.2259 7.87707Z" fill="#000088"/>
<path d="M11.4111 10.1187L10.9149 9.11678L10.5978 8.68711L10.8054 9.18104L11.4111 10.1187Z" fill="#000088"/>
<path d="M12.3429 8.3537C12.3947 8.34671 12.4312 8.29849 12.4245 8.24599C12.4177 8.1935 12.3703 8.15661 12.3185 8.16361C12.2666 8.1706 12.2301 8.21882 12.2368 8.27132C12.2436 8.32381 12.2911 8.36069 12.3429 8.3537Z" fill="#000088"/>
<path d="M10.9838 10.3047L10.76 9.20638L10.5631 8.70794L10.6377 9.23971L10.9838 10.3047Z" fill="#000088"/>
</g>
<defs>
<clipPath id="clip0_753_3766">
<rect y="0.5" width="21" height="16" rx="5" fill="white"/>
</clipPath>
</defs>
</svg>
