<svg width="18" height="18" viewBox="0 0 18 18" fill="none" xmlns="http://www.w3.org/2000/svg">
<path d="M9.25 8.625C8.75272 8.625 8.27581 8.42746 7.92417 8.07583C7.57254 7.72419 7.375 7.24728 7.375 6.75C7.375 6.25272 7.57254 5.77581 7.92417 5.42417C8.27581 5.07254 8.75272 4.875 9.25 4.875C9.74728 4.875 10.2242 5.07254 10.5758 5.42417C10.9275 5.77581 11.125 6.25272 11.125 6.75C11.125 6.99623 11.0765 7.24005 10.9823 7.46753C10.888 7.69502 10.7499 7.90172 10.5758 8.07583C10.4017 8.24994 10.195 8.38805 9.96753 8.48227C9.74005 8.5765 9.49623 8.625 9.25 8.625ZM9.25 1.5C7.85761 1.5 6.52226 2.05312 5.53769 3.03769C4.55312 4.02226 4 5.35761 4 6.75C4 10.6875 9.25 16.5 9.25 16.5C9.25 16.5 14.5 10.6875 14.5 6.75C14.5 5.35761 13.9469 4.02226 12.9623 3.03769C11.9777 2.05312 10.6424 1.5 9.25 1.5Z" fill="white"/>
</svg>
