<svg width="232" height="216" viewBox="0 0 232 216" fill="none" xmlns="http://www.w3.org/2000/svg">
<g filter="url(#filter0_d_753_2979)">
<rect x="28.0039" y="25" width="176.077" height="160" rx="7.6555" fill="white" shape-rendering="crispEdges"/>
<line x1="46.8529" y1="106.914" x2="46.8529" y2="164.33" stroke="black" stroke-opacity="0.2" stroke-width="0.949743"/>
<line x1="46.8685" y1="85.4783" x2="46.8685" y2="134.617" stroke="#FFC200" stroke-width="0.949743"/>
<g clip-path="url(#clip0_753_2979)">
<circle cx="46.9989" cy="83.8892" r="6.6482" fill="white"/>
<path fill-rule="evenodd" clip-rule="evenodd" d="M41.3004 83.89C41.3004 82.3787 41.9007 80.9292 42.9694 79.8606C44.0381 78.7919 45.4875 78.1915 46.9988 78.1915C48.5101 78.1915 49.9596 78.7919 51.0282 79.8606C52.0969 80.9292 52.6973 82.3787 52.6973 83.89C52.6973 85.4013 52.0969 86.8507 51.0282 87.9194C49.9596 88.9881 48.5101 89.5884 46.9988 89.5884C45.4875 89.5884 44.0381 88.9881 42.9694 87.9194C41.9007 86.8507 41.3004 85.4013 41.3004 83.89ZM46.6736 86.3289L49.9544 82.2276L49.3618 81.7534L46.5642 85.2493L44.5827 83.5982L44.0964 84.1817L46.6736 86.3289Z" fill="#FFC200"/>
</g>
<path d="M60.7288 86.9147H59.8519L62.3881 80.0075H63.2515L65.7878 86.9147H64.9109L62.8468 81.1003H62.7929L60.7288 86.9147ZM61.0526 84.2166H64.5871V84.9586H61.0526V84.2166ZM66.7557 88.8574V81.7343H67.5247V82.5572H67.6192C67.6776 82.4673 67.7586 82.3526 67.862 82.2132C67.9677 82.0716 68.1183 81.9457 68.3139 81.8355C68.5118 81.7231 68.7793 81.6669 69.1166 81.6669C69.5528 81.6669 69.9373 81.7759 70.2701 81.994C70.6028 82.2121 70.8625 82.5213 71.0492 82.9215C71.2358 83.3217 71.3291 83.7939 71.3291 84.338C71.3291 84.8866 71.2358 85.3622 71.0492 85.7647C70.8625 86.1649 70.604 86.4752 70.2734 86.6955C69.9429 86.9136 69.5618 87.0227 69.1301 87.0227C68.7973 87.0227 68.5309 86.9676 68.3308 86.8574C68.1307 86.745 67.9767 86.6179 67.8687 86.4763C67.7608 86.3324 67.6776 86.2132 67.6192 86.1188H67.5517V88.8574H66.7557ZM67.5382 84.3245C67.5382 84.7158 67.5955 85.0609 67.7102 85.3599C67.8249 85.6567 67.9924 85.8894 68.2127 86.0581C68.4331 86.2245 68.7029 86.3077 69.0222 86.3077C69.355 86.3077 69.6326 86.22 69.8552 86.0446C70.0801 85.867 70.2487 85.6286 70.3611 85.3296C70.4758 85.0283 70.5331 84.6933 70.5331 84.3245C70.5331 83.9603 70.4769 83.632 70.3645 83.3397C70.2543 83.0452 70.0868 82.8124 69.862 82.6416C69.6394 82.4684 69.3594 82.3819 69.0222 82.3819C68.6984 82.3819 68.4263 82.4639 68.206 82.6281C67.9856 82.79 67.8193 83.0171 67.7068 83.3094C67.5944 83.5994 67.5382 83.9378 67.5382 84.3245ZM72.5432 88.8574V81.7343H73.3122V82.5572H73.4066C73.4651 82.4673 73.5461 82.3526 73.6495 82.2132C73.7552 82.0716 73.9058 81.9457 74.1014 81.8355C74.2993 81.7231 74.5668 81.6669 74.9041 81.6669C75.3403 81.6669 75.7248 81.7759 76.0576 81.994C76.3903 82.2121 76.65 82.5213 76.8366 82.9215C77.0233 83.3217 77.1166 83.7939 77.1166 84.338C77.1166 84.8866 77.0233 85.3622 76.8366 85.7647C76.65 86.1649 76.3915 86.4752 76.0609 86.6955C75.7304 86.9136 75.3493 87.0227 74.9176 87.0227C74.5848 87.0227 74.3184 86.9676 74.1183 86.8574C73.9182 86.745 73.7641 86.6179 73.6562 86.4763C73.5483 86.3324 73.4651 86.2132 73.4066 86.1188H73.3392V88.8574H72.5432ZM73.3257 84.3245C73.3257 84.7158 73.383 85.0609 73.4977 85.3599C73.6124 85.6567 73.7799 85.8894 74.0002 86.0581C74.2206 86.2245 74.4904 86.3077 74.8097 86.3077C75.1424 86.3077 75.4201 86.22 75.6427 86.0446C75.8676 85.867 76.0362 85.6286 76.1486 85.3296C76.2633 85.0283 76.3206 84.6933 76.3206 84.3245C76.3206 83.9603 76.2644 83.632 76.152 83.3397C76.0418 83.0452 75.8743 82.8124 75.6495 82.6416C75.4269 82.4684 75.1469 82.3819 74.8097 82.3819C74.4859 82.3819 74.2138 82.4639 73.9935 82.6281C73.7731 82.79 73.6068 83.0171 73.4943 83.3094C73.3819 83.5994 73.3257 83.9378 73.3257 84.3245ZM79.1267 80.0075V86.9147H78.3307V80.0075H79.1267ZM81.0972 88.8574C80.9623 88.8574 80.842 88.8461 80.7363 88.8237C80.6306 88.8034 80.5575 88.7832 80.5171 88.763L80.7194 88.0614C80.9128 88.1109 81.0837 88.1289 81.2321 88.1154C81.3805 88.1019 81.512 88.0356 81.6267 87.9164C81.7436 87.7995 81.8504 87.6095 81.9471 87.3464L82.0955 86.9417L80.1798 81.7343H81.0432L82.4732 85.8625H82.5272L83.9572 81.7343H84.8206L82.6216 87.6702C82.5227 87.9378 82.4001 88.1592 82.254 88.3346C82.1078 88.5123 81.9381 88.6438 81.7447 88.7292C81.5536 88.8147 81.3378 88.8574 81.0972 88.8574ZM88.5423 86.9147V81.7343H89.3383V86.9147H88.5423ZM88.947 80.8709C88.7919 80.8709 88.6581 80.8181 88.5457 80.7124C88.4355 80.6067 88.3804 80.4797 88.3804 80.3313C88.3804 80.1829 88.4355 80.0559 88.5457 79.9502C88.6581 79.8445 88.7919 79.7917 88.947 79.7917C89.1022 79.7917 89.2348 79.8445 89.345 79.9502C89.4574 80.0559 89.5137 80.1829 89.5137 80.3313C89.5137 80.4797 89.4574 80.6067 89.345 80.7124C89.2348 80.8181 89.1022 80.8709 88.947 80.8709ZM91.5921 83.7984V86.9147H90.7961V81.7343H91.5651V82.5438H91.6325C91.754 82.2807 91.9383 82.0693 92.1857 81.9097C92.433 81.7478 92.7523 81.6669 93.1435 81.6669C93.4942 81.6669 93.8012 81.7388 94.0642 81.8827C94.3273 82.0244 94.5319 82.2402 94.6781 82.5303C94.8242 82.8181 94.8973 83.1823 94.8973 83.623V86.9147H94.1013V83.677C94.1013 83.27 93.9956 82.953 93.7843 82.7259C93.5729 82.4965 93.2829 82.3819 92.9141 82.3819C92.6601 82.3819 92.433 82.437 92.2329 82.5471C92.035 82.6573 91.8787 82.8181 91.7641 83.0294C91.6494 83.2408 91.5921 83.4971 91.5921 83.7984ZM99.0229 86.9147V81.7343H99.7919V82.5438H99.8593C99.9672 82.2672 100.141 82.0525 100.382 81.8996C100.623 81.7444 100.912 81.6669 101.249 81.6669C101.591 81.6669 101.875 81.7444 102.102 81.8996C102.331 82.0525 102.51 82.2672 102.638 82.5438H102.692C102.825 82.2762 103.024 82.0637 103.289 81.9063C103.555 81.7467 103.873 81.6669 104.244 81.6669C104.707 81.6669 105.086 81.8119 105.38 82.1019C105.675 82.3897 105.822 82.8383 105.822 83.4476V86.9147H105.026V83.4476C105.026 83.0654 104.922 82.7922 104.713 82.6281C104.503 82.4639 104.257 82.3819 103.974 82.3819C103.61 82.3819 103.328 82.492 103.127 82.7124C102.927 82.9305 102.827 83.207 102.827 83.5421V86.9147H102.018V83.3667C102.018 83.0721 101.922 82.8349 101.731 82.6551C101.54 82.4729 101.294 82.3819 100.993 82.3819C100.786 82.3819 100.592 82.437 100.412 82.5471C100.235 82.6573 100.091 82.8102 99.9807 83.0058C99.8728 83.1992 99.8188 83.4229 99.8188 83.677V86.9147H99.0229ZM107.277 86.9147V81.7343H108.073V86.9147H107.277ZM107.682 80.8709C107.527 80.8709 107.393 80.8181 107.281 80.7124C107.171 80.6067 107.116 80.4797 107.116 80.3313C107.116 80.1829 107.171 80.0559 107.281 79.9502C107.393 79.8445 107.527 79.7917 107.682 79.7917C107.837 79.7917 107.97 79.8445 108.08 79.9502C108.193 80.0559 108.249 80.1829 108.249 80.3313C108.249 80.4797 108.193 80.6067 108.08 80.7124C107.97 80.8181 107.837 80.8709 107.682 80.8709ZM110.327 83.7984V86.9147H109.531V81.7343H110.3V82.5438H110.368C110.489 82.2807 110.673 82.0693 110.921 81.9097C111.168 81.7478 111.487 81.6669 111.879 81.6669C112.229 81.6669 112.536 81.7388 112.799 81.8827C113.062 82.0244 113.267 82.2402 113.413 82.5303C113.559 82.8181 113.632 83.1823 113.632 83.623V86.9147H112.836V83.677C112.836 83.27 112.731 82.953 112.519 82.7259C112.308 82.4965 112.018 82.3819 111.649 82.3819C111.395 82.3819 111.168 82.437 110.968 82.5471C110.77 82.6573 110.614 82.8181 110.499 83.0294C110.385 83.2408 110.327 83.4971 110.327 83.7984ZM118.352 84.7967V81.7343H119.148V86.9147H118.352V86.0378H118.298C118.176 86.3009 117.987 86.5246 117.731 86.709C117.475 86.8911 117.151 86.9822 116.76 86.9822C116.436 86.9822 116.148 86.9114 115.896 86.7697C115.645 86.6258 115.447 86.41 115.303 86.1222C115.159 85.8321 115.087 85.4667 115.087 85.026V81.7343H115.883V84.9721C115.883 85.3498 115.989 85.6511 116.2 85.876C116.413 86.1008 116.686 86.2132 117.016 86.2132C117.214 86.2132 117.415 86.1626 117.62 86.0614C117.827 85.9603 118 85.8051 118.139 85.596C118.281 85.3869 118.352 85.1205 118.352 84.7967ZM122.858 81.7343V82.4089H120.174V81.7343H122.858ZM120.956 80.4932H121.752V85.4308C121.752 85.6556 121.785 85.8242 121.85 85.9367C121.917 86.0468 122.003 86.121 122.106 86.1593C122.212 86.1952 122.323 86.2132 122.44 86.2132C122.528 86.2132 122.6 86.2087 122.656 86.1997C122.712 86.1885 122.757 86.1795 122.791 86.1727L122.953 86.8878C122.899 86.908 122.824 86.9282 122.727 86.9485C122.63 86.9709 122.508 86.9822 122.359 86.9822C122.134 86.9822 121.914 86.9338 121.698 86.8372C121.485 86.7405 121.307 86.5932 121.165 86.3953C121.026 86.1975 120.956 85.9479 120.956 85.6466V80.4932ZM126.172 87.0227C125.673 87.0227 125.242 86.9125 124.88 86.6921C124.521 86.4695 124.243 86.1593 124.047 85.7613C123.854 85.3611 123.757 84.8956 123.757 84.365C123.757 83.8344 123.854 83.3667 124.047 82.962C124.243 82.555 124.515 82.238 124.863 82.0109C125.214 81.7815 125.623 81.6669 126.091 81.6669C126.361 81.6669 126.627 81.7118 126.89 81.8018C127.153 81.8917 127.393 82.0379 127.609 82.2402C127.825 82.4403 127.997 82.7056 128.125 83.0362C128.253 83.3667 128.317 83.7737 128.317 84.2571V84.5943H124.324V83.9063H127.508C127.508 83.614 127.449 83.3532 127.332 83.1239C127.218 82.8945 127.053 82.7135 126.84 82.5809C126.628 82.4482 126.379 82.3819 126.091 82.3819C125.774 82.3819 125.5 82.4606 125.268 82.618C125.039 82.7731 124.862 82.9755 124.739 83.225C124.615 83.4746 124.553 83.7422 124.553 84.0277V84.4864C124.553 84.8776 124.621 85.2093 124.755 85.4814C124.893 85.7512 125.083 85.9569 125.325 86.0985C125.568 86.238 125.85 86.3077 126.172 86.3077C126.381 86.3077 126.57 86.2784 126.739 86.22C126.909 86.1593 127.057 86.0693 127.18 85.9502C127.304 85.8287 127.4 85.6781 127.467 85.4982L128.236 85.7141C128.155 85.9749 128.019 86.2042 127.828 86.4021C127.637 86.5977 127.401 86.7506 127.12 86.8608C126.839 86.9687 126.523 87.0227 126.172 87.0227ZM133.197 82.8945L132.482 83.0969C132.437 82.9777 132.371 82.8619 132.283 82.7495C132.198 82.6348 132.081 82.5404 131.933 82.4662C131.784 82.392 131.594 82.3549 131.363 82.3549C131.046 82.3549 130.781 82.428 130.57 82.5741C130.361 82.718 130.256 82.9013 130.256 83.1239C130.256 83.3217 130.328 83.478 130.472 83.5927C130.616 83.7073 130.841 83.8029 131.147 83.8793L131.916 84.0682C132.379 84.1806 132.724 84.3526 132.951 84.5842C133.178 84.8136 133.292 85.1092 133.292 85.4712C133.292 85.768 133.206 86.0333 133.035 86.2672C132.867 86.501 132.631 86.6854 132.327 86.8203C132.024 86.9552 131.671 87.0227 131.268 87.0227C130.74 87.0227 130.302 86.908 129.956 86.6786C129.61 86.4493 129.391 86.1143 129.298 85.6736L130.054 85.4847C130.126 85.7635 130.262 85.9726 130.462 86.112C130.664 86.2514 130.929 86.3211 131.255 86.3211C131.626 86.3211 131.92 86.2424 132.138 86.0851C132.359 85.9254 132.469 85.7343 132.469 85.5117C132.469 85.3318 132.406 85.1812 132.28 85.0598C132.154 84.9361 131.961 84.8439 131.7 84.7832L130.836 84.5808C130.362 84.4684 130.013 84.2942 129.791 84.0581C129.571 83.8198 129.46 83.5218 129.46 83.1643C129.46 82.872 129.542 82.6135 129.707 82.3886C129.873 82.1638 130.099 81.9873 130.384 81.8591C130.672 81.7309 130.998 81.6669 131.363 81.6669C131.875 81.6669 132.278 81.7793 132.57 82.0041C132.865 82.229 133.074 82.5258 133.197 82.8945Z" fill="black" fill-opacity="0.6"/>
<circle cx="46.999" cy="109.795" r="7.12307" fill="white" stroke="#FFC200" stroke-width="0.949743"/>
<circle cx="46.9988" cy="109.795" r="5.69846" fill="#FFC200"/>
<circle cx="46.9985" cy="109.795" r="2.84923" fill="white"/>
<path d="M64.9939 108.287C64.9624 107.993 64.8298 107.763 64.5959 107.599C64.3643 107.435 64.063 107.353 63.692 107.353C63.4312 107.353 63.2075 107.392 63.0209 107.471C62.8343 107.55 62.6915 107.657 62.5926 107.792C62.4936 107.926 62.443 108.08 62.4408 108.254C62.4408 108.397 62.4734 108.522 62.5386 108.628C62.606 108.734 62.6971 108.824 62.8118 108.898C62.9264 108.97 63.0535 109.03 63.1929 109.08C63.3323 109.129 63.4728 109.171 63.6145 109.205L64.262 109.367C64.5228 109.427 64.7735 109.509 65.0141 109.613C65.257 109.716 65.4739 109.847 65.6651 110.004C65.8584 110.161 66.0113 110.351 66.1237 110.574C66.2362 110.797 66.2924 111.057 66.2924 111.356C66.2924 111.761 66.1889 112.118 65.9821 112.426C65.7752 112.731 65.4762 112.971 65.085 113.144C64.696 113.315 64.2249 113.4 63.6718 113.4C63.1344 113.4 62.6679 113.317 62.2722 113.151C61.8787 112.984 61.5706 112.741 61.348 112.422C61.1277 112.103 61.0085 111.714 60.9905 111.255H62.2216C62.2395 111.496 62.3137 111.696 62.4442 111.856C62.5746 112.015 62.7443 112.134 62.9534 112.213C63.1648 112.292 63.4009 112.331 63.6617 112.331C63.9338 112.331 64.1721 112.291 64.3767 112.21C64.5836 112.127 64.7454 112.012 64.8624 111.866C64.9793 111.717 65.0389 111.544 65.0411 111.346C65.0389 111.166 64.986 111.018 64.8826 110.901C64.7792 110.782 64.6341 110.683 64.4475 110.604C64.2631 110.523 64.0473 110.451 63.8 110.388L63.0141 110.186C62.4453 110.04 61.9956 109.818 61.6651 109.522C61.3368 109.223 61.1727 108.826 61.1727 108.331C61.1727 107.924 61.2828 107.568 61.5032 107.262C61.7258 106.956 62.0282 106.719 62.4104 106.55C62.7927 106.38 63.2255 106.294 63.7089 106.294C64.1991 106.294 64.6285 106.38 64.9973 106.55C65.3683 106.719 65.6594 106.954 65.8708 107.255C66.0821 107.554 66.1912 107.898 66.1979 108.287H64.9939ZM68.4669 111.67L68.4635 110.196H68.6591L70.5209 108.115H71.9475L69.6574 110.665H69.4045L68.4669 111.67ZM67.3539 113.296V106.388H68.5748V113.296H67.3539ZM70.6052 113.296L68.9188 110.938L69.7418 110.078L72.0655 113.296H70.6052ZM72.7611 113.296V108.115H73.982V113.296H72.7611ZM73.375 107.38C73.1816 107.38 73.0152 107.316 72.8758 107.188C72.7364 107.057 72.6667 106.901 72.6667 106.719C72.6667 106.535 72.7364 106.378 72.8758 106.25C73.0152 106.12 73.1816 106.055 73.375 106.055C73.5706 106.055 73.737 106.12 73.8741 106.25C74.0135 106.378 74.0832 106.535 74.0832 106.719C74.0832 106.901 74.0135 107.057 73.8741 107.188C73.737 107.316 73.5706 107.38 73.375 107.38ZM75.2375 115.238V108.115H76.4382V108.972H76.509C76.572 108.846 76.6608 108.712 76.7755 108.571C76.8901 108.427 77.0453 108.304 77.2409 108.203C77.4365 108.1 77.6861 108.048 77.9896 108.048C78.3898 108.048 78.7507 108.15 79.0722 108.355C79.396 108.557 79.6523 108.857 79.8412 109.255C80.0323 109.651 80.1279 110.137 80.1279 110.712C80.1279 111.281 80.0346 111.765 79.848 112.162C79.6613 112.56 79.4073 112.864 79.0857 113.073C78.7642 113.282 78.4 113.387 77.993 113.387C77.6962 113.387 77.45 113.337 77.2544 113.238C77.0588 113.139 76.9014 113.02 76.7822 112.881C76.6653 112.739 76.5742 112.605 76.509 112.48H76.4584V115.238H75.2375ZM76.4348 110.706C76.4348 111.041 76.482 111.334 76.5765 111.586C76.6732 111.838 76.8114 112.034 76.9913 112.176C77.1734 112.315 77.3938 112.385 77.6524 112.385C77.9222 112.385 78.1481 112.313 78.3303 112.169C78.5124 112.023 78.6495 111.824 78.7417 111.572C78.8362 111.318 78.8834 111.029 78.8834 110.706C78.8834 110.384 78.8373 110.098 78.7451 109.849C78.6529 109.599 78.5158 109.404 78.3336 109.262C78.1515 109.12 77.9244 109.05 77.6524 109.05C77.3915 109.05 77.1701 109.118 76.9879 109.255C76.8058 109.392 76.6675 109.585 76.5731 109.832C76.4809 110.079 76.4348 110.37 76.4348 110.706ZM86.1161 108.115V109.06H83.138V108.115H86.1161ZM83.8732 106.874H85.0941V111.738C85.0941 111.902 85.1189 112.028 85.1683 112.115C85.2201 112.201 85.2875 112.259 85.3707 112.291C85.4539 112.322 85.5461 112.338 85.6473 112.338C85.7237 112.338 85.7934 112.332 85.8564 112.321C85.9216 112.31 85.971 112.3 86.0048 112.291L86.2105 113.245C86.1453 113.268 86.052 113.292 85.9306 113.319C85.8114 113.346 85.6652 113.362 85.4921 113.367C85.1863 113.376 84.9109 113.329 84.6658 113.228C84.4207 113.125 84.2262 112.965 84.0823 112.749C83.9407 112.533 83.871 112.264 83.8732 111.94V106.874ZM88.4693 110.26V113.296H87.2484V106.388H88.4424V108.996H88.5031C88.6245 108.703 88.8122 108.473 89.0663 108.304C89.3226 108.133 89.6486 108.048 90.0444 108.048C90.4041 108.048 90.7178 108.123 90.9853 108.274C91.2529 108.424 91.4598 108.645 91.6059 108.935C91.7543 109.225 91.8285 109.579 91.8285 109.997V113.296H90.6076V110.186C90.6076 109.838 90.5177 109.567 90.3378 109.373C90.1602 109.178 89.9106 109.08 89.5891 109.08C89.3732 109.08 89.1798 109.127 89.009 109.222C88.8403 109.314 88.7077 109.448 88.611 109.623C88.5166 109.798 88.4693 110.011 88.4693 110.26ZM95.3664 113.397C94.847 113.397 94.3985 113.289 94.0207 113.073C93.6453 112.855 93.3563 112.547 93.154 112.149C92.9516 111.749 92.8504 111.278 92.8504 110.736C92.8504 110.203 92.9516 109.735 93.154 109.333C93.3586 108.928 93.6441 108.613 94.0106 108.388C94.3771 108.161 94.8077 108.048 95.3024 108.048C95.6216 108.048 95.9229 108.1 96.2062 108.203C96.4918 108.304 96.7436 108.462 96.9617 108.675C97.1821 108.889 97.3552 109.161 97.4811 109.491C97.607 109.82 97.67 110.211 97.67 110.665V111.039H93.4238V110.216H96.4997C96.4974 109.983 96.4468 109.775 96.3479 109.593C96.249 109.408 96.1107 109.263 95.933 109.157C95.7577 109.052 95.5531 108.999 95.3192 108.999C95.0696 108.999 94.8504 109.06 94.6616 109.181C94.4727 109.3 94.3254 109.458 94.2197 109.653C94.1163 109.847 94.0635 110.059 94.0612 110.291V111.009C94.0612 111.31 94.1163 111.569 94.2265 111.785C94.3367 111.998 94.4907 112.162 94.6885 112.277C94.8864 112.39 95.118 112.446 95.3833 112.446C95.5609 112.446 95.7217 112.421 95.8656 112.372C96.0095 112.32 96.1343 112.245 96.24 112.146C96.3456 112.047 96.4255 111.924 96.4794 111.778L97.6194 111.906C97.5474 112.207 97.4103 112.471 97.2079 112.695C97.0078 112.918 96.7515 113.091 96.4389 113.215C96.1264 113.336 95.7689 113.397 95.3664 113.397ZM104.866 108.287C104.835 107.993 104.702 107.763 104.468 107.599C104.237 107.435 103.936 107.353 103.565 107.353C103.304 107.353 103.08 107.392 102.893 107.471C102.707 107.55 102.564 107.657 102.465 107.792C102.366 107.926 102.316 108.08 102.313 108.254C102.313 108.397 102.346 108.522 102.411 108.628C102.479 108.734 102.57 108.824 102.684 108.898C102.799 108.97 102.926 109.03 103.065 109.08C103.205 109.129 103.345 109.171 103.487 109.205L104.135 109.367C104.395 109.427 104.646 109.509 104.887 109.613C105.129 109.716 105.346 109.847 105.538 110.004C105.731 110.161 105.884 110.351 105.996 110.574C106.109 110.797 106.165 111.057 106.165 111.356C106.165 111.761 106.061 112.118 105.855 112.426C105.648 112.731 105.349 112.971 104.957 113.144C104.568 113.315 104.097 113.4 103.544 113.4C103.007 113.4 102.54 113.317 102.145 113.151C101.751 112.984 101.443 112.741 101.221 112.422C101 112.103 100.881 111.714 100.863 111.255H102.094C102.112 111.496 102.186 111.696 102.317 111.856C102.447 112.015 102.617 112.134 102.826 112.213C103.037 112.292 103.273 112.331 103.534 112.331C103.806 112.331 104.045 112.291 104.249 112.21C104.456 112.127 104.618 112.012 104.735 111.866C104.852 111.717 104.911 111.544 104.914 111.346C104.911 111.166 104.859 111.018 104.755 110.901C104.652 110.782 104.507 110.683 104.32 110.604C104.136 110.523 103.92 110.451 103.672 110.388L102.887 110.186C102.318 110.04 101.868 109.818 101.538 109.522C101.209 109.223 101.045 108.826 101.045 108.331C101.045 107.924 101.155 107.568 101.376 107.262C101.598 106.956 101.901 106.719 102.283 106.55C102.665 106.38 103.098 106.294 103.581 106.294C104.072 106.294 104.501 106.38 104.87 106.55C105.241 106.719 105.532 106.954 105.743 107.255C105.955 107.554 106.064 107.898 106.07 108.287H104.866ZM109.813 108.115V109.06H106.835V108.115H109.813ZM107.57 106.874H108.791V111.738C108.791 111.902 108.816 112.028 108.866 112.115C108.917 112.201 108.985 112.259 109.068 112.291C109.151 112.322 109.243 112.338 109.344 112.338C109.421 112.338 109.491 112.332 109.554 112.321C109.619 112.31 109.668 112.3 109.702 112.291L109.908 113.245C109.842 113.268 109.749 113.292 109.628 113.319C109.509 113.346 109.362 113.362 109.189 113.367C108.884 113.376 108.608 113.329 108.363 113.228C108.118 113.125 107.923 112.965 107.78 112.749C107.638 112.533 107.568 112.264 107.57 111.94V106.874ZM110.834 113.296V108.115H112.018V108.979H112.072C112.167 108.68 112.328 108.449 112.558 108.287C112.789 108.123 113.054 108.041 113.35 108.041C113.418 108.041 113.493 108.044 113.576 108.051C113.662 108.056 113.733 108.064 113.789 108.075V109.198C113.737 109.18 113.655 109.164 113.543 109.151C113.432 109.135 113.326 109.127 113.222 109.127C113 109.127 112.799 109.175 112.622 109.272C112.446 109.367 112.308 109.498 112.207 109.667C112.106 109.835 112.055 110.03 112.055 110.25V113.296H110.834ZM116.68 113.397C116.161 113.397 115.712 113.289 115.334 113.073C114.959 112.855 114.67 112.547 114.468 112.149C114.265 111.749 114.164 111.278 114.164 110.736C114.164 110.203 114.265 109.735 114.468 109.333C114.672 108.928 114.958 108.613 115.324 108.388C115.691 108.161 116.121 108.048 116.616 108.048C116.935 108.048 117.236 108.1 117.52 108.203C117.805 108.304 118.057 108.462 118.275 108.675C118.496 108.889 118.669 109.161 118.795 109.491C118.921 109.82 118.984 110.211 118.984 110.665V111.039H114.737V110.216H117.813C117.811 109.983 117.76 109.775 117.661 109.593C117.563 109.408 117.424 109.263 117.247 109.157C117.071 109.052 116.867 108.999 116.633 108.999C116.383 108.999 116.164 109.06 115.975 109.181C115.786 109.3 115.639 109.458 115.533 109.653C115.43 109.847 115.377 110.059 115.375 110.291V111.009C115.375 111.31 115.43 111.569 115.54 111.785C115.65 111.998 115.804 112.162 116.002 112.277C116.2 112.39 116.432 112.446 116.697 112.446C116.874 112.446 117.035 112.421 117.179 112.372C117.323 112.32 117.448 112.245 117.554 112.146C117.659 112.047 117.739 111.924 117.793 111.778L118.933 111.906C118.861 112.207 118.724 112.471 118.521 112.695C118.321 112.918 118.065 113.091 117.753 113.215C117.44 113.336 117.082 113.397 116.68 113.397ZM124.111 109.485L122.998 109.606C122.966 109.494 122.911 109.388 122.833 109.289C122.756 109.19 122.653 109.11 122.522 109.05C122.392 108.989 122.232 108.958 122.043 108.958C121.789 108.958 121.576 109.014 121.403 109.124C121.232 109.234 121.147 109.377 121.15 109.552C121.147 109.703 121.202 109.825 121.315 109.92C121.43 110.014 121.618 110.092 121.881 110.152L122.765 110.341C123.255 110.447 123.62 110.614 123.858 110.844C124.098 111.073 124.22 111.373 124.222 111.744C124.22 112.07 124.124 112.358 123.935 112.608C123.749 112.855 123.489 113.048 123.156 113.188C122.824 113.327 122.441 113.397 122.01 113.397C121.376 113.397 120.865 113.264 120.478 112.999C120.092 112.731 119.861 112.359 119.787 111.883L120.978 111.768C121.032 112.002 121.146 112.178 121.322 112.297C121.497 112.417 121.725 112.476 122.006 112.476C122.296 112.476 122.529 112.417 122.704 112.297C122.882 112.178 122.971 112.031 122.971 111.856C122.971 111.707 122.914 111.585 122.799 111.488C122.686 111.391 122.511 111.317 122.273 111.265L121.389 111.08C120.892 110.976 120.525 110.802 120.286 110.557C120.048 110.31 119.93 109.997 119.932 109.62C119.93 109.3 120.016 109.024 120.192 108.79C120.369 108.554 120.616 108.372 120.93 108.243C121.247 108.113 121.613 108.048 122.027 108.048C122.634 108.048 123.111 108.177 123.46 108.436C123.811 108.694 124.028 109.044 124.111 109.485ZM129.323 109.485L128.21 109.606C128.179 109.494 128.124 109.388 128.045 109.289C127.969 109.19 127.865 109.11 127.735 109.05C127.604 108.989 127.445 108.958 127.256 108.958C127.002 108.958 126.788 109.014 126.615 109.124C126.444 109.234 126.36 109.377 126.362 109.552C126.36 109.703 126.415 109.825 126.527 109.92C126.642 110.014 126.831 110.092 127.094 110.152L127.978 110.341C128.468 110.447 128.832 110.614 129.07 110.844C129.311 111.073 129.432 111.373 129.435 111.744C129.432 112.07 129.337 112.358 129.148 112.608C128.961 112.855 128.702 113.048 128.369 113.188C128.036 113.327 127.654 113.397 127.222 113.397C126.588 113.397 126.078 113.264 125.691 112.999C125.304 112.731 125.074 112.359 125 111.883L126.19 111.768C126.244 112.002 126.359 112.178 126.534 112.297C126.709 112.417 126.938 112.476 127.219 112.476C127.509 112.476 127.742 112.417 127.917 112.297C128.095 112.178 128.183 112.031 128.183 111.856C128.183 111.707 128.126 111.585 128.011 111.488C127.899 111.391 127.724 111.317 127.485 111.265L126.602 111.08C126.105 110.976 125.737 110.802 125.499 110.557C125.26 110.31 125.142 109.997 125.145 109.62C125.142 109.3 125.229 109.024 125.404 108.79C125.582 108.554 125.828 108.372 126.143 108.243C126.46 108.113 126.825 108.048 127.239 108.048C127.846 108.048 128.324 108.177 128.672 108.436C129.023 108.694 129.24 109.044 129.323 109.485Z" fill="black" fill-opacity="0.8"/>
<circle cx="46.9989" cy="136.651" r="6.6482" fill="white"/>
<circle cx="46.9988" cy="136.652" r="5.69846" fill="white"/>
<circle cx="46.9988" cy="136.652" r="5.46102" stroke="black" stroke-opacity="0.3" stroke-width="0.474871"/>
<circle cx="46.9985" cy="136.652" r="2.84923" fill="black" fill-opacity="0.2"/>
<path d="M60.8017 133.244H61.7595L63.6752 136.469H63.7561L65.6718 133.244H66.6296L64.1339 137.305V140.151H63.2974V137.305L60.8017 133.244ZM68.9753 140.259C68.5077 140.259 68.0973 140.148 67.7443 139.926C67.3935 139.703 67.1192 139.392 66.9214 138.991C66.7258 138.591 66.628 138.123 66.628 137.588C66.628 137.049 66.7258 136.578 66.9214 136.175C67.1192 135.773 67.3935 135.46 67.7443 135.238C68.0973 135.015 68.5077 134.904 68.9753 134.904C69.443 134.904 69.8522 135.015 70.203 135.238C70.556 135.46 70.8303 135.773 71.0259 136.175C71.2238 136.578 71.3227 137.049 71.3227 137.588C71.3227 138.123 71.2238 138.591 71.0259 138.991C70.8303 139.392 70.556 139.703 70.203 139.926C69.8522 140.148 69.443 140.259 68.9753 140.259ZM68.9753 139.544C69.3306 139.544 69.6229 139.453 69.8522 139.271C70.0816 139.089 70.2513 138.85 70.3615 138.553C70.4717 138.256 70.5268 137.935 70.5268 137.588C70.5268 137.242 70.4717 136.919 70.3615 136.62C70.2513 136.321 70.0816 136.08 69.8522 135.895C69.6229 135.711 69.3306 135.619 68.9753 135.619C68.6201 135.619 68.3278 135.711 68.0984 135.895C67.8691 136.08 67.6993 136.321 67.5892 136.62C67.479 136.919 67.4239 137.242 67.4239 137.588C67.4239 137.935 67.479 138.256 67.5892 138.553C67.6993 138.85 67.8691 139.089 68.0984 139.271C68.3278 139.453 68.6201 139.544 68.9753 139.544ZM75.8024 138.033V134.971H76.5984V140.151H75.8024V139.275H75.7485C75.6271 139.538 75.4382 139.761 75.1819 139.946C74.9256 140.128 74.6018 140.219 74.2105 140.219C73.8868 140.219 73.599 140.148 73.3471 140.006C73.0953 139.863 72.8975 139.647 72.7536 139.359C72.6097 139.069 72.5377 138.703 72.5377 138.263V134.971H73.3337V138.209C73.3337 138.587 73.4393 138.888 73.6507 139.113C73.8643 139.338 74.1363 139.45 74.4669 139.45C74.6647 139.45 74.866 139.399 75.0706 139.298C75.2774 139.197 75.4506 139.042 75.59 138.833C75.7316 138.624 75.8024 138.357 75.8024 138.033ZM78.0562 140.151V134.971H78.8252V135.754H78.8792C78.9736 135.497 79.1445 135.289 79.3918 135.13C79.6391 134.97 79.9179 134.89 80.2282 134.89C80.2867 134.89 80.3598 134.891 80.4475 134.894C80.5351 134.896 80.6015 134.899 80.6464 134.904V135.713C80.6195 135.706 80.5576 135.696 80.4609 135.683C80.3665 135.667 80.2665 135.659 80.1608 135.659C79.9089 135.659 79.6841 135.712 79.4862 135.818C79.2906 135.921 79.1355 136.065 79.0208 136.249C78.9084 136.431 78.8522 136.639 78.8522 136.873V140.151H78.0562ZM84.369 140.151V133.244H86.7029C87.2448 133.244 87.6877 133.342 88.0317 133.538C88.378 133.731 88.6343 133.993 88.8007 134.324C88.9671 134.654 89.0503 135.023 89.0503 135.43C89.0503 135.837 88.9671 136.207 88.8007 136.539C88.6366 136.872 88.3825 137.137 88.0385 137.335C87.6945 137.531 87.2538 137.629 86.7164 137.629H85.0436V136.887H86.6894C87.0604 136.887 87.3583 136.823 87.5832 136.695C87.808 136.566 87.971 136.393 88.0722 136.175C88.1756 135.955 88.2273 135.706 88.2273 135.43C88.2273 135.153 88.1756 134.906 88.0722 134.688C87.971 134.47 87.8069 134.299 87.5798 134.175C87.3527 134.049 87.0514 133.986 86.6759 133.986H85.2054V140.151H84.369ZM91.8142 140.273C91.4859 140.273 91.188 140.211 90.9204 140.087C90.6529 139.961 90.4404 139.78 90.283 139.544C90.1256 139.306 90.0469 139.018 90.0469 138.681C90.0469 138.384 90.1054 138.144 90.2223 137.959C90.3392 137.773 90.4955 137.626 90.6911 137.521C90.8867 137.415 91.1025 137.336 91.3386 137.285C91.577 137.231 91.8164 137.188 92.057 137.157C92.3718 137.116 92.627 137.086 92.8226 137.065C93.0205 137.043 93.1644 137.006 93.2543 136.954C93.3465 136.902 93.3926 136.813 93.3926 136.684V136.657C93.3926 136.325 93.3015 136.066 93.1194 135.882C92.9395 135.697 92.6663 135.605 92.2998 135.605C91.9199 135.605 91.6219 135.688 91.4061 135.855C91.1902 136.021 91.0385 136.199 90.9508 136.388L90.1953 136.118C90.3302 135.803 90.5101 135.558 90.7349 135.383C90.962 135.205 91.2093 135.081 91.4769 135.012C91.7467 134.94 92.012 134.904 92.2729 134.904C92.4392 134.904 92.6304 134.924 92.8462 134.964C93.0643 135.003 93.2745 135.082 93.4769 135.204C93.6815 135.325 93.8513 135.508 93.9862 135.754C94.1211 135.999 94.1885 136.327 94.1885 136.738V140.151H93.3926V139.45H93.3521C93.2982 139.562 93.2082 139.683 93.0823 139.811C92.9564 139.939 92.7889 140.048 92.5798 140.138C92.3707 140.228 92.1155 140.273 91.8142 140.273ZM91.9356 139.558C92.2504 139.558 92.5157 139.496 92.7315 139.372C92.9496 139.249 93.1138 139.089 93.224 138.893C93.3364 138.698 93.3926 138.492 93.3926 138.276V137.548C93.3589 137.588 93.2847 137.625 93.17 137.659C93.0576 137.691 92.9272 137.719 92.7788 137.743C92.6326 137.766 92.4898 137.786 92.3504 137.804C92.2133 137.82 92.102 137.833 92.0165 137.845C91.8097 137.872 91.6163 137.915 91.4364 137.976C91.2588 138.035 91.1149 138.123 91.0047 138.243C90.8968 138.359 90.8429 138.519 90.8429 138.721C90.8429 138.998 90.9452 139.207 91.1498 139.349C91.3566 139.488 91.6186 139.558 91.9356 139.558ZM99.3108 136.131L98.5958 136.334C98.5508 136.214 98.4845 136.099 98.3968 135.986C98.3113 135.872 98.1944 135.777 98.046 135.703C97.8976 135.629 97.7076 135.592 97.476 135.592C97.159 135.592 96.8948 135.665 96.6835 135.811C96.4744 135.955 96.3698 136.138 96.3698 136.361C96.3698 136.558 96.4418 136.715 96.5857 136.829C96.7296 136.944 96.9544 137.04 97.2602 137.116L98.0292 137.305C98.4923 137.417 98.8375 137.589 99.0646 137.821C99.2917 138.05 99.4052 138.346 99.4052 138.708C99.4052 139.005 99.3198 139.27 99.1489 139.504C98.9803 139.738 98.7442 139.922 98.4406 140.057C98.1371 140.192 97.7841 140.259 97.3816 140.259C96.8532 140.259 96.4159 140.145 96.0696 139.915C95.7234 139.686 95.5042 139.351 95.412 138.91L96.1674 138.721C96.2394 139 96.3754 139.209 96.5755 139.349C96.7779 139.488 97.0421 139.558 97.3681 139.558C97.7391 139.558 98.0337 139.479 98.2518 139.322C98.4721 139.162 98.5823 138.971 98.5823 138.748C98.5823 138.569 98.5193 138.418 98.3934 138.297C98.2675 138.173 98.0741 138.081 97.8133 138.02L96.9499 137.818C96.4755 137.705 96.127 137.531 95.9044 137.295C95.684 137.057 95.5739 136.759 95.5739 136.401C95.5739 136.109 95.6559 135.85 95.8201 135.625C95.9864 135.401 96.2124 135.224 96.498 135.096C96.7858 134.968 97.1118 134.904 97.476 134.904C97.9887 134.904 98.3912 135.016 98.6835 135.241C98.978 135.466 99.1871 135.763 99.3108 136.131ZM104.273 136.131L103.558 136.334C103.513 136.214 103.447 136.099 103.359 135.986C103.273 135.872 103.156 135.777 103.008 135.703C102.86 135.629 102.67 135.592 102.438 135.592C102.121 135.592 101.857 135.665 101.646 135.811C101.436 135.955 101.332 136.138 101.332 136.361C101.332 136.558 101.404 136.715 101.548 136.829C101.692 136.944 101.916 137.04 102.222 137.116L102.991 137.305C103.454 137.417 103.8 137.589 104.027 137.821C104.254 138.05 104.367 138.346 104.367 138.708C104.367 139.005 104.282 139.27 104.111 139.504C103.942 139.738 103.706 139.922 103.403 140.057C103.099 140.192 102.746 140.259 102.344 140.259C101.815 140.259 101.378 140.145 101.032 139.915C100.685 139.686 100.466 139.351 100.374 138.91L101.129 138.721C101.201 139 101.337 139.209 101.538 139.349C101.74 139.488 102.004 139.558 102.33 139.558C102.701 139.558 102.996 139.479 103.214 139.322C103.434 139.162 103.544 138.971 103.544 138.748C103.544 138.569 103.481 138.418 103.355 138.297C103.23 138.173 103.036 138.081 102.775 138.02L101.912 137.818C101.438 137.705 101.089 137.531 100.866 137.295C100.646 137.057 100.536 136.759 100.536 136.401C100.536 136.109 100.618 135.85 100.782 135.625C100.948 135.401 101.174 135.224 101.46 135.096C101.748 134.968 102.074 134.904 102.438 134.904C102.951 134.904 103.353 135.016 103.645 135.241C103.94 135.466 104.149 135.763 104.273 136.131ZM105.565 142.094V134.971H106.334V135.794H106.429C106.487 135.704 106.568 135.589 106.672 135.45C106.777 135.308 106.928 135.182 107.124 135.072C107.321 134.96 107.589 134.904 107.926 134.904C108.362 134.904 108.747 135.013 109.08 135.231C109.412 135.449 109.672 135.758 109.859 136.158C110.045 136.558 110.139 137.031 110.139 137.575C110.139 138.123 110.045 138.599 109.859 139.001C109.672 139.402 109.414 139.712 109.083 139.932C108.753 140.15 108.371 140.259 107.94 140.259C107.607 140.259 107.341 140.204 107.14 140.094C106.94 139.982 106.786 139.855 106.678 139.713C106.57 139.569 106.487 139.45 106.429 139.356H106.361V142.094H105.565ZM106.348 137.561C106.348 137.953 106.405 138.298 106.52 138.597C106.635 138.893 106.802 139.126 107.022 139.295C107.243 139.461 107.513 139.544 107.832 139.544C108.165 139.544 108.442 139.457 108.665 139.281C108.89 139.104 109.058 138.865 109.171 138.566C109.285 138.265 109.343 137.93 109.343 137.561C109.343 137.197 109.287 136.869 109.174 136.576C109.064 136.282 108.896 136.049 108.672 135.878C108.449 135.705 108.169 135.619 107.832 135.619C107.508 135.619 107.236 135.701 107.016 135.865C106.795 136.027 106.629 136.254 106.516 136.546C106.404 136.836 106.348 137.175 106.348 137.561ZM113.457 140.259C112.99 140.259 112.579 140.148 112.226 139.926C111.876 139.703 111.601 139.392 111.403 138.991C111.208 138.591 111.11 138.123 111.11 137.588C111.11 137.049 111.208 136.578 111.403 136.175C111.601 135.773 111.876 135.46 112.226 135.238C112.579 135.015 112.99 134.904 113.457 134.904C113.925 134.904 114.334 135.015 114.685 135.238C115.038 135.46 115.312 135.773 115.508 136.175C115.706 136.578 115.805 137.049 115.805 137.588C115.805 138.123 115.706 138.591 115.508 138.991C115.312 139.392 115.038 139.703 114.685 139.926C114.334 140.148 113.925 140.259 113.457 140.259ZM113.457 139.544C113.813 139.544 114.105 139.453 114.334 139.271C114.564 139.089 114.733 138.85 114.844 138.553C114.954 138.256 115.009 137.935 115.009 137.588C115.009 137.242 114.954 136.919 114.844 136.62C114.733 136.321 114.564 136.08 114.334 135.895C114.105 135.711 113.813 135.619 113.457 135.619C113.102 135.619 112.81 135.711 112.581 135.895C112.351 136.08 112.181 136.321 112.071 136.62C111.961 136.919 111.906 137.242 111.906 137.588C111.906 137.935 111.961 138.256 112.071 138.553C112.181 138.85 112.351 139.089 112.581 139.271C112.81 139.453 113.102 139.544 113.457 139.544ZM117.02 140.151V134.971H117.789V135.754H117.843C117.937 135.497 118.108 135.289 118.355 135.13C118.603 134.97 118.882 134.89 119.192 134.89C119.25 134.89 119.323 134.891 119.411 134.894C119.499 134.896 119.565 134.899 119.61 134.904V135.713C119.583 135.706 119.521 135.696 119.425 135.683C119.33 135.667 119.23 135.659 119.124 135.659C118.873 135.659 118.648 135.712 118.45 135.818C118.254 135.921 118.099 136.065 117.984 136.249C117.872 136.431 117.816 136.639 117.816 136.873V140.151H117.02ZM123.131 134.971V135.646H120.446V134.971H123.131ZM121.229 133.73H122.025V138.668C122.025 138.892 122.057 139.061 122.123 139.173C122.19 139.284 122.276 139.358 122.379 139.396C122.485 139.432 122.596 139.45 122.713 139.45C122.801 139.45 122.873 139.445 122.929 139.436C122.985 139.425 123.03 139.416 123.064 139.41L123.226 140.125C123.172 140.145 123.096 140.165 123 140.185C122.903 140.208 122.78 140.219 122.632 140.219C122.407 140.219 122.187 140.171 121.971 140.074C121.757 139.977 121.58 139.83 121.438 139.632C121.299 139.434 121.229 139.185 121.229 138.883V133.73Z" fill="black" fill-opacity="0.6"/>
<circle cx="46.9989" cy="163.507" r="6.6482" fill="white"/>
<circle cx="46.9988" cy="163.507" r="5.69846" fill="white"/>
<circle cx="46.9988" cy="163.507" r="5.46102" stroke="black" stroke-opacity="0.3" stroke-width="0.474871"/>
<circle cx="46.9985" cy="163.506" r="2.84923" fill="black" fill-opacity="0.2"/>
<path d="M63.5268 167.007H61.3953V160.1H63.6212C64.2913 160.1 64.8646 160.238 65.3413 160.515C65.8179 160.789 66.1833 161.184 66.4374 161.699C66.6915 162.211 66.8185 162.825 66.8185 163.54C66.8185 164.26 66.6903 164.879 66.434 165.399C66.1777 165.916 65.8045 166.314 65.3143 166.592C64.8241 166.869 64.2283 167.007 63.5268 167.007ZM62.2317 166.265H63.4728C64.0439 166.265 64.5172 166.155 64.8927 165.935C65.2682 165.714 65.5481 165.401 65.7325 164.994C65.9169 164.587 66.0091 164.102 66.0091 163.54C66.0091 162.983 65.918 162.503 65.7359 162.1C65.5538 161.695 65.2817 161.385 64.9197 161.169C64.5577 160.951 64.1069 160.842 63.5673 160.842H62.2317V166.265ZM70.2182 167.115C69.7505 167.115 69.3401 167.004 68.9871 166.781C68.6364 166.559 68.3621 166.247 68.1642 165.847C67.9686 165.447 67.8708 164.979 67.8708 164.444C67.8708 163.904 67.9686 163.433 68.1642 163.031C68.3621 162.628 68.6364 162.316 68.9871 162.093C69.3401 161.871 69.7505 161.759 70.2182 161.759C70.6858 161.759 71.095 161.871 71.4458 162.093C71.7988 162.316 72.0731 162.628 72.2687 163.031C72.4666 163.433 72.5655 163.904 72.5655 164.444C72.5655 164.979 72.4666 165.447 72.2687 165.847C72.0731 166.247 71.7988 166.559 71.4458 166.781C71.095 167.004 70.6858 167.115 70.2182 167.115ZM70.2182 166.4C70.5734 166.4 70.8657 166.309 71.095 166.127C71.3244 165.945 71.4941 165.705 71.6043 165.409C71.7145 165.112 71.7696 164.79 71.7696 164.444C71.7696 164.098 71.7145 163.775 71.6043 163.476C71.4941 163.177 71.3244 162.935 71.095 162.751C70.8657 162.567 70.5734 162.474 70.2182 162.474C69.8629 162.474 69.5706 162.567 69.3413 162.751C69.1119 162.935 68.9422 163.177 68.832 163.476C68.7218 163.775 68.6667 164.098 68.6667 164.444C68.6667 164.79 68.7218 165.112 68.832 165.409C68.9422 165.705 69.1119 165.945 69.3413 166.127C69.5706 166.309 69.8629 166.4 70.2182 166.4ZM74.5765 163.891V167.007H73.7805V161.827H74.5495V162.636H74.617C74.7384 162.373 74.9227 162.162 75.1701 162.002C75.4174 161.84 75.7367 161.759 76.1279 161.759C76.4787 161.759 76.7856 161.831 77.0486 161.975C77.3117 162.117 77.5163 162.333 77.6625 162.623C77.8086 162.911 77.8817 163.275 77.8817 163.716V167.007H77.0857V163.77C77.0857 163.363 76.9801 163.046 76.7687 162.818C76.5574 162.589 76.2673 162.474 75.8986 162.474C75.6445 162.474 75.4174 162.53 75.2173 162.64C75.0194 162.75 74.8632 162.911 74.7485 163.122C74.6338 163.333 74.5765 163.59 74.5765 163.891ZM81.5082 167.115C81.009 167.115 80.5784 167.005 80.2164 166.785C79.8567 166.562 79.579 166.252 79.3834 165.854C79.19 165.454 79.0933 164.988 79.0933 164.458C79.0933 163.927 79.19 163.459 79.3834 163.055C79.579 162.648 79.8511 162.331 80.1996 162.103C80.5503 161.874 80.9595 161.759 81.4272 161.759C81.697 161.759 81.9635 161.804 82.2265 161.894C82.4896 161.984 82.7291 162.13 82.9449 162.333C83.1608 162.533 83.3328 162.798 83.4609 163.129C83.5891 163.459 83.6532 163.866 83.6532 164.35V164.687H79.6599V163.999H82.8437C82.8437 163.707 82.7853 163.446 82.6684 163.216C82.5537 162.987 82.3895 162.806 82.1759 162.673C81.9646 162.541 81.715 162.474 81.4272 162.474C81.1102 162.474 80.8359 162.553 80.6043 162.711C80.3749 162.866 80.1984 163.068 80.0748 163.318C79.9511 163.567 79.8893 163.835 79.8893 164.12V164.579C79.8893 164.97 79.9567 165.302 80.0916 165.574C80.2288 165.844 80.4188 166.049 80.6616 166.191C80.9044 166.331 81.1866 166.4 81.5082 166.4C81.7173 166.4 81.9061 166.371 82.0748 166.313C82.2456 166.252 82.3929 166.162 82.5166 166.043C82.6402 165.921 82.7358 165.771 82.8033 165.591L83.5722 165.807C83.4913 166.067 83.3553 166.297 83.1641 166.495C82.973 166.69 82.7369 166.843 82.4559 166.953C82.1748 167.061 81.8589 167.115 81.5082 167.115ZM87.643 167.007V160.1H89.9769C90.5165 160.1 90.9595 160.192 91.3058 160.377C91.652 160.559 91.9083 160.809 92.0747 161.129C92.2411 161.448 92.3243 161.811 92.3243 162.218C92.3243 162.625 92.2411 162.986 92.0747 163.301C91.9083 163.616 91.6531 163.863 91.3091 164.043C90.9651 164.22 90.5255 164.309 89.9904 164.309H88.1017V163.554H89.9634C90.3322 163.554 90.629 163.5 90.8538 163.392C91.0809 163.284 91.245 163.131 91.3462 162.933C91.4497 162.733 91.5014 162.495 91.5014 162.218C91.5014 161.942 91.4497 161.7 91.3462 161.493C91.2428 161.286 91.0775 161.127 90.8504 161.014C90.6233 160.899 90.3232 160.842 89.9499 160.842H88.4795V167.007H87.643ZM90.8943 163.904L92.5941 167.007H91.6228L89.9499 163.904H90.8943ZM93.6101 167.007V161.827H94.4061V167.007H93.6101ZM94.0148 160.964C93.8597 160.964 93.7259 160.911 93.6135 160.805C93.5033 160.699 93.4482 160.572 93.4482 160.424C93.4482 160.275 93.5033 160.148 93.6135 160.043C93.7259 159.937 93.8597 159.884 94.0148 159.884C94.17 159.884 94.3026 159.937 94.4128 160.043C94.5252 160.148 94.5815 160.275 94.5815 160.424C94.5815 160.572 94.5252 160.699 94.4128 160.805C94.3026 160.911 94.17 160.964 94.0148 160.964ZM97.955 169.058C97.5705 169.058 97.24 169.008 96.9634 168.91C96.6868 168.813 96.4564 168.685 96.272 168.525C96.0899 168.368 95.9449 168.199 95.8369 168.019L96.471 167.574C96.5429 167.668 96.634 167.776 96.7442 167.898C96.8543 168.021 97.005 168.128 97.1961 168.218C97.3895 168.31 97.6424 168.356 97.955 168.356C98.3732 168.356 98.7183 168.255 98.9904 168.053C99.2624 167.85 99.3985 167.533 99.3985 167.102V166.049H99.331C99.2726 166.144 99.1894 166.261 99.0814 166.4C98.9758 166.537 98.8229 166.66 98.6228 166.768C98.4249 166.874 98.1573 166.926 97.8201 166.926C97.4018 166.926 97.0264 166.827 96.6936 166.63C96.3631 166.432 96.1011 166.144 95.9078 165.766C95.7166 165.388 95.6211 164.93 95.6211 164.39C95.6211 163.86 95.7144 163.397 95.901 163.004C96.0876 162.608 96.3473 162.302 96.6801 162.087C97.0129 161.869 97.3973 161.759 97.8335 161.759C98.1708 161.759 98.4384 161.816 98.6362 161.928C98.8364 162.038 98.9892 162.164 99.0949 162.306C99.2028 162.445 99.286 162.56 99.3445 162.65H99.4254V161.827H100.194V167.156C100.194 167.601 100.093 167.963 99.8909 168.242C99.6908 168.523 99.4209 168.729 99.0814 168.859C98.7442 168.992 98.3687 169.058 97.955 169.058ZM97.928 166.211C98.2473 166.211 98.5171 166.138 98.7374 165.992C98.9578 165.846 99.1253 165.636 99.2399 165.361C99.3546 165.087 99.412 164.759 99.412 164.377C99.412 164.003 99.3557 163.674 99.2433 163.388C99.1309 163.103 98.9645 162.879 98.7442 162.717C98.5238 162.555 98.2518 162.474 97.928 162.474C97.5907 162.474 97.3097 162.56 97.0848 162.731C96.8622 162.902 96.6947 163.131 96.5823 163.419C96.4721 163.707 96.417 164.026 96.417 164.377C96.417 164.736 96.4732 165.055 96.5857 165.331C96.7003 165.605 96.869 165.821 97.0916 165.979C97.3164 166.134 97.5952 166.211 97.928 166.211ZM102.447 163.891V167.007H101.651V160.1H102.447V162.636H102.515C102.636 162.369 102.818 162.156 103.061 161.999C103.306 161.839 103.632 161.759 104.039 161.759C104.392 161.759 104.701 161.83 104.967 161.972C105.232 162.111 105.438 162.326 105.584 162.616C105.732 162.904 105.807 163.27 105.807 163.716V167.007H105.011V163.77C105.011 163.358 104.904 163.04 104.69 162.815C104.479 162.588 104.185 162.474 103.81 162.474C103.549 162.474 103.315 162.53 103.108 162.64C102.904 162.75 102.742 162.911 102.623 163.122C102.506 163.333 102.447 163.59 102.447 163.891ZM109.516 161.827V162.501H106.831V161.827H109.516ZM107.613 160.586H108.409V165.523C108.409 165.748 108.442 165.917 108.507 166.029C108.575 166.139 108.66 166.214 108.764 166.252C108.869 166.288 108.98 166.306 109.097 166.306C109.185 166.306 109.257 166.301 109.313 166.292C109.369 166.281 109.414 166.272 109.448 166.265L109.61 166.98C109.556 167.001 109.481 167.021 109.384 167.041C109.287 167.064 109.165 167.075 109.016 167.075C108.792 167.075 108.571 167.026 108.355 166.93C108.142 166.833 107.964 166.686 107.823 166.488C107.683 166.29 107.613 166.04 107.613 165.739V160.586ZM118.214 162.259C118.14 162.032 118.042 161.828 117.92 161.648C117.801 161.466 117.658 161.311 117.492 161.183C117.328 161.055 117.141 160.957 116.932 160.889C116.723 160.822 116.494 160.788 116.244 160.788C115.835 160.788 115.463 160.894 115.128 161.105C114.793 161.317 114.526 161.628 114.328 162.039C114.131 162.451 114.032 162.956 114.032 163.554C114.032 164.152 114.132 164.657 114.332 165.068C114.532 165.48 114.803 165.791 115.145 166.002C115.486 166.214 115.871 166.319 116.298 166.319C116.694 166.319 117.042 166.235 117.344 166.066C117.647 165.895 117.883 165.655 118.052 165.345C118.223 165.032 118.308 164.664 118.308 164.242L118.564 164.296H116.487V163.554H119.118V164.296C119.118 164.865 118.996 165.359 118.753 165.78C118.513 166.2 118.18 166.526 117.755 166.758C117.332 166.987 116.847 167.102 116.298 167.102C115.686 167.102 115.149 166.958 114.686 166.67C114.225 166.382 113.865 165.973 113.607 165.442C113.35 164.912 113.222 164.282 113.222 163.554C113.222 163.007 113.295 162.516 113.441 162.08C113.59 161.641 113.799 161.268 114.069 160.96C114.339 160.652 114.658 160.416 115.027 160.252C115.395 160.088 115.801 160.006 116.244 160.006C116.608 160.006 116.948 160.061 117.263 160.171C117.58 160.279 117.862 160.433 118.109 160.633C118.359 160.831 118.567 161.068 118.733 161.345C118.9 161.619 119.014 161.924 119.077 162.259H118.214ZM123.707 164.889V161.827H124.503V167.007H123.707V166.13H123.653C123.532 166.393 123.343 166.617 123.086 166.802C122.83 166.984 122.506 167.075 122.115 167.075C121.791 167.075 121.503 167.004 121.252 166.862C121 166.718 120.802 166.503 120.658 166.215C120.514 165.925 120.442 165.559 120.442 165.119V161.827H121.238V165.065C121.238 165.442 121.344 165.744 121.555 165.969C121.769 166.193 122.041 166.306 122.371 166.306C122.569 166.306 122.77 166.255 122.975 166.154C123.182 166.053 123.355 165.898 123.494 165.689C123.636 165.48 123.707 165.213 123.707 164.889ZM127.485 167.129C127.157 167.129 126.859 167.067 126.591 166.943C126.324 166.817 126.111 166.636 125.954 166.4C125.797 166.162 125.718 165.874 125.718 165.537C125.718 165.24 125.776 164.999 125.893 164.815C126.01 164.628 126.166 164.482 126.362 164.377C126.558 164.271 126.774 164.192 127.01 164.141C127.248 164.087 127.487 164.044 127.728 164.012C128.043 163.972 128.298 163.942 128.494 163.921C128.691 163.899 128.835 163.862 128.925 163.81C129.017 163.758 129.064 163.668 129.064 163.54V163.513C129.064 163.18 128.973 162.922 128.79 162.738C128.611 162.553 128.337 162.461 127.971 162.461C127.591 162.461 127.293 162.544 127.077 162.711C126.861 162.877 126.709 163.055 126.622 163.243L125.866 162.974C126.001 162.659 126.181 162.414 126.406 162.238C126.633 162.061 126.88 161.937 127.148 161.867C127.418 161.795 127.683 161.759 127.944 161.759C128.11 161.759 128.301 161.78 128.517 161.82C128.735 161.858 128.946 161.938 129.148 162.06C129.353 162.181 129.522 162.364 129.657 162.609C129.792 162.854 129.86 163.183 129.86 163.594V167.007H129.064V166.306H129.023C128.969 166.418 128.879 166.539 128.753 166.667C128.627 166.795 128.46 166.904 128.251 166.994C128.042 167.084 127.786 167.129 127.485 167.129ZM127.607 166.414C127.921 166.414 128.187 166.352 128.403 166.228C128.621 166.105 128.785 165.945 128.895 165.749C129.007 165.554 129.064 165.348 129.064 165.132V164.404C129.03 164.444 128.956 164.481 128.841 164.515C128.729 164.546 128.598 164.575 128.45 164.599C128.304 164.622 128.161 164.642 128.021 164.66C127.884 164.676 127.773 164.689 127.688 164.7C127.481 164.727 127.287 164.771 127.107 164.832C126.93 164.89 126.786 164.979 126.676 165.098C126.568 165.215 126.514 165.375 126.514 165.577C126.514 165.854 126.616 166.063 126.821 166.205C127.028 166.344 127.29 166.414 127.607 166.414ZM131.312 167.007V161.827H132.081V162.609H132.135C132.23 162.353 132.401 162.145 132.648 161.985C132.895 161.826 133.174 161.746 133.484 161.746C133.543 161.746 133.616 161.747 133.704 161.749C133.791 161.752 133.858 161.755 133.903 161.759V162.569C133.876 162.562 133.814 162.552 133.717 162.539C133.623 162.523 133.523 162.515 133.417 162.515C133.165 162.515 132.94 162.568 132.742 162.673C132.547 162.777 132.392 162.921 132.277 163.105C132.164 163.287 132.108 163.495 132.108 163.729V167.007H131.312ZM136.37 167.129C136.042 167.129 135.744 167.067 135.477 166.943C135.209 166.817 134.997 166.636 134.839 166.4C134.682 166.162 134.603 165.874 134.603 165.537C134.603 165.24 134.662 164.999 134.779 164.815C134.895 164.628 135.052 164.482 135.247 164.377C135.443 164.271 135.659 164.192 135.895 164.141C136.133 164.087 136.373 164.044 136.613 164.012C136.928 163.972 137.183 163.942 137.379 163.921C137.577 163.899 137.721 163.862 137.811 163.81C137.903 163.758 137.949 163.668 137.949 163.54V163.513C137.949 163.18 137.858 162.922 137.676 162.738C137.496 162.553 137.223 162.461 136.856 162.461C136.476 162.461 136.178 162.544 135.962 162.711C135.747 162.877 135.595 163.055 135.507 163.243L134.752 162.974C134.886 162.659 135.066 162.414 135.291 162.238C135.518 162.061 135.766 161.937 136.033 161.867C136.303 161.795 136.568 161.759 136.829 161.759C136.996 161.759 137.187 161.78 137.403 161.82C137.621 161.858 137.831 161.938 138.033 162.06C138.238 162.181 138.408 162.364 138.542 162.609C138.677 162.854 138.745 163.183 138.745 163.594V167.007H137.949V166.306H137.908C137.854 166.418 137.765 166.539 137.639 166.667C137.513 166.795 137.345 166.904 137.136 166.994C136.927 167.084 136.672 167.129 136.37 167.129ZM136.492 166.414C136.807 166.414 137.072 166.352 137.288 166.228C137.506 166.105 137.67 165.945 137.78 165.749C137.893 165.554 137.949 165.348 137.949 165.132V164.404C137.915 164.444 137.841 164.481 137.726 164.515C137.614 164.546 137.483 164.575 137.335 164.599C137.189 164.622 137.046 164.642 136.907 164.66C136.77 164.676 136.658 164.689 136.573 164.7C136.366 164.727 136.173 164.771 135.993 164.832C135.815 164.89 135.671 164.979 135.561 165.098C135.453 165.215 135.399 165.375 135.399 165.577C135.399 165.854 135.501 166.063 135.706 166.205C135.913 166.344 136.175 166.414 136.492 166.414ZM140.994 163.891V167.007H140.198V161.827H140.967V162.636H141.034C141.155 162.373 141.34 162.162 141.587 162.002C141.834 161.84 142.154 161.759 142.545 161.759C142.896 161.759 143.203 161.831 143.466 161.975C143.729 162.117 143.933 162.333 144.08 162.623C144.226 162.911 144.299 163.275 144.299 163.716V167.007H143.503V163.77C143.503 163.363 143.397 163.046 143.186 162.818C142.974 162.589 142.684 162.474 142.316 162.474C142.062 162.474 141.834 162.53 141.634 162.64C141.436 162.75 141.28 162.911 141.166 163.122C141.051 163.333 140.994 163.59 140.994 163.891ZM148.006 161.827V162.501H145.322V161.827H148.006ZM146.104 160.586H146.9V165.523C146.9 165.748 146.933 165.917 146.998 166.029C147.065 166.139 147.151 166.214 147.254 166.252C147.36 166.288 147.471 166.306 147.588 166.306C147.676 166.306 147.748 166.301 147.804 166.292C147.86 166.281 147.905 166.272 147.939 166.265L148.101 166.98C148.047 167.001 147.971 167.021 147.875 167.041C147.778 167.064 147.655 167.075 147.507 167.075C147.282 167.075 147.062 167.026 146.846 166.93C146.632 166.833 146.455 166.686 146.313 166.488C146.174 166.29 146.104 166.04 146.104 165.739V160.586ZM151.32 167.115C150.821 167.115 150.39 167.005 150.028 166.785C149.668 166.562 149.391 166.252 149.195 165.854C149.002 165.454 148.905 164.988 148.905 164.458C148.905 163.927 149.002 163.459 149.195 163.055C149.391 162.648 149.663 162.331 150.011 162.103C150.362 161.874 150.771 161.759 151.239 161.759C151.509 161.759 151.775 161.804 152.038 161.894C152.301 161.984 152.541 162.13 152.757 162.333C152.972 162.533 153.144 162.798 153.273 163.129C153.401 163.459 153.465 163.866 153.465 164.35V164.687H149.472V163.999H152.655C152.655 163.707 152.597 163.446 152.48 163.216C152.365 162.987 152.201 162.806 151.988 162.673C151.776 162.541 151.527 162.474 151.239 162.474C150.922 162.474 150.648 162.553 150.416 162.711C150.187 162.866 150.01 163.068 149.886 163.318C149.763 163.567 149.701 163.835 149.701 164.12V164.579C149.701 164.97 149.768 165.302 149.903 165.574C150.04 165.844 150.23 166.049 150.473 166.191C150.716 166.331 150.998 166.4 151.32 166.4C151.529 166.4 151.718 166.371 151.886 166.313C152.057 166.252 152.205 166.162 152.328 166.043C152.452 165.921 152.547 165.771 152.615 165.591L153.384 165.807C153.303 166.067 153.167 166.297 152.976 166.495C152.785 166.69 152.549 166.843 152.268 166.953C151.986 167.061 151.671 167.115 151.32 167.115ZM156.848 167.115C156.348 167.115 155.918 167.005 155.556 166.785C155.196 166.562 154.918 166.252 154.723 165.854C154.529 165.454 154.433 164.988 154.433 164.458C154.433 163.927 154.529 163.459 154.723 163.055C154.918 162.648 155.191 162.331 155.539 162.103C155.89 161.874 156.299 161.759 156.767 161.759C157.036 161.759 157.303 161.804 157.566 161.894C157.829 161.984 158.069 162.13 158.284 162.333C158.5 162.533 158.672 162.798 158.8 163.129C158.929 163.459 158.993 163.866 158.993 164.35V164.687H154.999V163.999H158.183C158.183 163.707 158.125 163.446 158.008 163.216C157.893 162.987 157.729 162.806 157.515 162.673C157.304 162.541 157.054 162.474 156.767 162.474C156.45 162.474 156.175 162.553 155.944 162.711C155.714 162.866 155.538 163.068 155.414 163.318C155.291 163.567 155.229 163.835 155.229 164.12V164.579C155.229 164.97 155.296 165.302 155.431 165.574C155.568 165.844 155.758 166.049 156.001 166.191C156.244 166.331 156.526 166.4 156.848 166.4C157.057 166.4 157.246 166.371 157.414 166.313C157.585 166.252 157.732 166.162 157.856 166.043C157.98 165.921 158.075 165.771 158.143 165.591L158.912 165.807C158.831 166.067 158.695 166.297 158.504 166.495C158.312 166.69 158.076 166.843 157.795 166.953C157.514 167.061 157.198 167.115 156.848 167.115ZM162.16 167.115C161.728 167.115 161.347 167.006 161.016 166.788C160.686 166.568 160.427 166.257 160.241 165.857C160.054 165.455 159.961 164.979 159.961 164.431C159.961 163.886 160.054 163.414 160.241 163.014C160.427 162.614 160.687 162.305 161.02 162.087C161.352 161.869 161.737 161.759 162.173 161.759C162.51 161.759 162.777 161.816 162.972 161.928C163.17 162.038 163.321 162.164 163.424 162.306C163.53 162.445 163.612 162.56 163.671 162.65H163.738V160.1H164.534V167.007H163.765V166.211H163.671C163.612 166.306 163.529 166.425 163.421 166.569C163.313 166.711 163.159 166.838 162.959 166.95C162.759 167.06 162.492 167.115 162.16 167.115ZM162.267 166.4C162.587 166.4 162.857 166.317 163.077 166.151C163.297 165.982 163.465 165.749 163.579 165.453C163.694 165.153 163.751 164.808 163.751 164.417C163.751 164.03 163.695 163.692 163.583 163.402C163.47 163.11 163.304 162.883 163.084 162.721C162.863 162.557 162.591 162.474 162.267 162.474C161.93 162.474 161.649 162.561 161.424 162.734C161.202 162.905 161.034 163.138 160.922 163.432C160.812 163.725 160.757 164.053 160.757 164.417C160.757 164.786 160.813 165.121 160.925 165.422C161.04 165.721 161.208 165.96 161.431 166.137C161.656 166.313 161.935 166.4 162.267 166.4ZM166.682 167.061C166.516 167.061 166.373 167.002 166.254 166.883C166.135 166.763 166.075 166.621 166.075 166.454C166.075 166.288 166.135 166.145 166.254 166.026C166.373 165.907 166.516 165.847 166.682 165.847C166.849 165.847 166.991 165.907 167.111 166.026C167.23 166.145 167.289 166.288 167.289 166.454C167.289 166.564 167.261 166.666 167.205 166.758C167.151 166.85 167.078 166.924 166.986 166.98C166.896 167.034 166.795 167.061 166.682 167.061Z" fill="black" fill-opacity="0.6"/>
<path d="M45.2579 41.5972C45.2224 41.2648 45.0727 41.006 44.8088 40.8208C44.5475 40.6356 44.2075 40.543 43.7888 40.543C43.4945 40.543 43.242 40.5874 43.0314 40.6762C42.8208 40.765 42.6597 40.8855 42.5481 41.0377C42.4364 41.19 42.3793 41.3638 42.3768 41.5592C42.3768 41.7216 42.4136 41.8624 42.4872 41.9816C42.5633 42.1009 42.6661 42.2024 42.7955 42.2861C42.9249 42.3673 43.0682 42.4358 43.2255 42.4916C43.3829 42.5475 43.5414 42.5944 43.7013 42.6325L44.432 42.8152C44.7264 42.8837 45.0093 42.9763 45.2808 43.093C45.5548 43.2097 45.7997 43.3569 46.0153 43.5345C46.2336 43.7121 46.4061 43.9265 46.533 44.1777C46.6598 44.4289 46.7233 44.7232 46.7233 45.0607C46.7233 45.5174 46.6065 45.9196 46.3731 46.2672C46.1397 46.6123 45.8022 46.8825 45.3607 47.0779C44.9217 47.2707 44.3902 47.3671 43.766 47.3671C43.1596 47.3671 42.6331 47.2733 42.1865 47.0855C41.7425 46.8977 41.3949 46.6237 41.1437 46.2634C40.895 45.9031 40.7605 45.4641 40.7402 44.9465H42.1294C42.1497 45.218 42.2334 45.4438 42.3806 45.624C42.5278 45.8041 42.7193 45.9386 42.9553 46.0274C43.1938 46.1162 43.4602 46.1606 43.7546 46.1606C44.0616 46.1606 44.3305 46.115 44.5614 46.0236C44.7949 45.9297 44.9776 45.8003 45.1095 45.6354C45.2415 45.4679 45.3087 45.2726 45.3112 45.0493C45.3087 44.8463 45.2491 44.6788 45.1323 44.5469C45.0156 44.4124 44.852 44.3008 44.6414 44.212C44.4333 44.1206 44.1897 44.0394 43.9106 43.9684L43.0238 43.74C42.3819 43.5751 41.8744 43.3252 41.5014 42.9902C41.131 42.6528 40.9457 42.2049 40.9457 41.6467C40.9457 41.1875 41.0701 40.7853 41.3187 40.4402C41.5699 40.0951 41.9112 39.8274 42.3425 39.6371C42.7739 39.4443 43.2623 39.3479 43.8079 39.3479C44.361 39.3479 44.8456 39.4443 45.2618 39.6371C45.6804 39.8274 46.009 40.0926 46.2475 40.4326C46.486 40.7701 46.6091 41.1583 46.6167 41.5972H45.2579ZM50.8404 41.4031V42.4688H47.4797V41.4031H50.8404ZM48.3094 40.0025H49.6872V45.4908C49.6872 45.676 49.7151 45.8181 49.7709 45.917C49.8293 46.0135 49.9054 46.0794 49.9993 46.115C50.0932 46.1505 50.1972 46.1682 50.3114 46.1682C50.3976 46.1682 50.4763 46.1619 50.5473 46.1492C50.6209 46.1365 50.6767 46.1251 50.7148 46.115L50.947 47.1921C50.8734 47.2174 50.7681 47.2453 50.6311 47.2758C50.4966 47.3062 50.3317 47.324 50.1363 47.3291C49.7912 47.3392 49.4804 47.2872 49.2038 47.173C48.9272 47.0563 48.7078 46.8762 48.5454 46.6326C48.3855 46.389 48.3069 46.0845 48.3094 45.7191V40.0025ZM53.6749 47.3671C53.3045 47.3671 52.9708 47.3012 52.6739 47.1692C52.3796 47.0347 52.1462 46.8368 51.9736 46.5755C51.8036 46.3141 51.7186 45.9919 51.7186 45.6088C51.7186 45.2789 51.7795 45.0061 51.9013 44.7905C52.0231 44.5748 52.1893 44.4023 52.3999 44.2729C52.6105 44.1434 52.8477 44.0458 53.1116 43.9798C53.3781 43.9113 53.6534 43.8618 53.9375 43.8314C54.2801 43.7958 54.5579 43.7641 54.771 43.7362C54.9842 43.7058 55.139 43.6601 55.2354 43.5992C55.3343 43.5358 55.3838 43.4381 55.3838 43.3061V43.2833C55.3838 42.9966 55.2988 42.7746 55.1288 42.6172C54.9588 42.4599 54.714 42.3813 54.3943 42.3813C54.0568 42.3813 53.7891 42.4549 53.5912 42.602C53.3958 42.7492 53.2639 42.923 53.1954 43.1234L51.9089 42.9408C52.0104 42.5855 52.1779 42.2887 52.4113 42.0501C52.6448 41.8091 52.9302 41.6289 53.2677 41.5097C53.6051 41.3879 53.9781 41.327 54.3866 41.327C54.6683 41.327 54.9487 41.36 55.2278 41.426C55.5069 41.4919 55.7619 41.601 55.9928 41.7533C56.2237 41.903 56.4089 42.1072 56.5485 42.366C56.6905 42.6249 56.7616 42.9484 56.7616 43.3366V47.2491H55.4371V46.4461H55.3914C55.3077 46.6085 55.1897 46.7607 55.0375 46.9028C54.8878 47.0424 54.6987 47.1553 54.4704 47.2415C54.2446 47.3253 53.9794 47.3671 53.6749 47.3671ZM54.0327 46.3547C54.3093 46.3547 54.549 46.3002 54.752 46.1911C54.955 46.0794 55.1111 45.9323 55.2202 45.7496C55.3318 45.5669 55.3876 45.3677 55.3876 45.152V44.4632C55.3445 44.4987 55.2709 44.5317 55.1669 44.5621C55.0654 44.5926 54.9512 44.6192 54.8243 44.642C54.6975 44.6649 54.5719 44.6852 54.4475 44.7029C54.3232 44.7207 54.2154 44.7359 54.124 44.7486C53.9185 44.7765 53.7345 44.8222 53.5722 44.8856C53.4098 44.9491 53.2816 45.0379 53.1878 45.152C53.0939 45.2637 53.0469 45.4083 53.0469 45.5859C53.0469 45.8397 53.1395 46.0312 53.3248 46.1606C53.51 46.29 53.746 46.3547 54.0327 46.3547ZM58.147 47.2491V41.4031H59.4829V42.3775H59.5438C59.6503 42.04 59.833 41.7799 60.0918 41.5972C60.3532 41.412 60.6513 41.3194 60.9863 41.3194C61.0624 41.3194 61.1474 41.3232 61.2413 41.3308C61.3377 41.3359 61.4176 41.3448 61.481 41.3575V42.6249C61.4227 42.6046 61.3301 42.5868 61.2032 42.5716C61.0789 42.5538 60.9583 42.5449 60.8416 42.5449C60.5904 42.5449 60.3646 42.5995 60.1642 42.7086C59.9662 42.8152 59.8102 42.9636 59.696 43.1539C59.5818 43.3442 59.5247 43.5637 59.5247 43.8123V47.2491H58.147ZM65.6296 41.4031V42.4688H62.2689V41.4031H65.6296ZM63.0986 40.0025H64.4764V45.4908C64.4764 45.676 64.5043 45.8181 64.5601 45.917C64.6184 46.0135 64.6946 46.0794 64.7884 46.115C64.8823 46.1505 64.9864 46.1682 65.1005 46.1682C65.1868 46.1682 65.2655 46.1619 65.3365 46.1492C65.4101 46.1365 65.4659 46.1251 65.504 46.115L65.7361 47.1921C65.6626 47.2174 65.5573 47.2453 65.4202 47.2758C65.2858 47.3062 65.1208 47.324 64.9255 47.3291C64.5804 47.3392 64.2696 47.2872 63.993 47.173C63.7164 47.0563 63.4969 46.8762 63.3346 46.6326C63.1747 46.389 63.096 46.0845 63.0986 45.7191V40.0025ZM68.9684 39.4545H70.5631L72.4699 42.9027H72.546L74.4528 39.4545H76.0476L73.2121 44.3414V47.2491H71.8039V44.3414L68.9684 39.4545ZM78.4482 47.3633C77.8773 47.3633 77.3825 47.2377 76.9638 46.9865C76.5452 46.7353 76.2204 46.3839 75.9895 45.9323C75.7612 45.4806 75.647 44.9529 75.647 44.349C75.647 43.7451 75.7612 43.2161 75.9895 42.7619C76.2204 42.3077 76.5452 41.955 76.9638 41.7038C77.3825 41.4526 77.8773 41.327 78.4482 41.327C79.0191 41.327 79.5139 41.4526 79.9325 41.7038C80.3512 41.955 80.6747 42.3077 80.9031 42.7619C81.134 43.2161 81.2494 43.7451 81.2494 44.349C81.2494 44.9529 81.134 45.4806 80.9031 45.9323C80.6747 46.3839 80.3512 46.7353 79.9325 46.9865C79.5139 47.2377 79.0191 47.3633 78.4482 47.3633ZM78.4558 46.2596C78.7654 46.2596 79.0242 46.1746 79.2322 46.0046C79.4403 45.832 79.5951 45.6011 79.6966 45.3119C79.8006 45.0226 79.8526 44.7004 79.8526 44.3452C79.8526 43.9874 79.8006 43.6639 79.6966 43.3746C79.5951 43.0828 79.4403 42.8507 79.2322 42.6781C79.0242 42.5056 78.7654 42.4193 78.4558 42.4193C78.1386 42.4193 77.8748 42.5056 77.6642 42.6781C77.4561 42.8507 77.3 43.0828 77.196 43.3746C77.0945 43.6639 77.0438 43.9874 77.0438 44.3452C77.0438 44.7004 77.0945 45.0226 77.196 45.3119C77.3 45.6011 77.4561 45.832 77.6642 46.0046C77.8748 46.1746 78.1386 46.2596 78.4558 46.2596ZM86.1449 44.7905V41.4031H87.5227V47.2491H86.1867V46.2101H86.1258C85.9939 46.5374 85.777 46.8051 85.475 47.0132C85.1756 47.2212 84.8064 47.3253 84.3675 47.3253C83.9843 47.3253 83.6456 47.2403 83.3513 47.0703C83.0595 46.8977 82.8311 46.6478 82.6662 46.3205C82.5013 45.9906 82.4188 45.5923 82.4188 45.1254V41.4031H83.7966V44.9123C83.7966 45.2827 83.8981 45.577 84.1011 45.7953C84.304 46.0135 84.5705 46.1226 84.9003 46.1226C85.1033 46.1226 85.2999 46.0731 85.4902 45.9741C85.6805 45.8752 85.8366 45.728 85.9584 45.5326C86.0827 45.3347 86.1449 45.0873 86.1449 44.7905ZM88.9394 47.2491V41.4031H90.2753V42.3775H90.3362C90.4428 42.04 90.6255 41.7799 90.8843 41.5972C91.1456 41.412 91.4438 41.3194 91.7787 41.3194C91.8548 41.3194 91.9398 41.3232 92.0337 41.3308C92.1301 41.3359 92.2101 41.3448 92.2735 41.3575V42.6249C92.2151 42.6046 92.1225 42.5868 91.9957 42.5716C91.8713 42.5538 91.7508 42.5449 91.6341 42.5449C91.3829 42.5449 91.1571 42.5995 90.9566 42.7086C90.7587 42.8152 90.6027 42.9636 90.4885 43.1539C90.3743 43.3442 90.3172 43.5637 90.3172 43.8123V47.2491H88.9394ZM96.9092 47.2491H95.402L98.1462 39.4545H99.8893L102.637 47.2491H101.13L99.0482 41.053H98.9873L96.9092 47.2491ZM96.9587 44.1929H101.069V45.3271H96.9587V44.1929ZM103.603 49.4414V41.4031H104.958V42.3699H105.038C105.109 42.2278 105.209 42.0768 105.339 41.9169C105.468 41.7545 105.643 41.6163 105.864 41.5021C106.085 41.3854 106.366 41.327 106.709 41.327C107.16 41.327 107.568 41.4425 107.93 41.6734C108.296 41.9017 108.585 42.2404 108.798 42.6896C109.014 43.1361 109.122 43.6842 109.122 44.3337C109.122 44.9757 109.016 45.5212 108.806 45.9703C108.595 46.4194 108.309 46.762 107.946 46.9979C107.583 47.2339 107.172 47.3519 106.713 47.3519C106.378 47.3519 106.1 47.2961 105.879 47.1844C105.658 47.0728 105.481 46.9383 105.346 46.781C105.214 46.6212 105.111 46.4702 105.038 46.3281H104.981V49.4414H103.603ZM104.954 44.3261C104.954 44.7042 105.007 45.0353 105.114 45.3195C105.223 45.6037 105.379 45.8257 105.582 45.9856C105.788 46.1429 106.036 46.2215 106.328 46.2215C106.633 46.2215 106.888 46.1403 107.093 45.9779C107.299 45.813 107.453 45.5885 107.557 45.3043C107.664 45.0176 107.717 44.6915 107.717 44.3261C107.717 43.9633 107.665 43.6411 107.561 43.3594C107.457 43.0778 107.302 42.857 107.097 42.6972C106.891 42.5373 106.635 42.4574 106.328 42.4574C106.034 42.4574 105.784 42.5348 105.578 42.6896C105.373 42.8443 105.217 43.0613 105.11 43.3404C105.006 43.6195 104.954 43.9481 104.954 44.3261ZM110.302 49.4414V41.4031H111.657V42.3699H111.736C111.807 42.2278 111.908 42.0768 112.037 41.9169C112.167 41.7545 112.342 41.6163 112.562 41.5021C112.783 41.3854 113.065 41.327 113.407 41.327C113.859 41.327 114.266 41.4425 114.629 41.6734C114.994 41.9017 115.284 42.2404 115.497 42.6896C115.712 43.1361 115.82 43.6842 115.82 44.3337C115.82 44.9757 115.715 45.5212 115.504 45.9703C115.294 46.4194 115.007 46.762 114.644 46.9979C114.281 47.2339 113.87 47.3519 113.411 47.3519C113.076 47.3519 112.798 47.2961 112.578 47.1844C112.357 47.0728 112.179 46.9383 112.045 46.781C111.913 46.6212 111.81 46.4702 111.736 46.3281H111.679V49.4414H110.302ZM111.653 44.3261C111.653 44.7042 111.706 45.0353 111.813 45.3195C111.922 45.6037 112.078 45.8257 112.281 45.9856C112.486 46.1429 112.735 46.2215 113.027 46.2215C113.331 46.2215 113.586 46.1403 113.792 45.9779C113.997 45.813 114.152 45.5885 114.256 45.3043C114.363 45.0176 114.416 44.6915 114.416 44.3261C114.416 43.9633 114.364 43.6411 114.26 43.3594C114.156 43.0778 114.001 42.857 113.795 42.6972C113.59 42.5373 113.334 42.4574 113.027 42.4574C112.732 42.4574 112.482 42.5348 112.277 42.6896C112.071 42.8443 111.915 43.0613 111.809 43.3404C111.705 43.6195 111.653 43.9481 111.653 44.3261ZM118.378 39.4545V47.2491H117V39.4545H118.378ZM119.795 47.2491V41.4031H121.172V47.2491H119.795ZM120.487 40.5734C120.269 40.5734 120.081 40.5011 119.924 40.3565C119.767 40.2093 119.688 40.033 119.688 39.8274C119.688 39.6194 119.767 39.443 119.924 39.2984C120.081 39.1512 120.269 39.0777 120.487 39.0777C120.708 39.0777 120.896 39.1512 121.051 39.2984C121.208 39.443 121.287 39.6194 121.287 39.8274C121.287 40.033 121.208 40.2093 121.051 40.3565C120.896 40.5011 120.708 40.5734 120.487 40.5734ZM125.139 47.3633C124.556 47.3633 124.055 47.2352 123.636 46.9789C123.22 46.7226 122.899 46.3687 122.673 45.917C122.45 45.4629 122.338 44.9402 122.338 44.349C122.338 43.7552 122.452 43.2313 122.681 42.7771C122.909 42.3204 123.231 41.9651 123.647 41.7114C124.066 41.4551 124.561 41.327 125.132 41.327C125.606 41.327 126.026 41.4145 126.391 41.5896C126.759 41.7622 127.052 42.007 127.271 42.3242C127.489 42.6388 127.613 43.0067 127.644 43.4279H126.327C126.273 43.1463 126.147 42.9116 125.946 42.7238C125.748 42.5335 125.483 42.4384 125.151 42.4384C124.869 42.4384 124.622 42.5145 124.409 42.6667C124.195 42.8164 124.029 43.0321 123.91 43.3137C123.793 43.5954 123.735 43.9328 123.735 44.3261C123.735 44.7245 123.793 45.067 123.91 45.3538C124.027 45.6379 124.19 45.8574 124.401 46.0122C124.614 46.1644 124.864 46.2406 125.151 46.2406C125.354 46.2406 125.535 46.2025 125.695 46.1264C125.857 46.0477 125.993 45.9348 126.102 45.7876C126.211 45.6405 126.286 45.4616 126.327 45.251H127.644C127.611 45.6646 127.489 46.0312 127.278 46.3509C127.068 46.6681 126.781 46.9168 126.418 47.0969C126.055 47.2745 125.629 47.3633 125.139 47.3633ZM130.457 47.3671C130.087 47.3671 129.753 47.3012 129.456 47.1692C129.162 47.0347 128.928 46.8368 128.756 46.5755C128.586 46.3141 128.501 45.9919 128.501 45.6088C128.501 45.2789 128.562 45.0061 128.684 44.7905C128.805 44.5748 128.972 44.4023 129.182 44.2729C129.393 44.1434 129.63 44.0458 129.894 43.9798C130.16 43.9113 130.436 43.8618 130.72 43.8314C131.062 43.7958 131.34 43.7641 131.553 43.7362C131.766 43.7058 131.921 43.6601 132.018 43.5992C132.117 43.5358 132.166 43.4381 132.166 43.3061V43.2833C132.166 42.9966 132.081 42.7746 131.911 42.6172C131.741 42.4599 131.496 42.3813 131.177 42.3813C130.839 42.3813 130.571 42.4549 130.373 42.602C130.178 42.7492 130.046 42.923 129.978 43.1234L128.691 42.9408C128.793 42.5855 128.96 42.2887 129.194 42.0501C129.427 41.8091 129.713 41.6289 130.05 41.5097C130.387 41.3879 130.76 41.327 131.169 41.327C131.451 41.327 131.731 41.36 132.01 41.426C132.289 41.4919 132.544 41.601 132.775 41.7533C133.006 41.903 133.191 42.1072 133.331 42.366C133.473 42.6249 133.544 42.9484 133.544 43.3366V47.2491H132.219V46.4461H132.174C132.09 46.6085 131.972 46.7607 131.82 46.9028C131.67 47.0424 131.481 47.1553 131.253 47.2415C131.027 47.3253 130.762 47.3671 130.457 47.3671ZM130.815 46.3547C131.092 46.3547 131.331 46.3002 131.534 46.1911C131.737 46.0794 131.893 45.9323 132.002 45.7496C132.114 45.5669 132.17 45.3677 132.17 45.152V44.4632C132.127 44.4987 132.053 44.5317 131.949 44.5621C131.848 44.5926 131.733 44.6192 131.607 44.642C131.48 44.6649 131.354 44.6852 131.23 44.7029C131.106 44.7207 130.998 44.7359 130.906 44.7486C130.701 44.7765 130.517 44.8222 130.354 44.8856C130.192 44.9491 130.064 45.0379 129.97 45.152C129.876 45.2637 129.829 45.4083 129.829 45.5859C129.829 45.8397 129.922 46.0312 130.107 46.1606C130.292 46.29 130.528 46.3547 130.815 46.3547ZM137.848 41.4031V42.4688H134.488V41.4031H137.848ZM135.317 40.0025H136.695V45.4908C136.695 45.676 136.723 45.8181 136.779 45.917C136.837 46.0135 136.913 46.0794 137.007 46.115C137.101 46.1505 137.205 46.1682 137.319 46.1682C137.406 46.1682 137.484 46.1619 137.555 46.1492C137.629 46.1365 137.685 46.1251 137.723 46.115L137.955 47.1921C137.881 47.2174 137.776 47.2453 137.639 47.2758C137.505 47.3062 137.34 47.324 137.144 47.3291C136.799 47.3392 136.488 47.2872 136.212 47.173C135.935 47.0563 135.716 46.8762 135.553 46.6326C135.394 46.389 135.315 46.0845 135.317 45.7191V40.0025ZM139.001 47.2491V41.4031H140.379V47.2491H139.001ZM139.693 40.5734C139.475 40.5734 139.287 40.5011 139.13 40.3565C138.973 40.2093 138.894 40.033 138.894 39.8274C138.894 39.6194 138.973 39.443 139.13 39.2984C139.287 39.1512 139.475 39.0777 139.693 39.0777C139.914 39.0777 140.102 39.1512 140.257 39.2984C140.414 39.443 140.493 39.6194 140.493 39.8274C140.493 40.033 140.414 40.2093 140.257 40.3565C140.102 40.5011 139.914 40.5734 139.693 40.5734ZM144.345 47.3633C143.774 47.3633 143.28 47.2377 142.861 46.9865C142.442 46.7353 142.118 46.3839 141.887 45.9323C141.658 45.4806 141.544 44.9529 141.544 44.349C141.544 43.7451 141.658 43.2161 141.887 42.7619C142.118 42.3077 142.442 41.955 142.861 41.7038C143.28 41.4526 143.774 41.327 144.345 41.327C144.916 41.327 145.411 41.4526 145.83 41.7038C146.248 41.955 146.572 42.3077 146.8 42.7619C147.031 43.2161 147.147 43.7451 147.147 44.349C147.147 44.9529 147.031 45.4806 146.8 45.9323C146.572 46.3839 146.248 46.7353 145.83 46.9865C145.411 47.2377 144.916 47.3633 144.345 47.3633ZM144.353 46.2596C144.662 46.2596 144.921 46.1746 145.129 46.0046C145.337 45.832 145.492 45.6011 145.594 45.3119C145.698 45.0226 145.75 44.7004 145.75 44.3452C145.75 43.9874 145.698 43.6639 145.594 43.3746C145.492 43.0828 145.337 42.8507 145.129 42.6781C144.921 42.5056 144.662 42.4193 144.353 42.4193C144.036 42.4193 143.772 42.5056 143.561 42.6781C143.353 42.8507 143.197 43.0828 143.093 43.3746C142.992 43.6639 142.941 43.9874 142.941 44.3452C142.941 44.7004 142.992 45.0226 143.093 45.3119C143.197 45.6011 143.353 45.832 143.561 46.0046C143.772 46.1746 144.036 46.2596 144.353 46.2596ZM149.694 43.8237V47.2491H148.316V41.4031H149.633V42.3965H149.701C149.836 42.0692 150.05 41.8091 150.345 41.6163C150.641 41.4234 151.008 41.327 151.444 41.327C151.848 41.327 152.199 41.4133 152.499 41.5858C152.801 41.7584 153.034 42.0083 153.199 42.3356C153.366 42.6629 153.449 43.06 153.446 43.5269V47.2491H152.069V43.74C152.069 43.3493 151.967 43.0435 151.764 42.8228C151.564 42.602 151.286 42.4916 150.931 42.4916C150.69 42.4916 150.475 42.5449 150.287 42.6515C150.102 42.7555 149.956 42.9065 149.85 43.1044C149.746 43.3023 149.694 43.5421 149.694 43.8237ZM157.224 40.6381V39.4545H163.443V40.6381H161.034V47.2491H159.633V40.6381H157.224ZM166.283 47.3633C165.712 47.3633 165.217 47.2377 164.799 46.9865C164.38 46.7353 164.055 46.3839 163.824 45.9323C163.596 45.4806 163.482 44.9529 163.482 44.349C163.482 43.7451 163.596 43.2161 163.824 42.7619C164.055 42.3077 164.38 41.955 164.799 41.7038C165.217 41.4526 165.712 41.327 166.283 41.327C166.854 41.327 167.349 41.4526 167.767 41.7038C168.186 41.955 168.51 42.3077 168.738 42.7619C168.969 43.2161 169.084 43.7451 169.084 44.349C169.084 44.9529 168.969 45.4806 168.738 45.9323C168.51 46.3839 168.186 46.7353 167.767 46.9865C167.349 47.2377 166.854 47.3633 166.283 47.3633ZM166.291 46.2596C166.6 46.2596 166.859 46.1746 167.067 46.0046C167.275 45.832 167.43 45.6011 167.531 45.3119C167.636 45.0226 167.688 44.7004 167.688 44.3452C167.688 43.9874 167.636 43.6639 167.531 43.3746C167.43 43.0828 167.275 42.8507 167.067 42.6781C166.859 42.5056 166.6 42.4193 166.291 42.4193C165.974 42.4193 165.71 42.5056 165.499 42.6781C165.291 42.8507 165.135 43.0828 165.031 43.3746C164.929 43.6639 164.879 43.9874 164.879 44.3452C164.879 44.7004 164.929 45.0226 165.031 45.3119C165.135 45.6011 165.291 45.832 165.499 46.0046C165.71 46.1746 165.974 46.2596 166.291 46.2596ZM172.423 47.3519C171.964 47.3519 171.553 47.2339 171.19 46.9979C170.827 46.762 170.54 46.4194 170.33 45.9703C170.119 45.5212 170.014 44.9757 170.014 44.3337C170.014 43.6842 170.121 43.1361 170.334 42.6896C170.549 42.2404 170.84 41.9017 171.205 41.6734C171.571 41.4425 171.978 41.327 172.427 41.327C172.769 41.327 173.051 41.3854 173.272 41.5021C173.493 41.6163 173.668 41.7545 173.797 41.9169C173.927 42.0768 174.027 42.2278 174.098 42.3699H174.155V39.4545H175.536V47.2491H174.182V46.3281H174.098C174.027 46.4702 173.924 46.6212 173.789 46.781C173.655 46.9383 173.477 47.0728 173.257 47.1844C173.036 47.2961 172.758 47.3519 172.423 47.3519ZM172.808 46.2215C173.099 46.2215 173.348 46.1429 173.554 45.9856C173.759 45.8257 173.915 45.6037 174.022 45.3195C174.128 45.0353 174.182 44.7042 174.182 44.3261C174.182 43.9481 174.128 43.6195 174.022 43.3404C173.918 43.0613 173.763 42.8443 173.557 42.6896C173.354 42.5348 173.104 42.4574 172.808 42.4574C172.501 42.4574 172.244 42.5373 172.039 42.6972C171.833 42.857 171.678 43.0778 171.574 43.3594C171.47 43.6411 171.418 43.9633 171.418 44.3261C171.418 44.6915 171.47 45.0176 171.574 45.3043C171.681 45.5885 171.837 45.813 172.043 45.9779C172.251 46.1403 172.506 46.2215 172.808 46.2215ZM178.687 47.3671C178.316 47.3671 177.983 47.3012 177.686 47.1692C177.392 47.0347 177.158 46.8368 176.986 46.5755C176.816 46.3141 176.731 45.9919 176.731 45.6088C176.731 45.2789 176.791 45.0061 176.913 44.7905C177.035 44.5748 177.201 44.4023 177.412 44.2729C177.622 44.1434 177.86 44.0458 178.124 43.9798C178.39 43.9113 178.665 43.8618 178.949 43.8314C179.292 43.7958 179.57 43.7641 179.783 43.7362C179.996 43.7058 180.151 43.6601 180.247 43.5992C180.346 43.5358 180.396 43.4381 180.396 43.3061V43.2833C180.396 42.9966 180.311 42.7746 180.141 42.6172C179.971 42.4599 179.726 42.3813 179.406 42.3813C179.069 42.3813 178.801 42.4549 178.603 42.602C178.408 42.7492 178.276 42.923 178.207 43.1234L176.921 42.9408C177.022 42.5855 177.19 42.2887 177.423 42.0501C177.657 41.8091 177.942 41.6289 178.28 41.5097C178.617 41.3879 178.99 41.327 179.399 41.327C179.68 41.327 179.961 41.36 180.24 41.426C180.519 41.4919 180.774 41.601 181.005 41.7533C181.236 41.903 181.421 42.1072 181.56 42.366C181.702 42.6249 181.774 42.9484 181.774 43.3366V47.2491H180.449V46.4461H180.403C180.32 46.6085 180.202 46.7607 180.049 46.9028C179.9 47.0424 179.711 47.1553 179.482 47.2415C179.257 47.3253 178.991 47.3671 178.687 47.3671ZM179.045 46.3547C179.321 46.3547 179.561 46.3002 179.764 46.1911C179.967 46.0794 180.123 45.9323 180.232 45.7496C180.344 45.5669 180.4 45.3677 180.4 45.152V44.4632C180.356 44.4987 180.283 44.5317 180.179 44.5621C180.077 44.5926 179.963 44.6192 179.836 44.642C179.709 44.6649 179.584 44.6852 179.459 44.7029C179.335 44.7207 179.227 44.7359 179.136 44.7486C178.93 44.7765 178.747 44.8222 178.584 44.8856C178.422 44.9491 178.294 45.0379 178.2 45.152C178.106 45.2637 178.059 45.4083 178.059 45.5859C178.059 45.8397 178.151 46.0312 178.337 46.1606C178.522 46.29 178.758 46.3547 179.045 46.3547ZM183.806 49.4414C183.618 49.4414 183.444 49.4262 183.285 49.3957C183.127 49.3678 183.002 49.3348 182.908 49.2968L183.227 48.2235C183.428 48.2818 183.607 48.3098 183.764 48.3072C183.921 48.3047 184.06 48.2552 184.179 48.1588C184.301 48.0649 184.403 47.9076 184.487 47.6868L184.605 47.3709L182.485 41.4031H183.947L185.294 45.8181H185.355L186.706 41.4031H188.171L185.831 47.9571C185.722 48.2666 185.577 48.5318 185.397 48.7525C185.217 48.9758 184.996 49.1458 184.735 49.2625C184.476 49.3818 184.166 49.4414 183.806 49.4414ZM190.811 39.4545L190.685 44.9579H189.46L189.338 39.4545H190.811ZM190.073 47.3329C189.842 47.3329 189.644 47.2517 189.479 47.0893C189.316 46.9269 189.235 46.729 189.235 46.4956C189.235 46.2672 189.316 46.0718 189.479 45.9094C189.644 45.747 189.842 45.6658 190.073 45.6658C190.298 45.6658 190.494 45.747 190.659 45.9094C190.826 46.0718 190.91 46.2672 190.91 46.4956C190.91 46.6503 190.871 46.7912 190.792 46.918C190.716 47.0449 190.614 47.1464 190.487 47.2225C190.363 47.2961 190.225 47.3329 190.073 47.3329Z" fill="black"/>
<line x1="40.2531" y1="62.3039" x2="191.832" y2="62.3039" stroke="#0B417D" stroke-opacity="0.3" stroke-width="0.416426"/>
</g>
<defs>
<filter id="filter0_d_753_2979" x="0.444098" y="0.502392" width="231.196" height="215.12" filterUnits="userSpaceOnUse" color-interpolation-filters="sRGB">
<feFlood flood-opacity="0" result="BackgroundImageFix"/>
<feColorMatrix in="SourceAlpha" type="matrix" values="0 0 0 0 0 0 0 0 0 0 0 0 0 0 0 0 0 0 127 0" result="hardAlpha"/>
<feOffset dy="3.0622"/>
<feGaussianBlur stdDeviation="13.7799"/>
<feComposite in2="hardAlpha" operator="out"/>
<feColorMatrix type="matrix" values="0 0 0 0 0.0431373 0 0 0 0 0.254902 0 0 0 0 0.490196 0 0 0 0.15 0"/>
<feBlend mode="normal" in2="BackgroundImageFix" result="effect1_dropShadow_753_2979"/>
<feBlend mode="normal" in="SourceGraphic" in2="effect1_dropShadow_753_2979" result="shape"/>
</filter>
<clipPath id="clip0_753_2979">
<rect width="14.2461" height="14.2461" fill="white" transform="translate(39.6645 76.2917)"/>
</clipPath>
</defs>
</svg>
